<svg xmlns="http://www.w3.org/2000/svg" xmlns:xlink="http://www.w3.org/1999/xlink" width="40" zoomAndPan="magnify" viewBox="0 0 30 30.000001" height="40" preserveAspectRatio="xMidYMid meet" version="1.2"><defs><clipPath id="e48eb3d9d0"><path d="M 13 3.890625 L 23 3.890625 L 23 14 L 13 14 Z M 13 3.890625 "/></clipPath><clipPath id="da5d910fd3"><path d="M 3.386719 13 L 15 13 L 15 24.9375 L 3.386719 24.9375 Z M 3.386719 13 "/></clipPath><clipPath id="360fae7617"><path d="M 15 15 L 26.613281 15 L 26.613281 23 L 15 23 Z M 15 15 "/></clipPath><clipPath id="af50984578"><path d="M 13 3.890625 L 23 3.890625 L 23 14 L 13 14 Z M 13 3.890625 "/></clipPath><clipPath id="a70e55661f"><path d="M 3.386719 13 L 15 13 L 15 24.9375 L 3.386719 24.9375 Z M 3.386719 13 "/></clipPath><clipPath id="fc61ee5e9d"><path d="M 15 15 L 26.613281 15 L 26.613281 23 L 15 23 Z M 15 15 "/></clipPath></defs><g id="675bc81091"><g clip-rule="nonzero" clip-path="url(#e48eb3d9d0)"><path style=" stroke:none;fill-rule:nonzero;fill:#5a2675;fill-opacity:1;" d="M 17.414062 3.898438 C 16.746094 3.945312 16.128906 4.128906 15.566406 4.453125 C 15.4375 4.523438 15.167969 4.707031 15.054688 4.792969 C 14.519531 5.214844 14.082031 5.746094 13.769531 6.363281 C 13.570312 6.757812 13.4375 7.140625 13.351562 7.570312 C 13.28125 7.914062 13.25 8.222656 13.25 8.570312 C 13.25 8.8125 13.257812 8.953125 13.289062 9.199219 C 13.421875 10.257812 13.898438 11.238281 14.636719 11.976562 C 15.335938 12.671875 16.222656 13.113281 17.15625 13.226562 C 17.21875 13.234375 17.285156 13.242188 17.304688 13.242188 C 17.375 13.253906 17.921875 13.253906 18.042969 13.242188 C 18.484375 13.199219 18.875 13.105469 19.265625 12.949219 C 19.859375 12.710938 20.441406 12.300781 20.867188 11.828125 C 21.386719 11.246094 21.730469 10.617188 21.933594 9.878906 C 22.097656 9.28125 22.144531 8.648438 22.078125 8.011719 C 21.996094 7.28125 21.742188 6.5625 21.34375 5.945312 C 20.789062 5.082031 19.976562 4.4375 19.046875 4.117188 C 18.699219 4 18.339844 3.925781 17.96875 3.898438 C 17.855469 3.890625 17.511719 3.890625 17.414062 3.898438 Z M 17.414062 3.898438 "/></g><g clip-rule="nonzero" clip-path="url(#da5d910fd3)"><path style=" stroke:none;fill-rule:nonzero;fill:#5a2675;fill-opacity:1;" d="M 9.875 13.246094 L 9.808594 13.289062 L 8.738281 13.292969 L 7.671875 13.292969 L 7.628906 13.316406 C 7.574219 13.339844 7.515625 13.398438 7.492188 13.453125 C 7.480469 13.484375 7.460938 13.605469 7.417969 13.914062 C 7.386719 14.144531 7.339844 14.503906 7.3125 14.707031 C 7.273438 14.988281 7.257812 15.085938 7.25 15.089844 C 7.242188 15.09375 7.164062 15.132812 7.074219 15.175781 C 6.835938 15.289062 6.578125 15.445312 6.386719 15.585938 C 6.332031 15.625 6.316406 15.632812 6.300781 15.625 C 6.292969 15.621094 5.980469 15.476562 5.613281 15.308594 L 4.941406 15 L 4.859375 15.003906 C 4.816406 15.007812 4.761719 15.015625 4.734375 15.023438 C 4.65625 15.050781 4.632812 15.082031 4.519531 15.28125 C 4.378906 15.53125 4.039062 16.121094 3.722656 16.679688 C 3.574219 16.9375 3.445312 17.167969 3.433594 17.195312 C 3.390625 17.285156 3.402344 17.398438 3.457031 17.488281 C 3.472656 17.515625 3.597656 17.628906 3.863281 17.847656 C 4.074219 18.023438 4.335938 18.242188 4.449219 18.335938 L 4.648438 18.503906 L 4.648438 19.097656 L 4.652344 19.691406 L 4.589844 19.742188 C 3.835938 20.371094 3.480469 20.671875 3.460938 20.695312 C 3.410156 20.761719 3.390625 20.867188 3.417969 20.953125 C 3.425781 20.988281 3.785156 21.621094 4.4375 22.769531 C 4.472656 22.832031 4.527344 22.925781 4.554688 22.976562 C 4.648438 23.144531 4.699219 23.179688 4.875 23.191406 L 4.949219 23.199219 L 5.632812 22.898438 C 6.007812 22.734375 6.316406 22.601562 6.320312 22.601562 C 6.324219 22.601562 6.351562 22.621094 6.382812 22.644531 C 6.5625 22.777344 6.878906 22.96875 7.105469 23.085938 C 7.183594 23.121094 7.246094 23.15625 7.246094 23.15625 C 7.25 23.160156 7.316406 23.648438 7.421875 24.433594 C 7.464844 24.757812 7.472656 24.785156 7.53125 24.855469 C 7.550781 24.875 7.585938 24.902344 7.613281 24.914062 L 7.664062 24.9375 L 10.015625 24.9375 L 10.0625 24.914062 C 10.089844 24.902344 10.128906 24.875 10.144531 24.855469 C 10.199219 24.792969 10.214844 24.746094 10.242188 24.566406 C 10.253906 24.476562 10.273438 24.328125 10.285156 24.242188 C 10.296875 24.152344 10.320312 23.980469 10.335938 23.851562 C 10.382812 23.5 10.429688 23.15625 10.429688 23.15625 C 10.433594 23.15625 10.46875 23.136719 10.515625 23.117188 C 10.746094 23.015625 11.074219 22.820312 11.285156 22.664062 C 11.320312 22.636719 11.355469 22.609375 11.363281 22.605469 C 11.367188 22.605469 11.472656 22.644531 11.621094 22.707031 C 11.753906 22.765625 12.066406 22.898438 12.308594 23.003906 L 12.753906 23.199219 L 12.820312 23.191406 C 12.933594 23.183594 13 23.160156 13.042969 23.109375 C 13.054688 23.097656 13.101562 23.019531 13.148438 22.933594 C 13.25 22.757812 13.460938 22.378906 14.035156 21.367188 C 14.152344 21.160156 14.253906 20.976562 14.261719 20.957031 C 14.269531 20.933594 14.273438 20.898438 14.269531 20.851562 C 14.265625 20.769531 14.242188 20.710938 14.1875 20.660156 C 14.15625 20.632812 13.636719 20.195312 13.210938 19.847656 C 13.023438 19.691406 13.023438 19.6875 13.027344 19.660156 C 13.0625 19.378906 13.0625 18.742188 13.027344 18.503906 L 13.019531 18.476562 L 13.613281 17.980469 C 13.964844 17.6875 14.214844 17.472656 14.226562 17.453125 C 14.238281 17.433594 14.253906 17.40625 14.261719 17.386719 C 14.277344 17.339844 14.277344 17.234375 14.261719 17.1875 C 14.253906 17.167969 14.160156 17 14.050781 16.808594 C 13.84375 16.445312 13.488281 15.824219 13.234375 15.375 C 13.070312 15.085938 13.035156 15.039062 12.957031 15 C 12.902344 14.972656 12.820312 14.957031 12.777344 14.960938 C 12.746094 14.96875 12.484375 15.074219 11.609375 15.445312 C 11.441406 15.515625 11.367188 15.542969 11.359375 15.539062 C 11.121094 15.371094 10.867188 15.21875 10.617188 15.09375 C 10.515625 15.042969 10.433594 15 10.433594 15 C 10.429688 14.996094 10.414062 14.894531 10.398438 14.769531 C 10.367188 14.550781 10.359375 14.472656 10.3125 14.117188 C 10.25 13.652344 10.226562 13.492188 10.21875 13.453125 C 10.195312 13.332031 10.097656 13.234375 9.980469 13.210938 C 9.941406 13.207031 9.9375 13.207031 9.875 13.246094 Z M 8.851562 17.375 C 9.03125 17.386719 9.230469 17.445312 9.414062 17.539062 C 9.613281 17.640625 9.769531 17.765625 9.929688 17.945312 C 10.097656 18.136719 10.234375 18.40625 10.300781 18.671875 C 10.378906 18.972656 10.375 19.320312 10.292969 19.609375 C 10.152344 20.101562 9.835938 20.496094 9.410156 20.710938 C 9.078125 20.875 8.710938 20.921875 8.351562 20.839844 C 7.734375 20.703125 7.234375 20.195312 7.082031 19.546875 C 7.046875 19.394531 7.035156 19.300781 7.035156 19.125 C 7.035156 18.71875 7.148438 18.367188 7.378906 18.050781 C 7.539062 17.828125 7.75 17.652344 7.996094 17.53125 C 8.269531 17.394531 8.527344 17.347656 8.851562 17.375 Z M 8.851562 17.375 "/></g><g clip-rule="nonzero" clip-path="url(#360fae7617)"><path style=" stroke:none;fill-rule:nonzero;fill:#5a2675;fill-opacity:1;" d="M 16.734375 15.636719 C 16.734375 15.636719 16.65625 15.640625 16.566406 15.644531 C 16.480469 15.644531 16.378906 15.652344 16.34375 15.652344 C 16.3125 15.65625 16.222656 15.660156 16.148438 15.667969 C 16.074219 15.671875 16 15.675781 15.984375 15.679688 C 15.96875 15.679688 15.898438 15.6875 15.828125 15.691406 C 15.761719 15.699219 15.703125 15.707031 15.699219 15.710938 C 15.699219 15.714844 15.714844 15.757812 15.738281 15.8125 C 15.808594 15.972656 15.925781 16.28125 15.992188 16.480469 C 16.308594 17.433594 16.453125 18.417969 16.421875 19.417969 C 16.398438 20.160156 16.289062 20.832031 16.085938 21.539062 C 15.996094 21.847656 15.847656 22.257812 15.730469 22.523438 C 15.710938 22.566406 15.695312 22.605469 15.695312 22.605469 C 15.695312 22.609375 18.101562 22.609375 21.046875 22.609375 L 26.398438 22.609375 L 26.394531 21.3125 C 26.390625 20.015625 26.390625 20.011719 26.371094 19.898438 C 26.316406 19.582031 26.214844 19.28125 26.0625 19 C 25.21875 17.433594 22.867188 16.21875 19.871094 15.792969 C 19.574219 15.75 19.398438 15.730469 19.019531 15.695312 C 18.992188 15.695312 18.949219 15.691406 18.929688 15.6875 C 18.90625 15.6875 18.851562 15.683594 18.804688 15.679688 C 18.761719 15.675781 18.707031 15.671875 18.683594 15.671875 C 18.660156 15.667969 18.601562 15.664062 18.546875 15.660156 C 18.496094 15.660156 18.421875 15.65625 18.382812 15.652344 C 18.179688 15.640625 17.71875 15.632812 17.257812 15.632812 C 16.972656 15.632812 16.738281 15.632812 16.734375 15.636719 Z M 16.734375 15.636719 "/></g><g clip-rule="nonzero" clip-path="url(#af50984578)"><path style=" stroke:none;fill-rule:nonzero;fill:#5a2675;fill-opacity:1;" d="M 17.414062 3.898438 C 16.746094 3.945312 16.128906 4.128906 15.566406 4.453125 C 15.4375 4.523438 15.167969 4.707031 15.054688 4.792969 C 14.519531 5.214844 14.082031 5.746094 13.769531 6.363281 C 13.570312 6.757812 13.4375 7.140625 13.351562 7.570312 C 13.28125 7.914062 13.25 8.222656 13.25 8.570312 C 13.25 8.8125 13.257812 8.953125 13.289062 9.199219 C 13.421875 10.257812 13.898438 11.238281 14.636719 11.976562 C 15.335938 12.671875 16.222656 13.113281 17.15625 13.226562 C 17.21875 13.234375 17.285156 13.242188 17.304688 13.242188 C 17.375 13.253906 17.921875 13.253906 18.042969 13.242188 C 18.484375 13.199219 18.875 13.105469 19.265625 12.949219 C 19.859375 12.710938 20.441406 12.300781 20.867188 11.828125 C 21.386719 11.246094 21.730469 10.617188 21.933594 9.878906 C 22.097656 9.28125 22.144531 8.648438 22.078125 8.011719 C 21.996094 7.28125 21.742188 6.5625 21.34375 5.945312 C 20.789062 5.082031 19.976562 4.4375 19.046875 4.117188 C 18.699219 4 18.339844 3.925781 17.96875 3.898438 C 17.855469 3.890625 17.511719 3.890625 17.414062 3.898438 Z M 17.414062 3.898438 "/></g><g clip-rule="nonzero" clip-path="url(#a70e55661f)"><path style=" stroke:none;fill-rule:nonzero;fill:#5a2675;fill-opacity:1;" d="M 9.875 13.246094 L 9.808594 13.289062 L 8.738281 13.292969 L 7.671875 13.292969 L 7.628906 13.316406 C 7.574219 13.339844 7.515625 13.398438 7.492188 13.453125 C 7.480469 13.484375 7.460938 13.605469 7.417969 13.914062 C 7.386719 14.144531 7.339844 14.503906 7.3125 14.707031 C 7.273438 14.988281 7.257812 15.085938 7.25 15.089844 C 7.242188 15.09375 7.164062 15.132812 7.074219 15.175781 C 6.835938 15.289062 6.578125 15.445312 6.386719 15.585938 C 6.332031 15.625 6.316406 15.632812 6.300781 15.625 C 6.292969 15.621094 5.980469 15.476562 5.613281 15.308594 L 4.941406 15 L 4.859375 15.003906 C 4.816406 15.007812 4.761719 15.015625 4.734375 15.023438 C 4.65625 15.050781 4.632812 15.082031 4.519531 15.28125 C 4.378906 15.53125 4.039062 16.121094 3.722656 16.679688 C 3.574219 16.9375 3.445312 17.167969 3.433594 17.195312 C 3.390625 17.285156 3.402344 17.398438 3.457031 17.488281 C 3.472656 17.515625 3.597656 17.628906 3.863281 17.847656 C 4.074219 18.023438 4.335938 18.242188 4.449219 18.335938 L 4.648438 18.503906 L 4.648438 19.097656 L 4.652344 19.691406 L 4.589844 19.742188 C 3.835938 20.371094 3.480469 20.671875 3.460938 20.695312 C 3.410156 20.761719 3.390625 20.867188 3.417969 20.953125 C 3.425781 20.988281 3.785156 21.621094 4.4375 22.769531 C 4.472656 22.832031 4.527344 22.925781 4.554688 22.976562 C 4.648438 23.144531 4.699219 23.179688 4.875 23.191406 L 4.949219 23.199219 L 5.632812 22.898438 C 6.007812 22.734375 6.316406 22.601562 6.320312 22.601562 C 6.324219 22.601562 6.351562 22.621094 6.382812 22.644531 C 6.5625 22.777344 6.878906 22.96875 7.105469 23.085938 C 7.183594 23.121094 7.246094 23.15625 7.246094 23.15625 C 7.25 23.160156 7.316406 23.648438 7.421875 24.433594 C 7.464844 24.757812 7.472656 24.785156 7.53125 24.855469 C 7.550781 24.875 7.585938 24.902344 7.613281 24.914062 L 7.664062 24.9375 L 10.015625 24.9375 L 10.0625 24.914062 C 10.089844 24.902344 10.128906 24.875 10.144531 24.855469 C 10.199219 24.792969 10.214844 24.746094 10.242188 24.566406 C 10.253906 24.476562 10.273438 24.328125 10.285156 24.242188 C 10.296875 24.152344 10.320312 23.980469 10.335938 23.851562 C 10.382812 23.5 10.429688 23.15625 10.429688 23.15625 C 10.433594 23.15625 10.46875 23.136719 10.515625 23.117188 C 10.746094 23.015625 11.074219 22.820312 11.285156 22.664062 C 11.320312 22.636719 11.355469 22.609375 11.363281 22.605469 C 11.367188 22.605469 11.472656 22.644531 11.621094 22.707031 C 11.753906 22.765625 12.066406 22.898438 12.308594 23.003906 L 12.753906 23.199219 L 12.820312 23.191406 C 12.933594 23.183594 13 23.160156 13.042969 23.109375 C 13.054688 23.097656 13.101562 23.019531 13.148438 22.933594 C 13.25 22.757812 13.460938 22.378906 14.035156 21.367188 C 14.152344 21.160156 14.253906 20.976562 14.261719 20.957031 C 14.269531 20.933594 14.273438 20.898438 14.269531 20.851562 C 14.265625 20.769531 14.242188 20.710938 14.1875 20.660156 C 14.15625 20.632812 13.636719 20.195312 13.210938 19.847656 C 13.023438 19.691406 13.023438 19.6875 13.027344 19.660156 C 13.0625 19.378906 13.0625 18.742188 13.027344 18.503906 L 13.019531 18.476562 L 13.613281 17.980469 C 13.964844 17.6875 14.214844 17.472656 14.226562 17.453125 C 14.238281 17.433594 14.253906 17.40625 14.261719 17.386719 C 14.277344 17.339844 14.277344 17.234375 14.261719 17.1875 C 14.253906 17.167969 14.160156 17 14.050781 16.808594 C 13.84375 16.445312 13.488281 15.824219 13.234375 15.375 C 13.070312 15.085938 13.035156 15.039062 12.957031 15 C 12.902344 14.972656 12.820312 14.957031 12.777344 14.960938 C 12.746094 14.96875 12.484375 15.074219 11.609375 15.445312 C 11.441406 15.515625 11.367188 15.542969 11.359375 15.539062 C 11.121094 15.371094 10.867188 15.21875 10.617188 15.09375 C 10.515625 15.042969 10.433594 15 10.433594 15 C 10.429688 14.996094 10.414062 14.894531 10.398438 14.769531 C 10.367188 14.550781 10.359375 14.472656 10.3125 14.117188 C 10.25 13.652344 10.226562 13.492188 10.21875 13.453125 C 10.195312 13.332031 10.097656 13.234375 9.980469 13.210938 C 9.941406 13.207031 9.9375 13.207031 9.875 13.246094 Z M 8.851562 17.375 C 9.03125 17.386719 9.230469 17.445312 9.414062 17.539062 C 9.613281 17.640625 9.769531 17.765625 9.929688 17.945312 C 10.097656 18.136719 10.234375 18.40625 10.300781 18.671875 C 10.378906 18.972656 10.375 19.320312 10.292969 19.609375 C 10.152344 20.101562 9.835938 20.496094 9.410156 20.710938 C 9.078125 20.875 8.710938 20.921875 8.351562 20.839844 C 7.734375 20.703125 7.234375 20.195312 7.082031 19.546875 C 7.046875 19.394531 7.035156 19.300781 7.035156 19.125 C 7.035156 18.71875 7.148438 18.367188 7.378906 18.050781 C 7.539062 17.828125 7.75 17.652344 7.996094 17.53125 C 8.269531 17.394531 8.527344 17.347656 8.851562 17.375 Z M 8.851562 17.375 "/></g><g clip-rule="nonzero" clip-path="url(#fc61ee5e9d)"><path style=" stroke:none;fill-rule:nonzero;fill:#5a2675;fill-opacity:1;" d="M 16.734375 15.636719 C 16.734375 15.636719 16.65625 15.640625 16.566406 15.644531 C 16.480469 15.644531 16.378906 15.652344 16.34375 15.652344 C 16.3125 15.65625 16.222656 15.660156 16.148438 15.667969 C 16.074219 15.671875 16 15.675781 15.984375 15.679688 C 15.96875 15.679688 15.898438 15.6875 15.828125 15.691406 C 15.761719 15.699219 15.703125 15.707031 15.699219 15.710938 C 15.699219 15.714844 15.714844 15.757812 15.738281 15.8125 C 15.808594 15.972656 15.925781 16.28125 15.992188 16.480469 C 16.308594 17.433594 16.453125 18.417969 16.421875 19.417969 C 16.398438 20.160156 16.289062 20.832031 16.085938 21.539062 C 15.996094 21.847656 15.847656 22.257812 15.730469 22.523438 C 15.710938 22.566406 15.695312 22.605469 15.695312 22.605469 C 15.695312 22.609375 18.101562 22.609375 21.046875 22.609375 L 26.398438 22.609375 L 26.394531 21.3125 C 26.390625 20.015625 26.390625 20.011719 26.371094 19.898438 C 26.316406 19.582031 26.214844 19.28125 26.0625 19 C 25.21875 17.433594 22.867188 16.21875 19.871094 15.792969 C 19.574219 15.75 19.398438 15.730469 19.019531 15.695312 C 18.992188 15.695312 18.949219 15.691406 18.929688 15.6875 C 18.90625 15.6875 18.851562 15.683594 18.804688 15.679688 C 18.761719 15.675781 18.707031 15.671875 18.683594 15.671875 C 18.660156 15.667969 18.601562 15.664062 18.546875 15.660156 C 18.496094 15.660156 18.421875 15.65625 18.382812 15.652344 C 18.179688 15.640625 17.71875 15.632812 17.257812 15.632812 C 16.972656 15.632812 16.738281 15.632812 16.734375 15.636719 Z M 16.734375 15.636719 "/></g></g></svg>