<svg xmlns="http://www.w3.org/2000/svg" xmlns:xlink="http://www.w3.org/1999/xlink" width="40" zoomAndPan="magnify" viewBox="0 0 30 30.000001" height="40" preserveAspectRatio="xMidYMid meet" version="1.2"><defs><clipPath id="1797bf0e16"><path d="M 3.386719 13 L 26.613281 13 L 26.613281 16 L 3.386719 16 Z M 3.386719 13 "/></clipPath><clipPath id="a5818f4b53"><path d="M 3.386719 5.007812 L 14 5.007812 L 14 23.878906 L 3.386719 23.878906 Z M 3.386719 5.007812 "/></clipPath><clipPath id="657639924e"><path d="M 3.386719 13 L 26.613281 13 L 26.613281 16 L 3.386719 16 Z M 3.386719 13 "/></clipPath><clipPath id="1ef399dfba"><path d="M 3.386719 5.007812 L 14 5.007812 L 14 23.878906 L 3.386719 23.878906 Z M 3.386719 5.007812 "/></clipPath></defs><g id="12f5911045"><g clip-rule="nonzero" clip-path="url(#1797bf0e16)"><path style=" stroke:none;fill-rule:nonzero;fill:#000000;fill-opacity:1;" d="M 25.746094 15.246094 L 4.148438 15.246094 C 3.921875 15.246094 3.730469 15.167969 3.574219 15.011719 C 3.414062 14.855469 3.335938 14.664062 3.335938 14.445312 C 3.335938 14.222656 3.414062 14.03125 3.574219 13.875 C 3.730469 13.71875 3.921875 13.640625 4.148438 13.640625 L 25.746094 13.640625 C 25.96875 13.640625 26.160156 13.71875 26.316406 13.875 C 26.476562 14.03125 26.554688 14.222656 26.554688 14.445312 C 26.554688 14.664062 26.476562 14.855469 26.316406 15.011719 C 26.160156 15.167969 25.96875 15.246094 25.746094 15.246094 Z M 25.746094 15.246094 "/></g><g clip-rule="nonzero" clip-path="url(#a5818f4b53)"><path style=" stroke:none;fill-rule:nonzero;fill:#000000;fill-opacity:1;" d="M 12.785156 23.824219 C 12.5625 23.824219 12.371094 23.746094 12.214844 23.589844 L 3.574219 15.011719 C 3.414062 14.855469 3.335938 14.664062 3.335938 14.445312 C 3.335938 14.222656 3.414062 14.03125 3.574219 13.875 L 12.214844 5.296875 C 12.371094 5.132812 12.5625 5.046875 12.792969 5.042969 C 13.019531 5.039062 13.21875 5.117188 13.378906 5.277344 C 13.542969 5.4375 13.621094 5.632812 13.617188 5.859375 C 13.613281 6.085938 13.527344 6.277344 13.359375 6.433594 L 5.292969 14.445312 L 13.359375 22.453125 C 13.613281 22.707031 13.671875 23 13.535156 23.328125 C 13.394531 23.660156 13.148438 23.824219 12.785156 23.824219 Z M 12.785156 23.824219 "/></g><g clip-rule="nonzero" clip-path="url(#657639924e)"><path style=" stroke:none;fill-rule:nonzero;fill:#5a2675;fill-opacity:1;" d="M 25.585938 15.246094 L 4.140625 15.246094 C 3.917969 15.246094 3.730469 15.167969 3.574219 15.011719 C 3.414062 14.855469 3.335938 14.664062 3.335938 14.445312 C 3.335938 14.222656 3.414062 14.03125 3.574219 13.875 C 3.730469 13.71875 3.917969 13.640625 4.140625 13.640625 L 25.585938 13.640625 C 25.808594 13.640625 25.996094 13.71875 26.152344 13.875 C 26.3125 14.03125 26.390625 14.222656 26.390625 14.445312 C 26.390625 14.664062 26.3125 14.855469 26.152344 15.011719 C 25.996094 15.167969 25.808594 15.246094 25.585938 15.246094 Z M 25.585938 15.246094 "/></g><g clip-rule="nonzero" clip-path="url(#1ef399dfba)"><path style=" stroke:none;fill-rule:nonzero;fill:#5a2675;fill-opacity:1;" d="M 12.71875 23.824219 C 12.496094 23.824219 12.308594 23.746094 12.152344 23.589844 L 3.574219 15.011719 C 3.414062 14.855469 3.335938 14.664062 3.335938 14.445312 C 3.335938 14.222656 3.414062 14.03125 3.574219 13.875 L 12.152344 5.296875 C 12.304688 5.132812 12.496094 5.046875 12.726562 5.042969 C 12.953125 5.039062 13.148438 5.117188 13.308594 5.277344 C 13.46875 5.4375 13.546875 5.632812 13.542969 5.859375 C 13.539062 6.085938 13.453125 6.277344 13.285156 6.433594 L 5.277344 14.445312 L 13.285156 22.453125 C 13.539062 22.707031 13.597656 23 13.460938 23.328125 C 13.324219 23.660156 13.078125 23.824219 12.71875 23.824219 Z M 12.71875 23.824219 "/></g></g></svg>