<svg xmlns="http://www.w3.org/2000/svg" xmlns:xlink="http://www.w3.org/1999/xlink" width="40" zoomAndPan="magnify" viewBox="0 0 30 30.000001" height="40" preserveAspectRatio="xMidYMid meet" version="1.2"><defs><clipPath id="8cb48afc81"><path d="M 6.261719 2.902344 L 23.679688 2.902344 L 23.679688 26 L 6.261719 26 Z M 6.261719 2.902344 "/></clipPath></defs><g id="f7bb3e966d"><g clip-rule="nonzero" clip-path="url(#8cb48afc81)"><path style=" stroke:none;fill-rule:nonzero;fill:#000000;fill-opacity:1;" d="M 9.484375 2.886719 C 7.714844 2.886719 6.265625 4.34375 6.265625 6.117188 L 6.265625 23.476562 C 6.265625 25.105469 8.167969 26.117188 9.511719 25.207031 L 14.972656 21.503906 L 20.429688 25.207031 C 21.773438 26.117188 23.675781 25.105469 23.675781 23.476562 L 23.675781 6.117188 C 23.675781 4.34375 22.226562 2.886719 20.457031 2.886719 Z M 9.484375 4.472656 L 20.457031 4.472656 C 21.371094 4.472656 22.09375 5.199219 22.09375 6.117188 L 22.09375 23.476562 C 22.09375 23.921875 21.683594 24.140625 21.316406 23.890625 L 15.414062 19.886719 C 15.117188 19.6875 14.824219 19.6875 14.527344 19.886719 L 8.625 23.890625 C 8.257812 24.140625 7.847656 23.921875 7.847656 23.476562 L 7.847656 6.117188 C 7.847656 5.199219 8.570312 4.472656 9.484375 4.472656 Z M 9.484375 4.472656 "/><path style=" stroke:none;fill-rule:nonzero;fill:#5a2675;fill-opacity:1;" d="M 9.484375 2.886719 C 7.714844 2.886719 6.265625 4.335938 6.265625 6.105469 L 6.265625 23.410156 C 6.265625 25.035156 8.167969 26.042969 9.511719 25.132812 L 14.972656 21.441406 L 20.429688 25.132812 C 21.773438 26.042969 23.675781 25.035156 23.675781 23.410156 L 23.675781 6.105469 C 23.675781 4.335938 22.226562 2.886719 20.457031 2.886719 Z M 9.484375 4.46875 L 20.457031 4.46875 C 21.371094 4.46875 22.09375 5.191406 22.09375 6.105469 L 22.09375 23.410156 C 22.09375 23.855469 21.683594 24.070312 21.316406 23.820312 L 15.414062 19.832031 C 15.117188 19.632812 14.824219 19.632812 14.527344 19.832031 L 8.625 23.820312 C 8.257812 24.070312 7.847656 23.855469 7.847656 23.410156 L 7.847656 6.105469 C 7.847656 5.191406 8.570312 4.46875 9.484375 4.46875 Z M 9.484375 4.46875 "/></g></g></svg>