<svg xmlns="http://www.w3.org/2000/svg" xmlns:xlink="http://www.w3.org/1999/xlink" width="500" zoomAndPan="magnify" viewBox="0 0 375 374.999991" height="500" preserveAspectRatio="xMidYMid meet" version="1.2"><defs><clipPath id="bdb218f337"><path d="M 200 210 L 353.835938 210 L 353.835938 364 L 200 364 Z M 200 210 "/></clipPath><clipPath id="fc71ee47fa"><path d="M 55.335938 169 L 241 169 L 241 303 L 55.335938 303 Z M 55.335938 169 "/></clipPath></defs><g id="d283085e22"><g clip-rule="nonzero" clip-path="url(#bdb218f337)"><path style=" stroke:none;fill-rule:nonzero;fill:#ffffff;fill-opacity:1;" d="M 277.257812 210.574219 C 265.796875 210.574219 254.273438 213.15625 244.070312 218.128906 C 244.007812 218.128906 244.007812 218.191406 243.945312 218.191406 C 217.242188 231.101562 200.679688 257.550781 200.679688 287.148438 L 200.679688 287.464844 C 200.746094 287.78125 200.746094 288.15625 200.746094 288.472656 L 200.746094 289.101562 C 201.816406 330.289062 236.011719 363.664062 277.257812 363.664062 C 319.453125 363.664062 353.773438 329.34375 353.773438 287.148438 C 353.773438 244.894531 319.453125 210.574219 277.257812 210.574219 Z M 316.617188 277.640625 L 278.519531 315.742188 C 275.875 318.386719 272.410156 319.644531 268.945312 319.644531 C 265.417969 319.644531 261.957031 318.386719 259.3125 315.742188 L 237.960938 294.328125 C 232.671875 289.039062 232.671875 280.476562 237.960938 275.121094 C 243.253906 269.832031 251.816406 269.832031 257.105469 275.121094 L 268.945312 286.960938 L 297.410156 258.433594 C 302.699219 253.144531 311.328125 253.144531 316.617188 258.433594 C 321.90625 263.785156 321.90625 272.351562 316.617188 277.640625 Z M 316.617188 277.640625 "/></g><path style=" stroke:none;fill-rule:nonzero;fill:#ffffff;fill-opacity:1;" d="M 173.035156 147.472656 C 210.695312 147.472656 241.300781 116.867188 241.300781 79.269531 C 241.363281 41.613281 210.695312 11.007812 173.035156 11.007812 C 135.441406 11.007812 104.835938 41.613281 104.835938 79.207031 C 104.835938 116.867188 135.503906 147.472656 173.035156 147.472656 Z M 173.035156 147.472656 "/><g clip-rule="nonzero" clip-path="url(#fc71ee47fa)"><path style=" stroke:none;fill-rule:nonzero;fill:#ffffff;fill-opacity:1;" d="M 173.601562 287.148438 C 173.601562 283.058594 173.792969 279.089844 174.359375 275.121094 C 177.382812 247.476562 191.363281 222.726562 212.960938 205.722656 C 218.882812 201.0625 225.367188 196.96875 232.359375 193.632812 C 234.875 192.4375 237.457031 191.300781 240.105469 190.296875 C 220.582031 176.753906 197.09375 169.324219 173.160156 169.324219 C 108.234375 169.324219 55.398438 222.160156 55.398438 287.085938 L 55.398438 288.660156 C 55.398438 296.09375 61.445312 302.199219 68.9375 302.199219 L 174.734375 302.199219 C 174.105469 297.980469 173.726562 293.699219 173.664062 289.355469 C 173.601562 288.722656 173.601562 287.96875 173.601562 287.148438 Z M 173.601562 287.148438 "/></g></g></svg>