<svg xmlns="http://www.w3.org/2000/svg" xmlns:xlink="http://www.w3.org/1999/xlink" width="40" zoomAndPan="magnify" viewBox="0 0 30 30.000001" height="40" preserveAspectRatio="xMidYMid meet" version="1.2"><defs><clipPath id="5a632e5658"><path d="M 4.324219 2.902344 L 25.371094 2.902344 L 25.371094 26.128906 L 4.324219 26.128906 Z M 4.324219 2.902344 "/></clipPath><clipPath id="67aae87ff7"><path d="M 4.324219 2.902344 L 25.371094 2.902344 L 25.371094 26 L 4.324219 26 Z M 4.324219 2.902344 "/></clipPath></defs><g id="a22478957a"><g clip-rule="nonzero" clip-path="url(#5a632e5658)"><path style=" stroke:none;fill-rule:nonzero;fill:#000000;fill-opacity:1;" d="M 25.371094 24.027344 L 25.371094 23.792969 C 25.371094 22.355469 25.09375 20.957031 24.542969 19.640625 C 24.015625 18.367188 23.253906 17.226562 22.289062 16.246094 C 21.324219 15.269531 20.199219 14.5 18.945312 13.960938 C 18.863281 13.925781 18.777344 13.890625 18.695312 13.859375 C 18.855469 13.726562 19.003906 13.589844 19.152344 13.441406 C 19.710938 12.875 20.148438 12.214844 20.453125 11.480469 C 20.773438 10.71875 20.933594 9.910156 20.933594 9.078125 C 20.933594 8.246094 20.773438 7.4375 20.453125 6.675781 C 20.148438 5.941406 19.710938 5.28125 19.152344 4.714844 C 18.59375 4.148438 17.941406 3.703125 17.21875 3.390625 C 16.464844 3.070312 15.667969 2.90625 14.847656 2.90625 C 14.027344 2.90625 13.230469 3.070312 12.480469 3.390625 C 11.753906 3.703125 11.101562 4.148438 10.542969 4.714844 C 9.984375 5.28125 9.546875 5.941406 9.242188 6.675781 C 8.921875 7.4375 8.761719 8.246094 8.761719 9.078125 C 8.761719 9.910156 8.921875 10.71875 9.242188 11.480469 C 9.546875 12.214844 9.984375 12.875 10.542969 13.441406 C 10.691406 13.589844 10.84375 13.726562 11 13.859375 C 10.917969 13.890625 10.832031 13.925781 10.75 13.960938 C 9.496094 14.5 8.371094 15.269531 7.40625 16.246094 C 6.441406 17.226562 5.679688 18.367188 5.152344 19.640625 C 4.601562 20.957031 4.324219 22.355469 4.324219 23.792969 L 4.324219 24.027344 C 4.324219 25.125 5.152344 26.027344 6.207031 26.125 L 23.628906 26.105469 L 23.636719 26.105469 C 23.820312 26.085938 23.996094 26.03125 24.15625 25.945312 C 24.871094 25.613281 25.371094 24.878906 25.371094 24.027344 Z M 10.363281 11 C 10.109375 10.390625 9.980469 9.746094 9.980469 9.078125 C 9.980469 8.410156 10.109375 7.765625 10.363281 7.15625 C 10.609375 6.570312 10.957031 6.039062 11.40625 5.585938 C 11.851562 5.132812 12.375 4.777344 12.953125 4.53125 C 13.554688 4.273438 14.191406 4.140625 14.847656 4.140625 C 15.503906 4.140625 16.140625 4.273438 16.742188 4.53125 C 17.320312 4.777344 17.84375 5.132812 18.289062 5.585938 C 18.738281 6.039062 19.089844 6.570312 19.332031 7.15625 C 19.585938 7.765625 19.714844 8.410156 19.714844 9.078125 C 19.714844 9.746094 19.585938 10.390625 19.332031 11 C 19.085938 11.585938 18.738281 12.113281 18.289062 12.566406 C 17.84375 13.023438 17.320312 13.378906 16.742188 13.625 C 16.140625 13.882812 15.503906 14.015625 14.847656 14.015625 C 14.191406 14.015625 13.554688 13.882812 12.953125 13.625 C 12.375 13.378906 11.851562 13.023438 11.40625 12.566406 C 10.957031 12.113281 10.609375 11.585938 10.363281 11 Z M 24.152344 24.027344 C 24.152344 24.507812 23.769531 24.898438 23.296875 24.898438 L 6.398438 24.898438 C 5.925781 24.898438 5.542969 24.507812 5.542969 24.027344 L 5.542969 23.792969 C 5.542969 22.519531 5.789062 21.285156 6.273438 20.121094 C 6.742188 18.996094 7.414062 17.988281 8.265625 17.121094 C 9.121094 16.253906 10.117188 15.574219 11.226562 15.097656 C 11.46875 14.992188 11.71875 14.898438 11.972656 14.816406 C 12.058594 14.789062 12.148438 14.757812 12.234375 14.734375 C 12.269531 14.722656 12.300781 14.710938 12.328125 14.695312 C 12.378906 14.71875 12.429688 14.742188 12.476562 14.761719 C 13.230469 15.085938 14.027344 15.25 14.847656 15.25 C 15.667969 15.25 16.464844 15.085938 17.21875 14.761719 C 17.265625 14.742188 17.316406 14.71875 17.367188 14.695312 C 17.394531 14.710938 17.425781 14.722656 17.460938 14.734375 C 17.800781 14.835938 18.140625 14.957031 18.46875 15.097656 C 19.578125 15.574219 20.574219 16.253906 21.429688 17.121094 C 22.28125 17.988281 22.953125 18.996094 23.421875 20.121094 C 23.90625 21.285156 24.152344 22.519531 24.152344 23.792969 Z M 24.152344 24.027344 "/></g><g clip-rule="nonzero" clip-path="url(#67aae87ff7)"><path style=" stroke:none;fill-rule:nonzero;fill:#5a2675;fill-opacity:1;" d="M 25.371094 23.738281 L 25.371094 23.503906 C 25.371094 22.085938 25.09375 20.707031 24.542969 19.410156 C 24.015625 18.15625 23.253906 17.03125 22.289062 16.0625 C 21.324219 15.097656 20.199219 14.339844 18.945312 13.808594 C 18.863281 13.773438 18.777344 13.742188 18.695312 13.707031 C 18.855469 13.578125 19.003906 13.441406 19.152344 13.296875 C 19.710938 12.738281 20.148438 12.085938 20.453125 11.363281 C 20.773438 10.609375 20.933594 9.8125 20.933594 8.992188 C 20.933594 8.171875 20.773438 7.375 20.453125 6.625 C 20.148438 5.898438 19.710938 5.246094 19.152344 4.6875 C 18.59375 4.128906 17.941406 3.691406 17.21875 3.386719 C 16.464844 3.066406 15.667969 2.90625 14.847656 2.90625 C 14.027344 2.90625 13.230469 3.066406 12.480469 3.386719 C 11.753906 3.691406 11.101562 4.128906 10.542969 4.6875 C 9.984375 5.246094 9.546875 5.898438 9.242188 6.625 C 8.921875 7.375 8.761719 8.171875 8.761719 8.992188 C 8.761719 9.8125 8.921875 10.609375 9.242188 11.363281 C 9.546875 12.085938 9.984375 12.738281 10.542969 13.296875 C 10.691406 13.441406 10.84375 13.578125 11 13.707031 C 10.917969 13.742188 10.832031 13.773438 10.75 13.808594 C 9.496094 14.339844 8.371094 15.097656 7.40625 16.0625 C 6.441406 17.03125 5.679688 18.15625 5.152344 19.410156 C 4.601562 20.707031 4.324219 22.085938 4.324219 23.503906 L 4.324219 23.738281 C 4.324219 24.816406 5.152344 25.707031 6.207031 25.804688 L 23.628906 25.785156 L 23.636719 25.785156 C 23.820312 25.765625 23.996094 25.714844 24.15625 25.628906 C 24.871094 25.300781 25.371094 24.574219 25.371094 23.738281 Z M 10.363281 10.886719 C 10.109375 10.289062 9.980469 9.648438 9.980469 8.992188 C 9.980469 8.335938 10.109375 7.699219 10.363281 7.097656 C 10.609375 6.519531 10.957031 5.996094 11.40625 5.550781 C 11.851562 5.101562 12.375 4.753906 12.953125 4.507812 C 13.554688 4.253906 14.191406 4.125 14.847656 4.125 C 15.503906 4.125 16.140625 4.253906 16.742188 4.507812 C 17.320312 4.753906 17.84375 5.101562 18.289062 5.550781 C 18.738281 5.996094 19.089844 6.519531 19.332031 7.097656 C 19.585938 7.699219 19.714844 8.335938 19.714844 8.992188 C 19.714844 9.648438 19.585938 10.289062 19.332031 10.886719 C 19.085938 11.46875 18.738281 11.988281 18.289062 12.433594 C 17.84375 12.882812 17.320312 13.234375 16.742188 13.476562 C 16.140625 13.730469 15.503906 13.859375 14.847656 13.859375 C 14.191406 13.859375 13.554688 13.730469 12.953125 13.476562 C 12.375 13.234375 11.851562 12.882812 11.40625 12.433594 C 10.957031 11.988281 10.609375 11.46875 10.363281 10.886719 Z M 24.152344 23.738281 C 24.152344 24.210938 23.769531 24.597656 23.296875 24.597656 L 6.398438 24.597656 C 5.925781 24.597656 5.542969 24.210938 5.542969 23.738281 L 5.542969 23.503906 C 5.542969 22.25 5.789062 21.03125 6.273438 19.882812 C 6.742188 18.773438 7.414062 17.78125 8.265625 16.925781 C 9.121094 16.070312 10.117188 15.398438 11.226562 14.929688 C 11.46875 14.828125 11.71875 14.734375 11.972656 14.652344 C 12.058594 14.625 12.148438 14.597656 12.234375 14.570312 C 12.269531 14.558594 12.300781 14.546875 12.328125 14.535156 C 12.378906 14.554688 12.429688 14.578125 12.476562 14.597656 C 13.230469 14.917969 14.027344 15.078125 14.847656 15.078125 C 15.667969 15.078125 16.464844 14.917969 17.21875 14.597656 C 17.265625 14.578125 17.316406 14.554688 17.367188 14.535156 C 17.394531 14.546875 17.425781 14.558594 17.460938 14.570312 C 17.800781 14.667969 18.140625 14.789062 18.46875 14.929688 C 19.578125 15.398438 20.574219 16.070312 21.429688 16.925781 C 22.28125 17.78125 22.953125 18.773438 23.421875 19.882812 C 23.90625 21.03125 24.152344 22.25 24.152344 23.503906 Z M 24.152344 23.738281 "/></g></g></svg>