<svg xmlns="http://www.w3.org/2000/svg" xmlns:xlink="http://www.w3.org/1999/xlink" width="40" zoomAndPan="magnify" viewBox="0 0 30 30.000001" height="40" preserveAspectRatio="xMidYMid meet" version="1.2"><defs><clipPath id="999395b3f9"><path d="M 3 2.175781 L 26.9375 2.175781 L 26.9375 26.855469 L 3 26.855469 Z M 3 2.175781 "/></clipPath></defs><g id="64c60010a1"><g clip-rule="nonzero" clip-path="url(#999395b3f9)"><path style=" stroke:none;fill-rule:nonzero;fill:#571779;fill-opacity:1;" d="M 6.304688 10.152344 L 10.683594 10.152344 C 10.667969 10.246094 10.65625 10.339844 10.652344 10.4375 C 10.636719 10.617188 10.699219 10.800781 10.824219 10.933594 C 10.949219 11.066406 11.125 11.144531 11.308594 11.144531 L 18.613281 11.144531 C 18.796875 11.144531 18.972656 11.066406 19.097656 10.933594 C 19.222656 10.800781 19.285156 10.617188 19.269531 10.4375 C 19.265625 10.339844 19.253906 10.246094 19.238281 10.152344 L 23.617188 10.152344 C 23.792969 10.152344 23.960938 10.078125 24.078125 9.953125 C 24.195312 9.824219 24.253906 9.652344 24.242188 9.480469 C 24.128906 7.980469 23.148438 6.722656 21.820312 6.191406 C 22.332031 5.78125 22.664062 5.144531 22.664062 4.4375 C 22.664062 3.191406 21.652344 2.179688 20.410156 2.179688 C 19.164062 2.179688 18.152344 3.191406 18.152344 4.4375 C 18.152344 5.144531 18.484375 5.777344 18.996094 6.191406 C 18.421875 6.421875 17.90625 6.789062 17.492188 7.265625 C 17.175781 7.035156 16.832031 6.847656 16.460938 6.710938 C 17.074219 6.25 17.472656 5.519531 17.472656 4.695312 C 17.472656 3.308594 16.347656 2.179688 14.960938 2.179688 C 13.574219 2.179688 12.449219 3.308594 12.449219 4.695312 C 12.449219 5.519531 12.847656 6.25 13.460938 6.710938 C 13.09375 6.847656 12.746094 7.035156 12.429688 7.265625 C 12.015625 6.789062 11.5 6.421875 10.925781 6.191406 C 11.4375 5.777344 11.769531 5.144531 11.769531 4.4375 C 11.769531 3.191406 10.757812 2.179688 9.515625 2.179688 C 8.269531 2.179688 7.257812 3.191406 7.257812 4.4375 C 7.257812 5.144531 7.589844 5.78125 8.101562 6.191406 C 6.773438 6.722656 5.792969 7.980469 5.679688 9.480469 C 5.667969 9.652344 5.726562 9.824219 5.84375 9.953125 C 5.960938 10.078125 6.128906 10.152344 6.304688 10.152344 Z M 18.921875 4.4375 C 18.921875 3.617188 19.589844 2.949219 20.410156 2.949219 C 21.226562 2.949219 21.894531 3.617188 21.894531 4.4375 C 21.894531 5.253906 21.226562 5.921875 20.410156 5.921875 C 20.40625 5.921875 20.40625 5.921875 20.40625 5.921875 C 19.589844 5.921875 18.921875 5.253906 18.921875 4.4375 Z M 20.40625 6.691406 C 20.40625 6.691406 20.40625 6.691406 20.410156 6.691406 C 21.957031 6.691406 23.269531 7.863281 23.460938 9.382812 L 19.054688 9.382812 C 18.851562 8.773438 18.511719 8.226562 18.074219 7.769531 C 18.65625 7.089844 19.507812 6.691406 20.40625 6.691406 Z M 13.21875 4.695312 C 13.21875 3.730469 14 2.949219 14.960938 2.949219 C 15.921875 2.949219 16.703125 3.730469 16.703125 4.695312 C 16.703125 5.65625 15.921875 6.4375 14.960938 6.4375 C 14 6.4375 13.21875 5.65625 13.21875 4.695312 Z M 18.492188 10.375 L 11.429688 10.375 C 11.621094 8.589844 13.152344 7.207031 14.960938 7.207031 C 16.769531 7.207031 18.300781 8.589844 18.492188 10.375 Z M 8.027344 4.4375 C 8.027344 3.617188 8.695312 2.949219 9.515625 2.949219 C 10.332031 2.949219 11 3.617188 11 4.4375 C 11 5.253906 10.332031 5.921875 9.515625 5.921875 C 9.511719 5.921875 9.511719 5.921875 9.511719 5.921875 C 8.695312 5.921875 8.027344 5.253906 8.027344 4.4375 Z M 9.511719 6.691406 C 9.511719 6.691406 9.511719 6.691406 9.515625 6.691406 C 10.414062 6.691406 11.265625 7.089844 11.847656 7.769531 C 11.414062 8.226562 11.074219 8.773438 10.867188 9.382812 L 6.460938 9.382812 C 6.652344 7.863281 7.964844 6.691406 9.511719 6.691406 Z M 26.894531 20.476562 L 25.242188 12.167969 C 25.199219 11.957031 25.078125 11.773438 24.898438 11.65625 C 24.71875 11.535156 24.5 11.492188 24.289062 11.535156 L 22.160156 11.957031 C 21.949219 12 21.765625 12.121094 21.644531 12.300781 C 21.527344 12.480469 21.484375 12.699219 21.527344 12.910156 L 21.542969 13.003906 C 20.273438 13.421875 18.726562 13.539062 16.804688 11.953125 C 15.921875 11.226562 14.769531 11.203125 13.941406 11.894531 L 13.082031 12.613281 L 8.398438 12.613281 C 8.34375 12.292969 8.097656 12.023438 7.761719 11.957031 L 5.632812 11.535156 C 5.421875 11.492188 5.207031 11.535156 5.027344 11.65625 C 4.84375 11.773438 4.722656 11.957031 4.679688 12.167969 L 3.027344 20.476562 C 2.984375 20.6875 3.027344 20.902344 3.148438 21.082031 C 3.265625 21.261719 3.449219 21.386719 3.660156 21.425781 L 5.789062 21.851562 C 5.84375 21.863281 5.898438 21.867188 5.949219 21.867188 C 6.109375 21.867188 6.261719 21.820312 6.398438 21.730469 C 6.578125 21.609375 6.699219 21.425781 6.742188 21.214844 L 6.746094 21.183594 L 11.785156 26.222656 C 12.097656 26.535156 12.507812 26.691406 12.917969 26.691406 C 13.328125 26.691406 13.738281 26.535156 14.050781 26.222656 C 14.261719 26.011719 14.40625 25.753906 14.472656 25.46875 L 15.164062 26.160156 C 15.789062 26.78125 16.804688 26.78125 17.429688 26.15625 C 17.644531 25.941406 17.785156 25.679688 17.851562 25.402344 C 18.152344 25.6875 18.539062 25.84375 18.957031 25.84375 C 19.386719 25.84375 19.785156 25.675781 20.089844 25.375 C 20.433594 25.03125 20.585938 24.570312 20.550781 24.117188 C 20.59375 24.121094 20.636719 24.121094 20.675781 24.121094 C 21.105469 24.121094 21.507812 23.957031 21.808594 23.65625 C 22.230469 23.234375 22.375 22.605469 22.203125 22.046875 L 23.15625 21.09375 L 23.179688 21.214844 C 23.222656 21.425781 23.34375 21.609375 23.523438 21.730469 C 23.660156 21.820312 23.8125 21.867188 23.972656 21.867188 C 24.023438 21.867188 24.078125 21.863281 24.132812 21.851562 L 26.261719 21.425781 C 26.472656 21.386719 26.65625 21.261719 26.773438 21.082031 C 26.894531 20.902344 26.9375 20.6875 26.894531 20.476562 Z M 5.96875 21.089844 C 5.964844 21.09375 5.953125 21.097656 5.941406 21.097656 L 3.8125 20.671875 C 3.796875 20.671875 3.789062 20.664062 3.785156 20.65625 C 3.78125 20.648438 3.777344 20.640625 3.78125 20.625 L 5.433594 12.320312 C 5.4375 12.304688 5.445312 12.296875 5.453125 12.292969 C 5.457031 12.289062 5.464844 12.285156 5.472656 12.285156 C 5.476562 12.285156 5.480469 12.289062 5.480469 12.289062 L 7.613281 12.710938 C 7.632812 12.714844 7.644531 12.738281 7.640625 12.757812 L 5.988281 21.066406 C 5.984375 21.078125 5.976562 21.085938 5.96875 21.089844 Z M 21.265625 23.109375 C 21.109375 23.265625 20.898438 23.355469 20.675781 23.355469 C 20.453125 23.355469 20.246094 23.265625 20.089844 23.109375 L 16.464844 19.488281 C 16.316406 19.335938 16.070312 19.335938 15.921875 19.488281 C 15.769531 19.636719 15.769531 19.882812 15.921875 20.03125 L 19.542969 23.65625 C 19.871094 23.980469 19.871094 24.507812 19.542969 24.832031 C 19.386719 24.988281 19.179688 25.074219 18.957031 25.074219 C 18.734375 25.074219 18.523438 24.988281 18.367188 24.832031 L 14.539062 21.003906 C 14.390625 20.851562 14.144531 20.851562 13.996094 21.003906 C 13.84375 21.152344 13.84375 21.398438 13.996094 21.546875 L 16.886719 24.4375 C 17.210938 24.761719 17.210938 25.289062 16.886719 25.613281 C 16.5625 25.9375 16.03125 25.9375 15.707031 25.613281 L 12.613281 22.519531 C 12.460938 22.367188 12.21875 22.367188 12.070312 22.519531 C 11.917969 22.667969 11.917969 22.914062 12.070312 23.0625 L 13.507812 24.5 C 13.664062 24.65625 13.75 24.867188 13.75 25.089844 C 13.75 25.3125 13.664062 25.523438 13.507812 25.679688 C 13.183594 26.003906 12.65625 26.003906 12.332031 25.679688 L 6.929688 20.277344 L 8.300781 13.382812 L 12.160156 13.382812 L 11.085938 14.28125 C 10.605469 14.679688 10.402344 15.222656 10.519531 15.773438 L 11.386719 19.742188 C 11.410156 19.84375 11.472656 19.929688 11.558594 19.984375 C 11.648438 20.039062 11.753906 20.058594 11.855469 20.03125 C 12.898438 19.777344 13.597656 19.273438 13.988281 18.496094 C 14.328125 17.824219 14.394531 17.058594 14.464844 16.253906 C 14.472656 16.148438 14.484375 16.046875 14.492188 15.945312 C 14.492188 15.9375 14.496094 15.933594 14.496094 15.929688 C 14.632812 15.882812 15.265625 16.019531 16.21875 16.886719 L 21.433594 22.179688 C 21.574219 22.492188 21.507812 22.867188 21.265625 23.109375 Z M 21.753906 21.410156 L 16.757812 16.339844 C 16.753906 16.335938 16.75 16.332031 16.742188 16.324219 C 15.742188 15.414062 14.796875 14.996094 14.21875 15.214844 C 13.941406 15.316406 13.765625 15.550781 13.730469 15.855469 C 13.726562 15.859375 13.726562 15.863281 13.726562 15.867188 C 13.71875 15.972656 13.707031 16.078125 13.699219 16.183594 C 13.574219 17.613281 13.480469 18.671875 12.050781 19.175781 L 11.273438 15.609375 C 11.195312 15.25 11.429688 14.992188 11.578125 14.871094 L 14.433594 12.484375 C 14.96875 12.035156 15.726562 12.0625 16.3125 12.546875 C 18.484375 14.335938 20.296875 14.203125 21.695312 13.761719 L 22.976562 20.1875 Z M 26.136719 20.65625 C 26.132812 20.664062 26.125 20.671875 26.109375 20.671875 L 23.980469 21.097656 C 23.96875 21.097656 23.957031 21.09375 23.953125 21.089844 C 23.945312 21.085938 23.9375 21.078125 23.933594 21.066406 L 22.28125 12.757812 C 22.277344 12.746094 22.28125 12.734375 22.285156 12.730469 C 22.289062 12.722656 22.296875 12.714844 22.308594 12.710938 L 24.441406 12.289062 C 24.441406 12.289062 24.445312 12.285156 24.449219 12.285156 C 24.457031 12.285156 24.464844 12.289062 24.46875 12.292969 C 24.476562 12.296875 24.484375 12.304688 24.488281 12.320312 L 26.140625 20.625 C 26.144531 20.640625 26.140625 20.648438 26.136719 20.65625 Z M 26.136719 20.65625 "/><path style=" stroke:none;fill-rule:nonzero;fill:#571779;fill-opacity:1;" d="M 6.304688 10.152344 L 10.683594 10.152344 C 10.667969 10.246094 10.65625 10.339844 10.652344 10.4375 C 10.636719 10.617188 10.699219 10.800781 10.824219 10.933594 C 10.949219 11.066406 11.125 11.144531 11.308594 11.144531 L 18.613281 11.144531 C 18.796875 11.144531 18.972656 11.066406 19.097656 10.933594 C 19.222656 10.800781 19.285156 10.617188 19.269531 10.4375 C 19.265625 10.339844 19.253906 10.246094 19.238281 10.152344 L 23.617188 10.152344 C 23.792969 10.152344 23.960938 10.078125 24.078125 9.953125 C 24.195312 9.824219 24.253906 9.652344 24.242188 9.480469 C 24.128906 7.980469 23.148438 6.722656 21.820312 6.191406 C 22.332031 5.78125 22.664062 5.144531 22.664062 4.4375 C 22.664062 3.191406 21.652344 2.179688 20.410156 2.179688 C 19.164062 2.179688 18.152344 3.191406 18.152344 4.4375 C 18.152344 5.144531 18.484375 5.777344 18.996094 6.191406 C 18.421875 6.421875 17.90625 6.789062 17.492188 7.265625 C 17.175781 7.035156 16.832031 6.847656 16.460938 6.710938 C 17.074219 6.25 17.472656 5.519531 17.472656 4.695312 C 17.472656 3.308594 16.347656 2.179688 14.960938 2.179688 C 13.574219 2.179688 12.449219 3.308594 12.449219 4.695312 C 12.449219 5.519531 12.847656 6.25 13.460938 6.710938 C 13.09375 6.847656 12.746094 7.035156 12.429688 7.265625 C 12.015625 6.789062 11.5 6.421875 10.925781 6.191406 C 11.4375 5.777344 11.769531 5.144531 11.769531 4.4375 C 11.769531 3.191406 10.757812 2.179688 9.515625 2.179688 C 8.269531 2.179688 7.257812 3.191406 7.257812 4.4375 C 7.257812 5.144531 7.589844 5.78125 8.101562 6.191406 C 6.773438 6.722656 5.792969 7.980469 5.679688 9.480469 C 5.667969 9.652344 5.726562 9.824219 5.84375 9.953125 C 5.960938 10.078125 6.128906 10.152344 6.304688 10.152344 Z M 18.921875 4.4375 C 18.921875 3.617188 19.589844 2.949219 20.410156 2.949219 C 21.226562 2.949219 21.894531 3.617188 21.894531 4.4375 C 21.894531 5.253906 21.226562 5.921875 20.410156 5.921875 C 20.40625 5.921875 20.40625 5.921875 20.40625 5.921875 C 19.589844 5.921875 18.921875 5.253906 18.921875 4.4375 Z M 20.40625 6.691406 C 20.40625 6.691406 20.40625 6.691406 20.410156 6.691406 C 21.957031 6.691406 23.269531 7.863281 23.460938 9.382812 L 19.054688 9.382812 C 18.851562 8.773438 18.511719 8.226562 18.074219 7.769531 C 18.65625 7.089844 19.507812 6.691406 20.40625 6.691406 Z M 13.21875 4.695312 C 13.21875 3.730469 14 2.949219 14.960938 2.949219 C 15.921875 2.949219 16.703125 3.730469 16.703125 4.695312 C 16.703125 5.65625 15.921875 6.4375 14.960938 6.4375 C 14 6.4375 13.21875 5.65625 13.21875 4.695312 Z M 18.492188 10.375 L 11.429688 10.375 C 11.621094 8.589844 13.152344 7.207031 14.960938 7.207031 C 16.769531 7.207031 18.300781 8.589844 18.492188 10.375 Z M 8.027344 4.4375 C 8.027344 3.617188 8.695312 2.949219 9.515625 2.949219 C 10.332031 2.949219 11 3.617188 11 4.4375 C 11 5.253906 10.332031 5.921875 9.515625 5.921875 C 9.511719 5.921875 9.511719 5.921875 9.511719 5.921875 C 8.695312 5.921875 8.027344 5.253906 8.027344 4.4375 Z M 9.511719 6.691406 C 9.511719 6.691406 9.511719 6.691406 9.515625 6.691406 C 10.414062 6.691406 11.265625 7.089844 11.847656 7.769531 C 11.414062 8.226562 11.074219 8.773438 10.867188 9.382812 L 6.460938 9.382812 C 6.652344 7.863281 7.964844 6.691406 9.511719 6.691406 Z M 26.894531 20.476562 L 25.242188 12.167969 C 25.199219 11.957031 25.078125 11.773438 24.898438 11.65625 C 24.71875 11.535156 24.5 11.492188 24.289062 11.535156 L 22.160156 11.957031 C 21.949219 12 21.765625 12.121094 21.644531 12.300781 C 21.527344 12.480469 21.484375 12.699219 21.527344 12.910156 L 21.542969 13.003906 C 20.273438 13.421875 18.726562 13.539062 16.804688 11.953125 C 15.921875 11.226562 14.769531 11.203125 13.941406 11.894531 L 13.082031 12.613281 L 8.398438 12.613281 C 8.34375 12.292969 8.097656 12.023438 7.761719 11.957031 L 5.632812 11.535156 C 5.421875 11.492188 5.207031 11.535156 5.027344 11.65625 C 4.84375 11.773438 4.722656 11.957031 4.679688 12.167969 L 3.027344 20.476562 C 2.984375 20.6875 3.027344 20.902344 3.148438 21.082031 C 3.265625 21.261719 3.449219 21.386719 3.660156 21.425781 L 5.789062 21.851562 C 5.84375 21.863281 5.898438 21.867188 5.949219 21.867188 C 6.109375 21.867188 6.261719 21.820312 6.398438 21.730469 C 6.578125 21.609375 6.699219 21.425781 6.742188 21.214844 L 6.746094 21.183594 L 11.785156 26.222656 C 12.097656 26.535156 12.507812 26.691406 12.917969 26.691406 C 13.328125 26.691406 13.738281 26.535156 14.050781 26.222656 C 14.261719 26.011719 14.40625 25.753906 14.472656 25.46875 L 15.164062 26.160156 C 15.789062 26.78125 16.804688 26.78125 17.429688 26.15625 C 17.644531 25.941406 17.785156 25.679688 17.851562 25.402344 C 18.152344 25.6875 18.539062 25.84375 18.957031 25.84375 C 19.386719 25.84375 19.785156 25.675781 20.089844 25.375 C 20.433594 25.03125 20.585938 24.570312 20.550781 24.117188 C 20.59375 24.121094 20.636719 24.121094 20.675781 24.121094 C 21.105469 24.121094 21.507812 23.957031 21.808594 23.65625 C 22.230469 23.234375 22.375 22.605469 22.203125 22.046875 L 23.15625 21.09375 L 23.179688 21.214844 C 23.222656 21.425781 23.34375 21.609375 23.523438 21.730469 C 23.660156 21.820312 23.8125 21.867188 23.972656 21.867188 C 24.023438 21.867188 24.078125 21.863281 24.132812 21.851562 L 26.261719 21.425781 C 26.472656 21.386719 26.65625 21.261719 26.773438 21.082031 C 26.894531 20.902344 26.9375 20.6875 26.894531 20.476562 Z M 5.96875 21.089844 C 5.964844 21.09375 5.953125 21.097656 5.941406 21.097656 L 3.8125 20.671875 C 3.796875 20.671875 3.789062 20.664062 3.785156 20.65625 C 3.78125 20.648438 3.777344 20.640625 3.78125 20.625 L 5.433594 12.320312 C 5.4375 12.304688 5.445312 12.296875 5.453125 12.292969 C 5.457031 12.289062 5.464844 12.285156 5.472656 12.285156 C 5.476562 12.285156 5.480469 12.289062 5.480469 12.289062 L 7.613281 12.710938 C 7.632812 12.714844 7.644531 12.738281 7.640625 12.757812 L 5.988281 21.066406 C 5.984375 21.078125 5.976562 21.085938 5.96875 21.089844 Z M 21.265625 23.109375 C 21.109375 23.265625 20.898438 23.355469 20.675781 23.355469 C 20.453125 23.355469 20.246094 23.265625 20.089844 23.109375 L 16.464844 19.488281 C 16.316406 19.335938 16.070312 19.335938 15.921875 19.488281 C 15.769531 19.636719 15.769531 19.882812 15.921875 20.03125 L 19.542969 23.65625 C 19.871094 23.980469 19.871094 24.507812 19.542969 24.832031 C 19.386719 24.988281 19.179688 25.074219 18.957031 25.074219 C 18.734375 25.074219 18.523438 24.988281 18.367188 24.832031 L 14.539062 21.003906 C 14.390625 20.851562 14.144531 20.851562 13.996094 21.003906 C 13.84375 21.152344 13.84375 21.398438 13.996094 21.546875 L 16.886719 24.4375 C 17.210938 24.761719 17.210938 25.289062 16.886719 25.613281 C 16.5625 25.9375 16.03125 25.9375 15.707031 25.613281 L 12.613281 22.519531 C 12.460938 22.367188 12.21875 22.367188 12.070312 22.519531 C 11.917969 22.667969 11.917969 22.914062 12.070312 23.0625 L 13.507812 24.5 C 13.664062 24.65625 13.75 24.867188 13.75 25.089844 C 13.75 25.3125 13.664062 25.523438 13.507812 25.679688 C 13.183594 26.003906 12.65625 26.003906 12.332031 25.679688 L 6.929688 20.277344 L 8.300781 13.382812 L 12.160156 13.382812 L 11.085938 14.28125 C 10.605469 14.679688 10.402344 15.222656 10.519531 15.773438 L 11.386719 19.742188 C 11.410156 19.84375 11.472656 19.929688 11.558594 19.984375 C 11.648438 20.039062 11.753906 20.058594 11.855469 20.03125 C 12.898438 19.777344 13.597656 19.273438 13.988281 18.496094 C 14.328125 17.824219 14.394531 17.058594 14.464844 16.253906 C 14.472656 16.148438 14.484375 16.046875 14.492188 15.945312 C 14.492188 15.9375 14.496094 15.933594 14.496094 15.929688 C 14.632812 15.882812 15.265625 16.019531 16.21875 16.886719 L 21.433594 22.179688 C 21.574219 22.492188 21.507812 22.867188 21.265625 23.109375 Z M 21.753906 21.410156 L 16.757812 16.339844 C 16.753906 16.335938 16.75 16.332031 16.742188 16.324219 C 15.742188 15.414062 14.796875 14.996094 14.21875 15.214844 C 13.941406 15.316406 13.765625 15.550781 13.730469 15.855469 C 13.726562 15.859375 13.726562 15.863281 13.726562 15.867188 C 13.71875 15.972656 13.707031 16.078125 13.699219 16.183594 C 13.574219 17.613281 13.480469 18.671875 12.050781 19.175781 L 11.273438 15.609375 C 11.195312 15.25 11.429688 14.992188 11.578125 14.871094 L 14.433594 12.484375 C 14.96875 12.035156 15.726562 12.0625 16.3125 12.546875 C 18.484375 14.335938 20.296875 14.203125 21.695312 13.761719 L 22.976562 20.1875 Z M 26.136719 20.65625 C 26.132812 20.664062 26.125 20.671875 26.109375 20.671875 L 23.980469 21.097656 C 23.96875 21.097656 23.957031 21.09375 23.953125 21.089844 C 23.945312 21.085938 23.9375 21.078125 23.933594 21.066406 L 22.28125 12.757812 C 22.277344 12.746094 22.28125 12.734375 22.285156 12.730469 C 22.289062 12.722656 22.296875 12.714844 22.308594 12.710938 L 24.441406 12.289062 C 24.441406 12.289062 24.445312 12.285156 24.449219 12.285156 C 24.457031 12.285156 24.464844 12.289062 24.46875 12.292969 C 24.476562 12.296875 24.484375 12.304688 24.488281 12.320312 L 26.140625 20.625 C 26.144531 20.640625 26.140625 20.648438 26.136719 20.65625 Z M 26.136719 20.65625 "/></g></g></svg>