<svg xmlns="http://www.w3.org/2000/svg" xmlns:xlink="http://www.w3.org/1999/xlink" width="40" zoomAndPan="magnify" viewBox="0 0 30 30.000001" height="40" preserveAspectRatio="xMidYMid meet" version="1.2"><defs><clipPath id="7ea5264aea"><path d="M 2.636719 3.203125 L 27.316406 3.203125 L 27.316406 25.703125 L 2.636719 25.703125 Z M 2.636719 3.203125 "/></clipPath></defs><g id="694ac03468"><g clip-rule="nonzero" clip-path="url(#7ea5264aea)"><path style=" stroke:none;fill-rule:nonzero;fill:#ffffff;fill-opacity:1;" d="M 18.667969 3.203125 L 24.453125 3.203125 C 25.21875 3.203125 25.914062 3.511719 26.414062 4.015625 C 26.917969 4.519531 27.230469 5.214844 27.230469 5.976562 L 27.230469 13.484375 C 27.230469 14.25 26.917969 14.941406 26.414062 15.445312 C 25.914062 15.949219 25.21875 16.261719 24.453125 16.261719 L 18.667969 16.261719 C 17.902344 16.261719 17.210938 15.949219 16.707031 15.445312 C 16.203125 14.941406 15.890625 14.25 15.890625 13.484375 L 15.890625 5.976562 C 15.890625 5.214844 16.203125 4.519531 16.707031 4.015625 C 17.210938 3.515625 17.902344 3.203125 18.667969 3.203125 Z M 5.421875 9.585938 L 11.207031 9.585938 C 11.65625 9.585938 12.0625 9.402344 12.355469 9.109375 C 12.648438 8.8125 12.832031 8.410156 12.832031 7.960938 L 12.832031 5.976562 C 12.832031 5.53125 12.648438 5.125 12.355469 4.832031 C 12.058594 4.535156 11.652344 4.355469 11.207031 4.355469 L 5.421875 4.355469 C 4.976562 4.355469 4.570312 4.539062 4.277344 4.832031 C 3.980469 5.125 3.800781 5.53125 3.800781 5.976562 L 3.800781 7.960938 C 3.800781 8.410156 3.984375 8.8125 4.277344 9.109375 C 4.570312 9.402344 4.976562 9.585938 5.421875 9.585938 Z M 11.207031 10.738281 L 5.421875 10.738281 C 4.660156 10.738281 3.964844 10.425781 3.460938 9.921875 C 2.960938 9.421875 2.648438 8.726562 2.648438 7.960938 L 2.648438 5.976562 C 2.648438 5.214844 2.957031 4.519531 3.460938 4.015625 C 3.964844 3.515625 4.660156 3.203125 5.421875 3.203125 L 11.207031 3.203125 C 11.972656 3.203125 12.667969 3.515625 13.167969 4.015625 C 13.671875 4.519531 13.984375 5.214844 13.984375 5.976562 L 13.984375 7.960938 C 13.984375 8.726562 13.671875 9.421875 13.167969 9.921875 C 12.667969 10.425781 11.972656 10.738281 11.207031 10.738281 Z M 5.421875 24.546875 L 11.207031 24.546875 C 11.65625 24.546875 12.0625 24.363281 12.355469 24.070312 C 12.648438 23.777344 12.832031 23.371094 12.832031 22.925781 L 12.832031 15.417969 C 12.832031 14.96875 12.648438 14.566406 12.355469 14.269531 C 12.058594 13.976562 11.65625 13.792969 11.207031 13.792969 L 5.421875 13.792969 C 4.976562 13.792969 4.570312 13.976562 4.277344 14.269531 C 3.980469 14.566406 3.800781 14.96875 3.800781 15.417969 L 3.800781 22.925781 C 3.800781 23.371094 3.984375 23.777344 4.277344 24.070312 C 4.570312 24.363281 4.976562 24.546875 5.421875 24.546875 Z M 11.207031 25.699219 L 5.421875 25.699219 C 4.660156 25.699219 3.964844 25.386719 3.460938 24.882812 C 2.960938 24.382812 2.648438 23.6875 2.648438 22.925781 L 2.648438 15.417969 C 2.648438 14.652344 2.957031 13.957031 3.460938 13.457031 C 3.964844 12.953125 4.660156 12.640625 5.421875 12.640625 L 11.207031 12.640625 C 11.972656 12.640625 12.667969 12.953125 13.167969 13.457031 C 13.671875 13.957031 13.984375 14.652344 13.984375 15.417969 L 13.984375 22.925781 C 13.984375 23.6875 13.671875 24.382812 13.167969 24.882812 C 12.667969 25.386719 11.972656 25.699219 11.207031 25.699219 Z M 18.667969 18.164062 L 24.457031 18.164062 C 25.21875 18.164062 25.914062 18.476562 26.417969 18.976562 C 26.917969 19.480469 27.230469 20.175781 27.230469 20.9375 L 27.230469 22.925781 C 27.230469 23.6875 26.917969 24.382812 26.417969 24.882812 C 25.914062 25.386719 25.21875 25.699219 24.457031 25.699219 L 18.667969 25.699219 C 17.90625 25.699219 17.210938 25.386719 16.707031 24.882812 C 16.207031 24.382812 15.894531 23.6875 15.894531 22.925781 L 15.894531 20.9375 C 15.894531 20.175781 16.207031 19.480469 16.707031 18.976562 C 17.210938 18.476562 17.90625 18.164062 18.667969 18.164062 Z M 24.457031 19.316406 L 18.667969 19.316406 C 18.222656 19.316406 17.816406 19.5 17.523438 19.792969 C 17.226562 20.089844 17.046875 20.492188 17.046875 20.9375 L 17.046875 22.925781 C 17.046875 23.371094 17.230469 23.777344 17.523438 24.070312 C 17.816406 24.363281 18.222656 24.546875 18.667969 24.546875 L 24.457031 24.546875 C 24.902344 24.546875 25.308594 24.363281 25.601562 24.070312 C 25.894531 23.773438 26.078125 23.371094 26.078125 22.925781 L 26.078125 20.9375 C 26.078125 20.492188 25.894531 20.085938 25.601562 19.792969 C 25.304688 19.5 24.902344 19.316406 24.457031 19.316406 Z M 24.457031 4.355469 L 18.667969 4.355469 C 18.222656 4.355469 17.816406 4.539062 17.523438 4.832031 C 17.226562 5.125 17.046875 5.53125 17.046875 5.976562 L 17.046875 13.484375 C 17.046875 13.929688 17.230469 14.335938 17.523438 14.628906 C 17.816406 14.925781 18.222656 15.109375 18.667969 15.109375 L 24.457031 15.109375 C 24.902344 15.109375 25.308594 14.925781 25.601562 14.628906 C 25.894531 14.335938 26.078125 13.929688 26.078125 13.484375 L 26.078125 5.976562 C 26.078125 5.53125 25.894531 5.125 25.601562 4.832031 C 25.304688 4.535156 24.902344 4.355469 24.457031 4.355469 Z M 24.457031 4.355469 "/><path style=" stroke:none;fill-rule:nonzero;fill:#ffffff;fill-opacity:1;" d="M 18.667969 3.203125 L 24.453125 3.203125 C 25.21875 3.203125 25.914062 3.511719 26.414062 4.015625 C 26.917969 4.519531 27.230469 5.214844 27.230469 5.976562 L 27.230469 13.484375 C 27.230469 14.25 26.917969 14.941406 26.414062 15.445312 C 25.914062 15.949219 25.21875 16.261719 24.453125 16.261719 L 18.667969 16.261719 C 17.902344 16.261719 17.210938 15.949219 16.707031 15.445312 C 16.203125 14.941406 15.890625 14.25 15.890625 13.484375 L 15.890625 5.976562 C 15.890625 5.214844 16.203125 4.519531 16.707031 4.015625 C 17.210938 3.515625 17.902344 3.203125 18.667969 3.203125 Z M 5.421875 9.585938 L 11.207031 9.585938 C 11.65625 9.585938 12.0625 9.402344 12.355469 9.109375 C 12.648438 8.8125 12.832031 8.410156 12.832031 7.960938 L 12.832031 5.976562 C 12.832031 5.53125 12.648438 5.125 12.355469 4.832031 C 12.058594 4.535156 11.652344 4.355469 11.207031 4.355469 L 5.421875 4.355469 C 4.976562 4.355469 4.570312 4.539062 4.277344 4.832031 C 3.980469 5.125 3.800781 5.53125 3.800781 5.976562 L 3.800781 7.960938 C 3.800781 8.410156 3.984375 8.8125 4.277344 9.109375 C 4.570312 9.402344 4.976562 9.585938 5.421875 9.585938 Z M 11.207031 10.738281 L 5.421875 10.738281 C 4.660156 10.738281 3.964844 10.425781 3.460938 9.921875 C 2.960938 9.421875 2.648438 8.726562 2.648438 7.960938 L 2.648438 5.976562 C 2.648438 5.214844 2.957031 4.519531 3.460938 4.015625 C 3.964844 3.515625 4.660156 3.203125 5.421875 3.203125 L 11.207031 3.203125 C 11.972656 3.203125 12.667969 3.515625 13.167969 4.015625 C 13.671875 4.519531 13.984375 5.214844 13.984375 5.976562 L 13.984375 7.960938 C 13.984375 8.726562 13.671875 9.421875 13.167969 9.921875 C 12.667969 10.425781 11.972656 10.738281 11.207031 10.738281 Z M 5.421875 24.546875 L 11.207031 24.546875 C 11.65625 24.546875 12.0625 24.363281 12.355469 24.070312 C 12.648438 23.777344 12.832031 23.371094 12.832031 22.925781 L 12.832031 15.417969 C 12.832031 14.96875 12.648438 14.566406 12.355469 14.269531 C 12.058594 13.976562 11.65625 13.792969 11.207031 13.792969 L 5.421875 13.792969 C 4.976562 13.792969 4.570312 13.976562 4.277344 14.269531 C 3.980469 14.566406 3.800781 14.96875 3.800781 15.417969 L 3.800781 22.925781 C 3.800781 23.371094 3.984375 23.777344 4.277344 24.070312 C 4.570312 24.363281 4.976562 24.546875 5.421875 24.546875 Z M 11.207031 25.699219 L 5.421875 25.699219 C 4.660156 25.699219 3.964844 25.386719 3.460938 24.882812 C 2.960938 24.382812 2.648438 23.6875 2.648438 22.925781 L 2.648438 15.417969 C 2.648438 14.652344 2.957031 13.957031 3.460938 13.457031 C 3.964844 12.953125 4.660156 12.640625 5.421875 12.640625 L 11.207031 12.640625 C 11.972656 12.640625 12.667969 12.953125 13.167969 13.457031 C 13.671875 13.957031 13.984375 14.652344 13.984375 15.417969 L 13.984375 22.925781 C 13.984375 23.6875 13.671875 24.382812 13.167969 24.882812 C 12.667969 25.386719 11.972656 25.699219 11.207031 25.699219 Z M 18.667969 18.164062 L 24.457031 18.164062 C 25.21875 18.164062 25.914062 18.476562 26.417969 18.976562 C 26.917969 19.480469 27.230469 20.175781 27.230469 20.9375 L 27.230469 22.925781 C 27.230469 23.6875 26.917969 24.382812 26.417969 24.882812 C 25.914062 25.386719 25.21875 25.699219 24.457031 25.699219 L 18.667969 25.699219 C 17.90625 25.699219 17.210938 25.386719 16.707031 24.882812 C 16.207031 24.382812 15.894531 23.6875 15.894531 22.925781 L 15.894531 20.9375 C 15.894531 20.175781 16.207031 19.480469 16.707031 18.976562 C 17.210938 18.476562 17.90625 18.164062 18.667969 18.164062 Z M 24.457031 19.316406 L 18.667969 19.316406 C 18.222656 19.316406 17.816406 19.5 17.523438 19.792969 C 17.226562 20.089844 17.046875 20.492188 17.046875 20.9375 L 17.046875 22.925781 C 17.046875 23.371094 17.230469 23.777344 17.523438 24.070312 C 17.816406 24.363281 18.222656 24.546875 18.667969 24.546875 L 24.457031 24.546875 C 24.902344 24.546875 25.308594 24.363281 25.601562 24.070312 C 25.894531 23.773438 26.078125 23.371094 26.078125 22.925781 L 26.078125 20.9375 C 26.078125 20.492188 25.894531 20.085938 25.601562 19.792969 C 25.304688 19.5 24.902344 19.316406 24.457031 19.316406 Z M 24.457031 4.355469 L 18.667969 4.355469 C 18.222656 4.355469 17.816406 4.539062 17.523438 4.832031 C 17.226562 5.125 17.046875 5.53125 17.046875 5.976562 L 17.046875 13.484375 C 17.046875 13.929688 17.230469 14.335938 17.523438 14.628906 C 17.816406 14.925781 18.222656 15.109375 18.667969 15.109375 L 24.457031 15.109375 C 24.902344 15.109375 25.308594 14.925781 25.601562 14.628906 C 25.894531 14.335938 26.078125 13.929688 26.078125 13.484375 L 26.078125 5.976562 C 26.078125 5.53125 25.894531 5.125 25.601562 4.832031 C 25.304688 4.535156 24.902344 4.355469 24.457031 4.355469 Z M 24.457031 4.355469 "/></g></g></svg>