<svg xmlns="http://www.w3.org/2000/svg" xmlns:xlink="http://www.w3.org/1999/xlink" width="40" zoomAndPan="magnify" viewBox="0 0 30 30.000001" height="40" preserveAspectRatio="xMidYMid meet" version="1.2"><defs><clipPath id="673a0c0362"><path d="M 3.386719 3.890625 L 26.613281 3.890625 L 26.613281 24.9375 L 3.386719 24.9375 Z M 3.386719 3.890625 "/></clipPath></defs><g id="d03262a773"><g clip-rule="nonzero" clip-path="url(#673a0c0362)"><path style=" stroke:none;fill-rule:nonzero;fill:#571779;fill-opacity:1;" d="M 18.386719 3.886719 L 23.796875 3.886719 C 24.511719 3.886719 25.164062 4.179688 25.632812 4.652344 C 26.101562 5.121094 26.394531 5.769531 26.394531 6.484375 L 26.394531 13.507812 C 26.394531 14.222656 26.101562 14.871094 25.632812 15.34375 C 25.164062 15.8125 24.511719 16.105469 23.796875 16.105469 L 18.386719 16.105469 C 17.671875 16.105469 17.019531 15.8125 16.550781 15.34375 C 16.082031 14.871094 15.789062 14.222656 15.789062 13.507812 L 15.789062 6.484375 C 15.789062 5.769531 16.082031 5.121094 16.550781 4.652344 C 17.019531 4.179688 17.671875 3.886719 18.386719 3.886719 Z M 5.996094 9.859375 L 11.40625 9.859375 C 11.824219 9.859375 12.203125 9.6875 12.480469 9.414062 C 12.753906 9.136719 12.925781 8.757812 12.925781 8.339844 L 12.925781 6.484375 C 12.925781 6.066406 12.753906 5.6875 12.480469 5.414062 C 12.203125 5.136719 11.824219 4.964844 11.40625 4.964844 L 5.996094 4.964844 C 5.578125 4.964844 5.199219 5.136719 4.921875 5.414062 C 4.644531 5.6875 4.476562 6.066406 4.476562 6.484375 L 4.476562 8.339844 C 4.476562 8.757812 4.648438 9.136719 4.921875 9.414062 C 5.199219 9.6875 5.578125 9.859375 5.996094 9.859375 Z M 11.40625 10.9375 L 5.996094 10.9375 C 5.28125 10.9375 4.628906 10.644531 4.160156 10.175781 C 3.691406 9.707031 3.398438 9.054688 3.398438 8.339844 L 3.398438 6.484375 C 3.398438 5.769531 3.6875 5.121094 4.160156 4.652344 C 4.628906 4.179688 5.28125 3.886719 5.996094 3.886719 L 11.40625 3.886719 C 12.121094 3.886719 12.769531 4.179688 13.242188 4.652344 C 13.710938 5.121094 14.003906 5.769531 14.003906 6.484375 L 14.003906 8.339844 C 14.003906 9.054688 13.710938 9.707031 13.242188 10.175781 C 12.769531 10.644531 12.121094 10.9375 11.40625 10.9375 Z M 5.996094 23.855469 L 11.40625 23.855469 C 11.824219 23.855469 12.203125 23.683594 12.480469 23.410156 C 12.753906 23.132812 12.925781 22.753906 12.925781 22.335938 L 12.925781 15.316406 C 12.925781 14.898438 12.753906 14.519531 12.480469 14.242188 C 12.203125 13.96875 11.824219 13.796875 11.40625 13.796875 L 5.996094 13.796875 C 5.578125 13.796875 5.199219 13.96875 4.921875 14.242188 C 4.644531 14.519531 4.476562 14.898438 4.476562 15.316406 L 4.476562 22.335938 C 4.476562 22.753906 4.648438 23.132812 4.921875 23.410156 C 5.199219 23.6875 5.578125 23.855469 5.996094 23.855469 Z M 11.40625 24.933594 L 5.996094 24.933594 C 5.28125 24.933594 4.628906 24.640625 4.160156 24.171875 C 3.691406 23.703125 3.398438 23.050781 3.398438 22.335938 L 3.398438 15.316406 C 3.398438 14.601562 3.6875 13.949219 4.160156 13.480469 C 4.628906 13.011719 5.28125 12.71875 5.996094 12.71875 L 11.40625 12.71875 C 12.121094 12.71875 12.769531 13.011719 13.242188 13.480469 C 13.710938 13.949219 14.003906 14.601562 14.003906 15.316406 L 14.003906 22.335938 C 14.003906 23.054688 13.710938 23.703125 13.242188 24.171875 C 12.769531 24.640625 12.121094 24.933594 11.40625 24.933594 Z M 18.386719 17.882812 L 23.800781 17.882812 C 24.515625 17.882812 25.164062 18.175781 25.632812 18.648438 C 26.101562 19.117188 26.394531 19.765625 26.394531 20.480469 L 26.394531 22.335938 C 26.394531 23.054688 26.101562 23.703125 25.632812 24.171875 C 25.164062 24.640625 24.511719 24.933594 23.800781 24.933594 L 18.386719 24.933594 C 17.671875 24.933594 17.023438 24.640625 16.550781 24.171875 C 16.082031 23.699219 15.789062 23.050781 15.789062 22.335938 L 15.789062 20.480469 C 15.789062 19.765625 16.082031 19.117188 16.550781 18.648438 C 17.023438 18.175781 17.671875 17.882812 18.386719 17.882812 Z M 23.800781 18.960938 L 18.386719 18.960938 C 17.96875 18.960938 17.589844 19.132812 17.3125 19.410156 C 17.039062 19.683594 16.867188 20.0625 16.867188 20.480469 L 16.867188 22.335938 C 16.867188 22.753906 17.039062 23.132812 17.3125 23.410156 C 17.589844 23.6875 17.96875 23.855469 18.386719 23.855469 L 23.800781 23.855469 C 24.214844 23.855469 24.597656 23.683594 24.871094 23.410156 C 25.148438 23.132812 25.316406 22.753906 25.316406 22.335938 L 25.316406 20.480469 C 25.316406 20.0625 25.144531 19.683594 24.871094 19.410156 C 24.59375 19.132812 24.214844 18.960938 23.800781 18.960938 Z M 23.800781 4.964844 L 18.386719 4.964844 C 17.96875 4.964844 17.589844 5.136719 17.3125 5.414062 C 17.039062 5.6875 16.867188 6.066406 16.867188 6.484375 L 16.867188 13.507812 C 16.867188 13.925781 17.039062 14.304688 17.3125 14.578125 C 17.589844 14.855469 17.96875 15.027344 18.386719 15.027344 L 23.800781 15.027344 C 24.214844 15.027344 24.597656 14.855469 24.871094 14.578125 C 25.148438 14.304688 25.316406 13.925781 25.316406 13.507812 L 25.316406 6.484375 C 25.316406 6.066406 25.144531 5.6875 24.871094 5.414062 C 24.59375 5.136719 24.214844 4.964844 23.800781 4.964844 Z M 23.800781 4.964844 "/><path style=" stroke:none;fill-rule:nonzero;fill:#571779;fill-opacity:1;" d="M 18.386719 3.886719 L 23.796875 3.886719 C 24.511719 3.886719 25.164062 4.179688 25.632812 4.652344 C 26.101562 5.121094 26.394531 5.769531 26.394531 6.484375 L 26.394531 13.507812 C 26.394531 14.222656 26.101562 14.871094 25.632812 15.34375 C 25.164062 15.8125 24.511719 16.105469 23.796875 16.105469 L 18.386719 16.105469 C 17.671875 16.105469 17.019531 15.8125 16.550781 15.34375 C 16.082031 14.871094 15.789062 14.222656 15.789062 13.507812 L 15.789062 6.484375 C 15.789062 5.769531 16.082031 5.121094 16.550781 4.652344 C 17.019531 4.179688 17.671875 3.886719 18.386719 3.886719 Z M 5.996094 9.859375 L 11.40625 9.859375 C 11.824219 9.859375 12.203125 9.6875 12.480469 9.414062 C 12.753906 9.136719 12.925781 8.757812 12.925781 8.339844 L 12.925781 6.484375 C 12.925781 6.066406 12.753906 5.6875 12.480469 5.414062 C 12.203125 5.136719 11.824219 4.964844 11.40625 4.964844 L 5.996094 4.964844 C 5.578125 4.964844 5.199219 5.136719 4.921875 5.414062 C 4.644531 5.6875 4.476562 6.066406 4.476562 6.484375 L 4.476562 8.339844 C 4.476562 8.757812 4.648438 9.136719 4.921875 9.414062 C 5.199219 9.6875 5.578125 9.859375 5.996094 9.859375 Z M 11.40625 10.9375 L 5.996094 10.9375 C 5.28125 10.9375 4.628906 10.644531 4.160156 10.175781 C 3.691406 9.707031 3.398438 9.054688 3.398438 8.339844 L 3.398438 6.484375 C 3.398438 5.769531 3.6875 5.121094 4.160156 4.652344 C 4.628906 4.179688 5.28125 3.886719 5.996094 3.886719 L 11.40625 3.886719 C 12.121094 3.886719 12.769531 4.179688 13.242188 4.652344 C 13.710938 5.121094 14.003906 5.769531 14.003906 6.484375 L 14.003906 8.339844 C 14.003906 9.054688 13.710938 9.707031 13.242188 10.175781 C 12.769531 10.644531 12.121094 10.9375 11.40625 10.9375 Z M 5.996094 23.855469 L 11.40625 23.855469 C 11.824219 23.855469 12.203125 23.683594 12.480469 23.410156 C 12.753906 23.132812 12.925781 22.753906 12.925781 22.335938 L 12.925781 15.316406 C 12.925781 14.898438 12.753906 14.519531 12.480469 14.242188 C 12.203125 13.96875 11.824219 13.796875 11.40625 13.796875 L 5.996094 13.796875 C 5.578125 13.796875 5.199219 13.96875 4.921875 14.242188 C 4.644531 14.519531 4.476562 14.898438 4.476562 15.316406 L 4.476562 22.335938 C 4.476562 22.753906 4.648438 23.132812 4.921875 23.410156 C 5.199219 23.6875 5.578125 23.855469 5.996094 23.855469 Z M 11.40625 24.933594 L 5.996094 24.933594 C 5.28125 24.933594 4.628906 24.640625 4.160156 24.171875 C 3.691406 23.703125 3.398438 23.050781 3.398438 22.335938 L 3.398438 15.316406 C 3.398438 14.601562 3.6875 13.949219 4.160156 13.480469 C 4.628906 13.011719 5.28125 12.71875 5.996094 12.71875 L 11.40625 12.71875 C 12.121094 12.71875 12.769531 13.011719 13.242188 13.480469 C 13.710938 13.949219 14.003906 14.601562 14.003906 15.316406 L 14.003906 22.335938 C 14.003906 23.054688 13.710938 23.703125 13.242188 24.171875 C 12.769531 24.640625 12.121094 24.933594 11.40625 24.933594 Z M 18.386719 17.882812 L 23.800781 17.882812 C 24.515625 17.882812 25.164062 18.175781 25.632812 18.648438 C 26.101562 19.117188 26.394531 19.765625 26.394531 20.480469 L 26.394531 22.335938 C 26.394531 23.054688 26.101562 23.703125 25.632812 24.171875 C 25.164062 24.640625 24.511719 24.933594 23.800781 24.933594 L 18.386719 24.933594 C 17.671875 24.933594 17.023438 24.640625 16.550781 24.171875 C 16.082031 23.699219 15.789062 23.050781 15.789062 22.335938 L 15.789062 20.480469 C 15.789062 19.765625 16.082031 19.117188 16.550781 18.648438 C 17.023438 18.175781 17.671875 17.882812 18.386719 17.882812 Z M 23.800781 18.960938 L 18.386719 18.960938 C 17.96875 18.960938 17.589844 19.132812 17.3125 19.410156 C 17.039062 19.683594 16.867188 20.0625 16.867188 20.480469 L 16.867188 22.335938 C 16.867188 22.753906 17.039062 23.132812 17.3125 23.410156 C 17.589844 23.6875 17.96875 23.855469 18.386719 23.855469 L 23.800781 23.855469 C 24.214844 23.855469 24.597656 23.683594 24.871094 23.410156 C 25.148438 23.132812 25.316406 22.753906 25.316406 22.335938 L 25.316406 20.480469 C 25.316406 20.0625 25.144531 19.683594 24.871094 19.410156 C 24.59375 19.132812 24.214844 18.960938 23.800781 18.960938 Z M 23.800781 4.964844 L 18.386719 4.964844 C 17.96875 4.964844 17.589844 5.136719 17.3125 5.414062 C 17.039062 5.6875 16.867188 6.066406 16.867188 6.484375 L 16.867188 13.507812 C 16.867188 13.925781 17.039062 14.304688 17.3125 14.578125 C 17.589844 14.855469 17.96875 15.027344 18.386719 15.027344 L 23.800781 15.027344 C 24.214844 15.027344 24.597656 14.855469 24.871094 14.578125 C 25.148438 14.304688 25.316406 13.925781 25.316406 13.507812 L 25.316406 6.484375 C 25.316406 6.066406 25.144531 5.6875 24.871094 5.414062 C 24.59375 5.136719 24.214844 4.964844 23.800781 4.964844 Z M 23.800781 4.964844 "/></g></g></svg>