<svg xmlns="http://www.w3.org/2000/svg" xmlns:xlink="http://www.w3.org/1999/xlink" width="40" zoomAndPan="magnify" viewBox="0 0 30 30.000001" height="40" preserveAspectRatio="xMidYMid meet" version="1.2"><defs><clipPath id="061fcb00da"><path d="M 3.386719 6 L 24 6 L 24 26.128906 L 3.386719 26.128906 Z M 3.386719 6 "/></clipPath><clipPath id="0e0ae34c2d"><path d="M 18 2.902344 L 26.613281 2.902344 L 26.613281 11 L 18 11 Z M 18 2.902344 "/></clipPath><clipPath id="1937f28ed4"><path d="M 3.386719 6 L 24 6 L 24 26.128906 L 3.386719 26.128906 Z M 3.386719 6 "/></clipPath><clipPath id="5a178f5910"><path d="M 18 2.902344 L 26.613281 2.902344 L 26.613281 11 L 18 11 Z M 18 2.902344 "/></clipPath></defs><g id="3144ca8df6"><g clip-rule="nonzero" clip-path="url(#061fcb00da)"><path style=" stroke:none;fill-rule:nonzero;fill:#5a2765;fill-opacity:1;" d="M 17.652344 6 L 5.160156 18.488281 C 5.054688 18.597656 4.976562 18.734375 4.941406 18.878906 L 3.441406 25.074219 C 3.375 25.355469 3.457031 25.648438 3.660156 25.855469 C 3.820312 26.011719 4.03125 26.097656 4.25 26.097656 C 4.3125 26.097656 4.378906 26.089844 4.445312 26.074219 L 10.636719 24.574219 C 10.785156 24.539062 10.917969 24.460938 11.027344 24.355469 L 23.515625 11.863281 Z M 17.652344 6 "/></g><g clip-rule="nonzero" clip-path="url(#0e0ae34c2d)"><path style=" stroke:none;fill-rule:nonzero;fill:#5a2765;fill-opacity:1;" d="M 26.105469 6.722656 L 22.792969 3.410156 C 22.425781 3.042969 21.902344 2.875 21.34375 2.953125 C 20.863281 3.015625 20.394531 3.257812 20.027344 3.625 L 18.824219 4.828125 L 24.6875 10.691406 L 25.890625 9.492188 C 26.257812 9.121094 26.5 8.652344 26.5625 8.171875 C 26.640625 7.617188 26.472656 7.089844 26.105469 6.722656 Z M 26.105469 6.722656 "/></g><g clip-rule="nonzero" clip-path="url(#1937f28ed4)"><path style=" stroke:none;fill-rule:nonzero;fill:#5a2765;fill-opacity:1;" d="M 17.652344 6 L 5.160156 18.488281 C 5.054688 18.597656 4.976562 18.734375 4.941406 18.878906 L 3.441406 25.074219 C 3.375 25.355469 3.457031 25.648438 3.660156 25.855469 C 3.820312 26.011719 4.03125 26.097656 4.25 26.097656 C 4.3125 26.097656 4.378906 26.089844 4.445312 26.074219 L 10.636719 24.574219 C 10.785156 24.539062 10.917969 24.460938 11.027344 24.355469 L 23.515625 11.863281 Z M 17.652344 6 "/></g><g clip-rule="nonzero" clip-path="url(#5a178f5910)"><path style=" stroke:none;fill-rule:nonzero;fill:#5a2765;fill-opacity:1;" d="M 26.105469 6.722656 L 22.792969 3.410156 C 22.425781 3.042969 21.902344 2.875 21.34375 2.953125 C 20.863281 3.015625 20.394531 3.257812 20.027344 3.625 L 18.824219 4.828125 L 24.6875 10.691406 L 25.890625 9.492188 C 26.257812 9.121094 26.5 8.652344 26.5625 8.171875 C 26.640625 7.617188 26.472656 7.089844 26.105469 6.722656 Z M 26.105469 6.722656 "/></g></g></svg>