<svg xmlns="http://www.w3.org/2000/svg" xmlns:xlink="http://www.w3.org/1999/xlink" width="40" zoomAndPan="magnify" viewBox="0 0 30 30.000001" height="40" preserveAspectRatio="xMidYMid meet" version="1.2"><defs><clipPath id="ddc9f8f9ae"><path d="M 3.386719 2.554688 L 26.613281 2.554688 L 26.613281 26.507812 L 3.386719 26.507812 Z M 3.386719 2.554688 "/></clipPath></defs><g id="e97c146a72"><g clip-rule="nonzero" clip-path="url(#ddc9f8f9ae)"><path style=" stroke:none;fill-rule:nonzero;fill:#ffffff;fill-opacity:1;" d="M 26.285156 3.550781 C 25.953125 2.941406 25.320312 2.5625 24.625 2.5625 L 5.375 2.5625 C 4.683594 2.5625 4.046875 2.941406 3.714844 3.550781 C 3.386719 4.164062 3.417969 4.90625 3.796875 5.480469 L 11.753906 17.632812 C 11.820312 17.738281 11.855469 17.855469 11.855469 17.976562 L 11.855469 24.578125 C 11.855469 25.617188 12.703125 26.464844 13.742188 26.464844 L 16.257812 26.464844 C 17.296875 26.464844 18.144531 25.617188 18.144531 24.578125 L 18.144531 17.976562 C 18.144531 17.855469 18.179688 17.738281 18.246094 17.632812 L 26.203125 5.488281 C 26.582031 4.90625 26.613281 4.164062 26.285156 3.550781 Z M 25.148438 4.796875 L 17.195312 16.945312 C 16.992188 17.253906 16.886719 17.609375 16.886719 17.976562 L 16.886719 24.578125 C 16.886719 24.925781 16.601562 25.207031 16.257812 25.207031 L 13.742188 25.207031 C 13.394531 25.207031 13.113281 24.921875 13.113281 24.578125 L 13.113281 17.976562 C 13.113281 17.609375 13.007812 17.253906 12.804688 16.945312 L 4.851562 4.796875 C 4.664062 4.511719 4.769531 4.253906 4.820312 4.15625 C 4.875 4.058594 5.039062 3.828125 5.375 3.828125 L 24.625 3.828125 C 24.960938 3.828125 25.125 4.058594 25.179688 4.15625 C 25.230469 4.25 25.335938 4.511719 25.148438 4.796875 Z M 25.148438 4.796875 "/><path style=" stroke:none;fill-rule:nonzero;fill:#ffffff;fill-opacity:1;" d="M 26.285156 3.550781 C 25.953125 2.941406 25.320312 2.5625 24.625 2.5625 L 5.375 2.5625 C 4.683594 2.5625 4.046875 2.941406 3.714844 3.550781 C 3.386719 4.164062 3.417969 4.90625 3.796875 5.480469 L 11.753906 17.632812 C 11.820312 17.738281 11.855469 17.855469 11.855469 17.976562 L 11.855469 24.578125 C 11.855469 25.617188 12.703125 26.464844 13.742188 26.464844 L 16.257812 26.464844 C 17.296875 26.464844 18.144531 25.617188 18.144531 24.578125 L 18.144531 17.976562 C 18.144531 17.855469 18.179688 17.738281 18.246094 17.632812 L 26.203125 5.488281 C 26.582031 4.90625 26.613281 4.164062 26.285156 3.550781 Z M 25.148438 4.796875 L 17.195312 16.945312 C 16.992188 17.253906 16.886719 17.609375 16.886719 17.976562 L 16.886719 24.578125 C 16.886719 24.925781 16.601562 25.207031 16.257812 25.207031 L 13.742188 25.207031 C 13.394531 25.207031 13.113281 24.921875 13.113281 24.578125 L 13.113281 17.976562 C 13.113281 17.609375 13.007812 17.253906 12.804688 16.945312 L 4.851562 4.796875 C 4.664062 4.511719 4.769531 4.253906 4.820312 4.15625 C 4.875 4.058594 5.039062 3.828125 5.375 3.828125 L 24.625 3.828125 C 24.960938 3.828125 25.125 4.058594 25.179688 4.15625 C 25.230469 4.25 25.335938 4.511719 25.148438 4.796875 Z M 25.148438 4.796875 "/></g></g></svg>