<svg xmlns="http://www.w3.org/2000/svg" xmlns:xlink="http://www.w3.org/1999/xlink" width="40" zoomAndPan="magnify" viewBox="0 0 30 30.000001" height="40" preserveAspectRatio="xMidYMid meet" version="1.2"><defs><clipPath id="df785f8732"><path d="M 3.726562 2.902344 L 26.226562 2.902344 L 26.226562 26.128906 L 3.726562 26.128906 Z M 3.726562 2.902344 "/></clipPath></defs><g id="1712a0ade3"><g clip-rule="nonzero" clip-path="url(#df785f8732)"><path style=" stroke:none;fill-rule:nonzero;fill:#5a2675;fill-opacity:1;" d="M 25.90625 3.875 C 25.585938 3.28125 24.972656 2.914062 24.296875 2.914062 L 5.652344 2.914062 C 4.980469 2.914062 4.367188 3.28125 4.042969 3.875 C 3.726562 4.46875 3.753906 5.183594 4.125 5.742188 L 11.828125 17.515625 C 11.894531 17.613281 11.929688 17.730469 11.929688 17.847656 L 11.929688 24.242188 C 11.929688 25.25 12.75 26.070312 13.753906 26.070312 L 16.195312 26.070312 C 17.199219 26.070312 18.019531 25.25 18.019531 24.242188 L 18.019531 17.847656 C 18.019531 17.730469 18.054688 17.613281 18.121094 17.515625 L 25.828125 5.746094 C 26.195312 5.183594 26.226562 4.46875 25.90625 3.875 Z M 24.804688 5.078125 L 17.101562 16.847656 C 16.90625 17.144531 16.800781 17.492188 16.800781 17.847656 L 16.800781 24.242188 C 16.800781 24.582031 16.527344 24.851562 16.195312 24.851562 L 13.753906 24.851562 C 13.417969 24.851562 13.148438 24.574219 13.148438 24.242188 L 13.148438 17.847656 C 13.148438 17.492188 13.042969 17.144531 12.847656 16.847656 L 5.144531 5.078125 C 4.964844 4.804688 5.0625 4.550781 5.113281 4.457031 C 5.167969 4.363281 5.324219 4.140625 5.652344 4.140625 L 24.296875 4.140625 C 24.625 4.140625 24.78125 4.363281 24.835938 4.457031 C 24.886719 4.546875 24.988281 4.804688 24.804688 5.078125 Z M 24.804688 5.078125 "/><path style=" stroke:none;fill-rule:nonzero;fill:#5a2675;fill-opacity:1;" d="M 25.90625 3.875 C 25.585938 3.28125 24.972656 2.914062 24.296875 2.914062 L 5.652344 2.914062 C 4.980469 2.914062 4.367188 3.28125 4.042969 3.875 C 3.726562 4.46875 3.753906 5.183594 4.125 5.742188 L 11.828125 17.515625 C 11.894531 17.613281 11.929688 17.730469 11.929688 17.847656 L 11.929688 24.242188 C 11.929688 25.25 12.75 26.070312 13.753906 26.070312 L 16.195312 26.070312 C 17.199219 26.070312 18.019531 25.25 18.019531 24.242188 L 18.019531 17.847656 C 18.019531 17.730469 18.054688 17.613281 18.121094 17.515625 L 25.828125 5.746094 C 26.195312 5.183594 26.226562 4.46875 25.90625 3.875 Z M 24.804688 5.078125 L 17.101562 16.847656 C 16.90625 17.144531 16.800781 17.492188 16.800781 17.847656 L 16.800781 24.242188 C 16.800781 24.582031 16.527344 24.851562 16.195312 24.851562 L 13.753906 24.851562 C 13.417969 24.851562 13.148438 24.574219 13.148438 24.242188 L 13.148438 17.847656 C 13.148438 17.492188 13.042969 17.144531 12.847656 16.847656 L 5.144531 5.078125 C 4.964844 4.804688 5.0625 4.550781 5.113281 4.457031 C 5.167969 4.363281 5.324219 4.140625 5.652344 4.140625 L 24.296875 4.140625 C 24.625 4.140625 24.78125 4.363281 24.835938 4.457031 C 24.886719 4.546875 24.988281 4.804688 24.804688 5.078125 Z M 24.804688 5.078125 "/></g></g></svg>