<svg xmlns="http://www.w3.org/2000/svg" xmlns:xlink="http://www.w3.org/1999/xlink" width="40" zoomAndPan="magnify" viewBox="0 0 30 30.000001" height="40" preserveAspectRatio="xMidYMid meet" version="1.2"><defs><clipPath id="0edb0f6966"><path d="M 3.386719 2.757812 L 26.613281 2.757812 L 26.613281 25.980469 L 3.386719 25.980469 Z M 3.386719 2.757812 "/></clipPath><clipPath id="e01630d0fb"><path d="M 3.386719 2.609375 L 26.613281 2.609375 L 26.613281 25.835938 L 3.386719 25.835938 Z M 3.386719 2.609375 "/></clipPath></defs><g id="30c52857c8"><g clip-rule="nonzero" clip-path="url(#0edb0f6966)"><path style=" stroke:none;fill-rule:nonzero;fill:#5a2675;fill-opacity:1;" d="M 25.890625 13.558594 L 16.160156 3.3125 C 15.804688 2.9375 15.371094 2.75 14.855469 2.75 C 14.339844 2.75 13.902344 2.9375 13.550781 3.3125 C 10.308594 6.726562 7.066406 10.144531 3.824219 13.558594 C 3.65625 13.734375 3.550781 13.941406 3.511719 14.179688 C 3.46875 14.414062 3.492188 14.644531 3.589844 14.867188 C 3.683594 15.089844 3.832031 15.265625 4.035156 15.398438 C 4.234375 15.53125 4.457031 15.597656 4.699219 15.597656 L 5.203125 15.597656 L 5.203125 24.15625 C 5.203125 24.398438 5.25 24.628906 5.339844 24.851562 C 5.433594 25.074219 5.566406 25.273438 5.734375 25.441406 C 5.90625 25.613281 6.105469 25.746094 6.328125 25.839844 C 6.550781 25.929688 6.78125 25.976562 7.023438 25.976562 L 22.6875 25.976562 C 22.929688 25.976562 23.164062 25.929688 23.386719 25.839844 C 23.609375 25.746094 23.804688 25.613281 23.976562 25.441406 C 24.148438 25.273438 24.277344 25.074219 24.371094 24.851562 C 24.464844 24.628906 24.511719 24.398438 24.511719 24.15625 L 24.511719 15.59375 L 25.015625 15.59375 C 25.253906 15.59375 25.476562 15.527344 25.679688 15.394531 C 25.878906 15.261719 26.027344 15.085938 26.121094 14.863281 C 26.21875 14.640625 26.246094 14.414062 26.203125 14.175781 C 26.160156 13.9375 26.054688 13.730469 25.890625 13.558594 Z M 11.859375 24.882812 L 11.859375 16.234375 C 11.855469 16.113281 11.902344 16.007812 11.988281 15.921875 C 12.074219 15.835938 12.175781 15.792969 12.300781 15.792969 L 17.414062 15.792969 C 17.535156 15.792969 17.640625 15.835938 17.726562 15.921875 C 17.8125 16.007812 17.855469 16.113281 17.855469 16.234375 L 17.855469 24.882812 Z M 25.015625 14.519531 L 23.972656 14.519531 C 23.824219 14.519531 23.699219 14.570312 23.59375 14.675781 C 23.488281 14.78125 23.4375 14.90625 23.4375 15.054688 L 23.4375 24.15625 C 23.433594 24.359375 23.363281 24.535156 23.214844 24.683594 C 23.070312 24.828125 22.894531 24.902344 22.6875 24.902344 L 18.929688 24.902344 L 18.929688 16.234375 C 18.929688 16.03125 18.890625 15.839844 18.8125 15.652344 C 18.738281 15.46875 18.628906 15.304688 18.484375 15.160156 C 18.34375 15.019531 18.179688 14.910156 17.992188 14.832031 C 17.808594 14.757812 17.613281 14.71875 17.414062 14.71875 L 12.300781 14.71875 C 12.097656 14.71875 11.90625 14.757812 11.71875 14.832031 C 11.53125 14.910156 11.367188 15.019531 11.226562 15.160156 C 11.085938 15.304688 10.976562 15.46875 10.898438 15.652344 C 10.820312 15.839844 10.78125 16.03125 10.78125 16.234375 L 10.78125 24.902344 L 7.023438 24.902344 C 6.816406 24.902344 6.640625 24.828125 6.496094 24.683594 C 6.351562 24.539062 6.277344 24.363281 6.277344 24.15625 L 6.277344 15.058594 C 6.277344 14.910156 6.222656 14.785156 6.117188 14.679688 C 6.011719 14.574219 5.886719 14.519531 5.738281 14.519531 L 4.695312 14.519531 C 4.640625 14.519531 4.597656 14.496094 4.578125 14.441406 C 4.554688 14.390625 4.5625 14.34375 4.601562 14.300781 C 7.847656 10.882812 11.089844 7.46875 14.328125 4.050781 C 14.476562 3.90625 14.648438 3.832031 14.855469 3.832031 C 15.0625 3.832031 15.238281 3.90625 15.382812 4.050781 L 25.109375 14.296875 C 25.140625 14.328125 25.152344 14.363281 25.144531 14.410156 C 25.132812 14.484375 25.089844 14.519531 25.015625 14.519531 Z M 25.015625 14.519531 "/></g><g clip-rule="nonzero" clip-path="url(#e01630d0fb)"><path style=" stroke:none;fill-rule:nonzero;fill:#5a2675;fill-opacity:1;" d="M 25.890625 13.410156 L 16.160156 3.164062 C 15.804688 2.792969 15.371094 2.605469 14.855469 2.605469 C 14.339844 2.601562 13.902344 2.789062 13.550781 3.164062 C 10.308594 6.582031 7.066406 9.996094 3.824219 13.414062 C 3.65625 13.585938 3.550781 13.792969 3.511719 14.03125 C 3.46875 14.269531 3.492188 14.496094 3.589844 14.71875 C 3.683594 14.941406 3.832031 15.117188 4.035156 15.25 C 4.234375 15.382812 4.457031 15.449219 4.699219 15.449219 L 5.203125 15.449219 L 5.203125 24.007812 C 5.203125 24.25 5.25 24.480469 5.339844 24.707031 C 5.433594 24.929688 5.566406 25.125 5.734375 25.296875 C 5.90625 25.46875 6.105469 25.597656 6.328125 25.691406 C 6.550781 25.785156 6.78125 25.832031 7.023438 25.832031 L 22.6875 25.832031 C 22.929688 25.832031 23.164062 25.785156 23.386719 25.691406 C 23.609375 25.597656 23.804688 25.464844 23.976562 25.296875 C 24.148438 25.125 24.277344 24.929688 24.371094 24.703125 C 24.464844 24.480469 24.511719 24.25 24.511719 24.007812 L 24.511719 15.445312 L 25.015625 15.445312 C 25.253906 15.445312 25.476562 15.378906 25.679688 15.25 C 25.878906 15.117188 26.027344 14.9375 26.121094 14.71875 C 26.21875 14.496094 26.246094 14.265625 26.203125 14.027344 C 26.160156 13.792969 26.054688 13.585938 25.890625 13.410156 Z M 11.859375 24.734375 L 11.859375 16.085938 C 11.855469 15.964844 11.902344 15.859375 11.988281 15.773438 C 12.074219 15.6875 12.175781 15.644531 12.300781 15.644531 L 17.414062 15.644531 C 17.535156 15.644531 17.640625 15.6875 17.726562 15.773438 C 17.8125 15.859375 17.855469 15.964844 17.855469 16.085938 L 17.855469 24.734375 Z M 25.015625 14.371094 L 23.972656 14.371094 C 23.824219 14.371094 23.699219 14.421875 23.59375 14.527344 C 23.488281 14.632812 23.4375 14.761719 23.4375 14.910156 L 23.4375 24.007812 C 23.433594 24.214844 23.363281 24.390625 23.214844 24.535156 C 23.070312 24.679688 22.894531 24.753906 22.6875 24.753906 L 18.929688 24.753906 L 18.929688 16.085938 C 18.929688 15.886719 18.890625 15.691406 18.8125 15.507812 C 18.738281 15.320312 18.628906 15.15625 18.484375 15.015625 C 18.34375 14.871094 18.179688 14.761719 17.992188 14.6875 C 17.808594 14.609375 17.613281 14.570312 17.414062 14.570312 L 12.300781 14.570312 C 12.097656 14.570312 11.90625 14.609375 11.71875 14.6875 C 11.53125 14.761719 11.367188 14.871094 11.226562 15.015625 C 11.085938 15.15625 10.976562 15.320312 10.898438 15.507812 C 10.820312 15.691406 10.78125 15.886719 10.78125 16.085938 L 10.78125 24.757812 L 7.023438 24.757812 C 6.816406 24.753906 6.640625 24.683594 6.496094 24.535156 C 6.351562 24.390625 6.277344 24.214844 6.277344 24.007812 L 6.277344 14.910156 C 6.277344 14.761719 6.222656 14.636719 6.117188 14.53125 C 6.011719 14.425781 5.886719 14.375 5.738281 14.375 L 4.695312 14.375 C 4.640625 14.375 4.597656 14.347656 4.578125 14.292969 C 4.554688 14.242188 4.5625 14.195312 4.601562 14.152344 C 7.847656 10.738281 11.089844 7.320312 14.328125 3.90625 C 14.476562 3.757812 14.648438 3.6875 14.855469 3.6875 C 15.0625 3.6875 15.238281 3.757812 15.382812 3.90625 L 25.109375 14.152344 C 25.140625 14.179688 25.152344 14.21875 25.144531 14.261719 C 25.132812 14.335938 25.089844 14.371094 25.015625 14.371094 Z M 25.015625 14.371094 "/></g></g></svg>