<svg xmlns="http://www.w3.org/2000/svg" xmlns:xlink="http://www.w3.org/1999/xlink" width="40" zoomAndPan="magnify" viewBox="0 0 30 30.000001" height="40" preserveAspectRatio="xMidYMid meet" version="1.2"><defs><clipPath id="484f8930b6"><path d="M 19 11 L 26.613281 11 L 26.613281 19 L 19 19 Z M 19 11 "/></clipPath><clipPath id="e1ed75ef1b"><path d="M 3.386719 5.714844 L 23.878906 5.714844 L 23.878906 26.058594 L 3.386719 26.058594 Z M 3.386719 5.714844 "/></clipPath><clipPath id="4c6d209e8a"><path d="M 19 11 L 26.613281 11 L 26.613281 19 L 19 19 Z M 19 11 "/></clipPath><clipPath id="49158cf6c9"><path d="M 3.386719 5.714844 L 23.878906 5.714844 L 23.878906 26.058594 L 3.386719 26.058594 Z M 3.386719 5.714844 "/></clipPath></defs><g id="7e109057d1"><path style=" stroke:none;fill-rule:nonzero;fill:#ffffff;fill-opacity:1;" d="M 13.097656 9.90625 L 17.953125 5.050781 C 18.414062 4.589844 18.414062 3.894531 17.953125 3.433594 C 17.492188 2.96875 16.796875 2.96875 16.335938 3.433594 L 11.480469 8.171875 C 11.015625 8.636719 11.015625 9.445312 11.480469 9.90625 C 11.941406 10.253906 12.636719 10.253906 13.097656 9.90625 "/><g clip-rule="nonzero" clip-path="url(#484f8930b6)"><path style=" stroke:none;fill-rule:nonzero;fill:#ffffff;fill-opacity:1;" d="M 26.160156 11.527344 C 25.699219 11.0625 25.003906 11.0625 24.542969 11.527344 L 19.6875 16.378906 C 19.226562 16.839844 19.226562 17.535156 19.6875 18 C 20.152344 18.460938 20.84375 18.460938 21.304688 18 L 26.160156 13.144531 C 26.621094 12.679688 26.621094 11.988281 26.160156 11.527344 "/></g><g clip-rule="nonzero" clip-path="url(#e1ed75ef1b)"><path style=" stroke:none;fill-rule:nonzero;fill:#ffffff;fill-opacity:1;" d="M 23.386719 10.371094 L 19.109375 6.09375 C 18.878906 5.859375 18.644531 5.859375 18.414062 6.09375 L 14.253906 10.371094 C 14.023438 10.601562 14.023438 10.832031 14.253906 11.0625 L 15.523438 12.335938 L 3.734375 24.125 C 3.273438 24.589844 3.273438 25.28125 3.734375 25.742188 C 3.964844 25.976562 4.542969 26.324219 5.351562 25.742188 L 17.144531 13.953125 L 18.414062 15.222656 C 18.644531 15.457031 18.878906 15.457031 19.109375 15.222656 L 23.386719 10.945312 C 23.617188 10.832031 23.617188 10.484375 23.386719 10.371094 "/></g><path style=" stroke:none;fill-rule:nonzero;fill:#ffffff;fill-opacity:1;" d="M 13.097656 9.90625 L 17.953125 5.050781 C 18.414062 4.589844 18.414062 3.894531 17.953125 3.433594 C 17.492188 2.96875 16.796875 2.96875 16.335938 3.433594 L 11.480469 8.171875 C 11.015625 8.636719 11.015625 9.445312 11.480469 9.90625 C 11.941406 10.253906 12.636719 10.253906 13.097656 9.90625 "/><g clip-rule="nonzero" clip-path="url(#4c6d209e8a)"><path style=" stroke:none;fill-rule:nonzero;fill:#ffffff;fill-opacity:1;" d="M 26.160156 11.527344 C 25.699219 11.0625 25.003906 11.0625 24.542969 11.527344 L 19.6875 16.378906 C 19.226562 16.839844 19.226562 17.535156 19.6875 18 C 20.152344 18.460938 20.84375 18.460938 21.304688 18 L 26.160156 13.144531 C 26.621094 12.679688 26.621094 11.988281 26.160156 11.527344 "/></g><g clip-rule="nonzero" clip-path="url(#49158cf6c9)"><path style=" stroke:none;fill-rule:nonzero;fill:#ffffff;fill-opacity:1;" d="M 23.386719 10.371094 L 19.109375 6.09375 C 18.878906 5.859375 18.644531 5.859375 18.414062 6.09375 L 14.253906 10.371094 C 14.023438 10.601562 14.023438 10.832031 14.253906 11.0625 L 15.523438 12.335938 L 3.734375 24.125 C 3.273438 24.589844 3.273438 25.28125 3.734375 25.742188 C 3.964844 25.976562 4.542969 26.324219 5.351562 25.742188 L 17.144531 13.953125 L 18.414062 15.222656 C 18.644531 15.457031 18.878906 15.457031 19.109375 15.222656 L 23.386719 10.945312 C 23.617188 10.832031 23.617188 10.484375 23.386719 10.371094 "/></g></g></svg>