<svg xmlns="http://www.w3.org/2000/svg" xmlns:xlink="http://www.w3.org/1999/xlink" width="500" zoomAndPan="magnify" viewBox="0 0 375 374.999991" height="500" preserveAspectRatio="xMidYMid meet" version="1.2"><defs><clipPath id="00600e45ad"><path d="M 200 210 L 353.835938 210 L 353.835938 364 L 200 364 Z M 200 210 "/></clipPath><clipPath id="ef9c1e69ad"><path d="M 55.335938 169 L 241 169 L 241 303 L 55.335938 303 Z M 55.335938 169 "/></clipPath><clipPath id="51fb521f56"><path d="M 214.546875 155 L 289 155 L 289 168.792969 L 214.546875 168.792969 Z M 214.546875 155 "/></clipPath><clipPath id="38c1413fb8"><path d="M 262 81.792969 L 289 81.792969 L 289 98 L 262 98 Z M 262 81.792969 "/></clipPath></defs><g id="4ebdfe3db1"><g clip-rule="nonzero" clip-path="url(#00600e45ad)"><path style=" stroke:none;fill-rule:nonzero;fill:#ffffff;fill-opacity:1;" d="M 277.257812 210.574219 C 265.796875 210.574219 254.273438 213.15625 244.070312 218.128906 C 244.007812 218.128906 244.007812 218.191406 243.945312 218.191406 C 217.242188 231.101562 200.679688 257.550781 200.679688 287.148438 L 200.679688 287.464844 C 200.746094 287.78125 200.746094 288.15625 200.746094 288.472656 L 200.746094 289.101562 C 201.816406 330.289062 236.011719 363.664062 277.257812 363.664062 C 319.453125 363.664062 353.773438 329.34375 353.773438 287.148438 C 353.773438 244.894531 319.453125 210.574219 277.257812 210.574219 Z M 316.617188 277.640625 L 278.519531 315.742188 C 275.875 318.386719 272.410156 319.644531 268.945312 319.644531 C 265.417969 319.644531 261.957031 318.386719 259.3125 315.742188 L 237.960938 294.328125 C 232.671875 289.039062 232.671875 280.476562 237.960938 275.121094 C 243.253906 269.832031 251.816406 269.832031 257.105469 275.121094 L 268.945312 286.960938 L 297.410156 258.433594 C 302.699219 253.144531 311.328125 253.144531 316.617188 258.433594 C 321.90625 263.785156 321.90625 272.351562 316.617188 277.640625 Z M 316.617188 277.640625 "/></g><path style=" stroke:none;fill-rule:nonzero;fill:#ffffff;fill-opacity:1;" d="M 173.035156 147.472656 C 210.695312 147.472656 241.300781 116.867188 241.300781 79.269531 C 241.363281 41.613281 210.695312 11.007812 173.035156 11.007812 C 135.441406 11.007812 104.835938 41.613281 104.835938 79.207031 C 104.835938 116.867188 135.503906 147.472656 173.035156 147.472656 Z M 173.035156 147.472656 "/><g clip-rule="nonzero" clip-path="url(#ef9c1e69ad)"><path style=" stroke:none;fill-rule:nonzero;fill:#ffffff;fill-opacity:1;" d="M 173.601562 287.148438 C 173.601562 283.058594 173.792969 279.089844 174.359375 275.121094 C 177.382812 247.476562 191.363281 222.726562 212.960938 205.722656 C 218.882812 201.0625 225.367188 196.96875 232.359375 193.632812 C 234.875 192.4375 237.457031 191.300781 240.105469 190.296875 C 220.582031 176.753906 197.09375 169.324219 173.160156 169.324219 C 108.234375 169.324219 55.398438 222.160156 55.398438 287.085938 L 55.398438 288.660156 C 55.398438 296.09375 61.445312 302.199219 68.9375 302.199219 L 174.734375 302.199219 C 174.105469 297.980469 173.726562 293.699219 173.664062 289.355469 C 173.601562 288.722656 173.601562 287.96875 173.601562 287.148438 Z M 173.601562 287.148438 "/></g><path style=" stroke:none;fill-rule:nonzero;fill:#ffffff;fill-opacity:1;" d="M 352.863281 159.226562 C 352.515625 158.550781 352.035156 157.980469 351.476562 157.488281 C 350.148438 156.3125 348.824219 155.125 347.441406 154.011719 C 343.558594 150.894531 339.410156 148.175781 335.007812 145.851562 C 331.292969 143.890625 327.472656 142.144531 323.644531 140.421875 C 319.554688 138.585938 315.453125 136.777344 311.363281 134.933594 C 307.242188 133.074219 303.128906 131.191406 299.015625 129.3125 C 297.714844 128.71875 296.421875 128.105469 295.117188 127.515625 C 294.328125 127.15625 293.945312 126.515625 293.785156 125.703125 C 293.742188 125.496094 293.71875 125.289062 293.683594 125.082031 C 293.242188 122.679688 290.695312 120.910156 288.144531 122.398438 C 287.949219 122.515625 287.742188 122.613281 287.539062 122.726562 C 287.089844 122.972656 286.628906 122.988281 286.167969 122.769531 C 285.960938 122.671875 285.757812 122.5625 285.566406 122.441406 C 284.332031 121.664062 283.171875 120.789062 282.125 119.78125 C 281.304688 118.988281 280.550781 118.117188 279.773438 117.277344 C 279.484375 116.964844 279.4375 116.632812 279.660156 116.238281 C 280.046875 115.558594 280.402344 114.859375 280.761719 114.164062 C 280.910156 113.875 281.050781 113.582031 281.160156 113.277344 C 281.304688 112.882812 281.203125 112.519531 280.894531 112.234375 C 280.730469 112.078125 280.550781 111.925781 280.359375 111.808594 C 279.820312 111.480469 279.28125 111.152344 278.726562 110.855469 C 274.894531 108.792969 271.066406 106.726562 267.226562 104.679688 C 263.554688 102.71875 259.875 100.78125 256.195312 98.839844 C 255.890625 98.679688 255.574219 98.535156 255.25 98.433594 C 254.8125 98.292969 254.574219 98.402344 254.347656 98.808594 C 254.171875 99.125 254.027344 99.457031 253.859375 99.777344 C 251.347656 104.628906 248.835938 109.476562 246.328125 114.324219 C 246.179688 114.613281 246.035156 114.902344 245.914062 115.203125 C 245.789062 115.503906 245.855469 115.773438 246.136719 115.957031 C 246.472656 116.171875 246.808594 116.390625 247.164062 116.578125 C 250.257812 118.234375 253.355469 119.890625 256.460938 121.535156 C 261.296875 124.101562 266.140625 126.660156 270.984375 129.222656 C 271.183594 129.328125 271.390625 129.4375 271.605469 129.507812 C 272.046875 129.65625 272.273438 129.574219 272.523438 129.179688 C 272.667969 128.953125 272.785156 128.714844 272.90625 128.476562 C 273.304688 127.671875 273.6875 126.859375 274.09375 126.058594 C 274.246094 125.757812 274.4375 125.476562 274.628906 125.15625 C 274.847656 125.238281 274.976562 125.28125 275.097656 125.328125 C 277.273438 126.160156 279.445312 126.988281 281.617188 127.824219 C 282.222656 128.058594 282.828125 128.292969 283.417969 128.566406 C 284.042969 128.855469 284.347656 129.394531 284.402344 130.070312 C 284.449219 130.726562 284.707031 131.285156 285.152344 131.757812 C 285.808594 132.449219 286.628906 132.824219 287.558594 132.984375 C 288.347656 133.121094 289.121094 132.980469 289.871094 132.746094 C 290.457031 132.5625 291.011719 132.628906 291.535156 132.902344 C 293.5 133.921875 295.53125 134.824219 297.378906 136.050781 C 301.40625 138.722656 305.4375 141.386719 309.429688 144.101562 C 313.980469 147.195312 318.480469 150.355469 323.164062 153.242188 C 329.804688 157.335938 336.667969 160.996094 344 163.714844 C 344.554688 163.921875 344.996094 164.222656 345.316406 164.742188 C 345.777344 165.480469 346.449219 165.984375 347.300781 166.207031 C 348.75 166.589844 350.121094 166.339844 351.339844 165.503906 C 353.347656 164.121094 353.980469 161.394531 352.863281 159.226562 Z M 352.863281 159.226562 "/><g clip-rule="nonzero" clip-path="url(#51fb521f56)"><path style=" stroke:none;fill-rule:nonzero;fill:#ffffff;fill-opacity:1;" d="M 286.691406 155.898438 C 286.480469 155.378906 286.160156 155.148438 285.617188 155.148438 C 284.699219 155.148438 283.785156 155.128906 282.867188 155.128906 C 272.457031 155.128906 262.046875 155.128906 251.636719 155.128906 L 251.636719 155.15625 C 245.238281 155.15625 238.839844 155.160156 232.441406 155.15625 C 227.644531 155.148438 222.851562 155.144531 218.054688 155.097656 C 217.320312 155.089844 216.917969 155.351562 216.675781 156 C 216.1875 157.304688 215.644531 158.589844 215.199219 159.90625 C 214.773438 161.179688 214.613281 162.511719 214.609375 163.855469 C 214.609375 164.828125 214.664062 165.800781 214.699219 166.773438 C 214.71875 167.320312 214.773438 167.417969 215.304688 167.488281 C 215.910156 167.570312 216.519531 167.601562 217.128906 167.636719 C 219.1875 167.765625 221.246094 167.933594 223.304688 168.003906 C 226.800781 168.121094 230.292969 168.1875 233.789062 168.25 C 236.558594 168.300781 239.328125 168.3125 242.097656 168.339844 C 245.972656 168.378906 249.851562 168.453125 253.726562 168.449219 C 257.050781 168.445312 260.375 168.339844 263.695312 168.296875 C 270.304688 168.210938 276.914062 168.15625 283.519531 168.039062 C 284.945312 168.015625 286.371094 167.816406 287.792969 167.652344 C 288.445312 167.578125 288.597656 167.386719 288.625 166.769531 C 288.714844 164.78125 288.6875 162.800781 288.320312 160.832031 C 287.996094 159.109375 287.34375 157.507812 286.691406 155.898438 Z M 286.691406 155.898438 "/></g><path style=" stroke:none;fill-rule:nonzero;fill:#ffffff;fill-opacity:1;" d="M 238.210938 129.871094 C 241.273438 131.632812 244.300781 133.453125 247.398438 135.140625 C 251.910156 137.59375 256.46875 139.953125 261.011719 142.34375 C 262.074219 142.902344 263.152344 143.433594 264.234375 143.957031 C 264.644531 144.15625 265.082031 144.300781 265.566406 144.496094 C 265.765625 144.367188 266.007812 144.273438 266.15625 144.101562 C 267.160156 142.945312 267.726562 141.621094 267.566406 140.066406 C 267.507812 139.519531 267.355469 138.980469 267.238281 138.441406 C 266.992188 137.339844 266.734375 136.246094 266.496094 135.144531 C 266.347656 134.453125 266.582031 133.90625 267.191406 133.535156 C 267.484375 133.355469 267.792969 133.199219 268.09375 133.039062 C 268.648438 132.738281 269.210938 132.457031 269.757812 132.144531 C 269.984375 132.011719 270.183594 131.824219 270.382812 131.648438 C 270.585938 131.460938 270.605469 131.238281 270.390625 131.054688 C 270.078125 130.777344 269.769531 130.480469 269.414062 130.273438 C 268.621094 129.8125 267.800781 129.402344 266.992188 128.976562 C 262.085938 126.371094 257.183594 123.765625 252.277344 121.164062 C 250.085938 120.003906 247.890625 118.84375 245.695312 117.6875 C 245.445312 117.554688 245.1875 117.421875 244.917969 117.332031 C 244.539062 117.203125 244.304688 117.398438 244.378906 117.796875 C 244.441406 118.152344 244.570312 118.492188 244.664062 118.84375 C 244.789062 119.304688 244.9375 119.757812 245.027344 120.226562 C 245.164062 120.945312 245 121.605469 244.449219 122.109375 C 244.113281 122.414062 243.746094 122.71875 243.339844 122.898438 C 242.085938 123.457031 240.816406 123.984375 239.535156 124.472656 C 238.660156 124.804688 238.011719 125.359375 237.648438 126.203125 C 237.367188 126.867188 237.160156 127.566406 236.964844 128.261719 C 236.917969 128.433594 237 128.671875 237.089844 128.847656 C 237.332031 129.324219 237.757812 129.613281 238.210938 129.871094 Z M 238.210938 129.871094 "/><path style=" stroke:none;fill-rule:nonzero;fill:#ffffff;fill-opacity:1;" d="M 257.828125 97.40625 C 258.898438 97.992188 259.980469 98.558594 261.050781 99.140625 C 266.9375 102.335938 272.816406 105.535156 278.703125 108.730469 C 279.488281 109.15625 280.277344 109.585938 281.078125 109.988281 C 281.40625 110.152344 281.761719 110.308594 282.15625 110.230469 C 282.308594 109.660156 282.085938 109.179688 281.929688 108.699219 C 281.695312 107.972656 281.410156 107.261719 281.199219 106.53125 C 280.992188 105.820312 281.085938 105.578125 281.703125 105.175781 C 282.261719 104.8125 282.847656 104.484375 283.449219 104.199219 C 284.464844 103.71875 285.5 103.277344 286.535156 102.832031 C 287.644531 102.355469 288.394531 101.523438 288.921875 100.46875 C 289.210938 99.886719 289.171875 99.675781 288.664062 99.28125 C 288.246094 98.953125 287.792969 98.667969 287.335938 98.390625 C 282.398438 95.417969 277.425781 92.511719 272.332031 89.8125 C 268.894531 87.992188 265.40625 86.265625 261.941406 84.5 C 261.601562 84.328125 261.246094 84.183594 260.886719 84.054688 C 260.414062 83.878906 259.984375 83.96875 259.632812 84.34375 C 259.398438 84.59375 259.183594 84.863281 258.945312 85.113281 C 258.324219 85.761719 258.160156 86.480469 258.394531 87.371094 C 258.898438 89.285156 259.328125 91.222656 259.777344 93.15625 C 259.808594 93.289062 259.8125 93.476562 259.746094 93.582031 C 259.535156 93.917969 259.316406 94.257812 259.035156 94.535156 C 258.738281 94.824219 258.371094 95.046875 258.03125 95.292969 C 257.539062 95.644531 257.039062 95.992188 256.503906 96.371094 C 256.894531 96.886719 257.359375 97.152344 257.828125 97.40625 Z M 257.828125 97.40625 "/><path style=" stroke:none;fill-rule:nonzero;fill:#ffffff;fill-opacity:1;" d="M 219.699219 153.023438 C 219.761719 153.277344 219.929688 153.414062 220.1875 153.433594 C 220.488281 153.460938 220.796875 153.492188 221.101562 153.496094 C 223.335938 153.523438 225.570312 153.5625 227.804688 153.574219 C 232.539062 153.601562 237.277344 153.632812 242.015625 153.628906 C 245.5625 153.628906 249.105469 153.890625 252.65625 153.613281 C 254.804688 153.445312 256.972656 153.570312 259.128906 153.570312 C 266.75 153.574219 274.375 153.582031 281.996094 153.582031 C 282.296875 153.582031 282.609375 153.578125 282.902344 153.515625 C 283.289062 153.433594 283.445312 153.210938 283.449219 152.816406 C 283.449219 152.3125 283.28125 151.878906 282.847656 151.585938 C 282.609375 151.429688 282.359375 151.285156 282.105469 151.15625 C 281.097656 150.636719 280.453125 149.824219 280.15625 148.734375 C 280.128906 148.640625 280.105469 148.550781 280.074219 148.457031 C 279.945312 148.074219 279.6875 147.855469 279.277344 147.824219 C 279.105469 147.808594 278.9375 147.792969 278.765625 147.789062 C 276.261719 147.714844 273.761719 147.59375 271.261719 147.582031 C 264.671875 147.554688 258.082031 147.574219 251.492188 147.574219 C 251.492188 147.554688 251.492188 147.535156 251.492188 147.519531 C 249.984375 147.519531 248.472656 147.515625 246.964844 147.519531 C 239.4375 147.523438 231.914062 147.5 224.390625 147.78125 C 222.878906 147.835938 222.964844 148.003906 222.539062 149.050781 C 222.527344 149.085938 222.507812 149.121094 222.492188 149.15625 C 222.042969 150.191406 221.339844 150.992188 220.3125 151.488281 C 220.160156 151.5625 220.015625 151.65625 219.867188 151.742188 C 219.582031 151.90625 219.480469 152.15625 219.554688 152.472656 C 219.597656 152.65625 219.652344 152.839844 219.699219 153.023438 Z M 219.699219 153.023438 "/><g clip-rule="nonzero" clip-path="url(#38c1413fb8)"><path style=" stroke:none;fill-rule:nonzero;fill:#ffffff;fill-opacity:1;" d="M 263.113281 83.453125 C 266.503906 85.625 269.949219 87.707031 273.464844 89.667969 C 277.914062 92.152344 282.464844 94.4375 287 96.75 C 287.289062 96.898438 287.578125 97.050781 287.882812 97.15625 C 288.140625 97.246094 288.421875 97.375 288.699219 97.1875 C 288.789062 96.777344 288.671875 96.4375 288.445312 96.105469 C 287.8125 95.167969 287.125 94.277344 286.296875 93.503906 C 285.429688 92.699219 284.585938 91.871094 283.691406 91.09375 C 280.0625 87.949219 276.003906 85.535156 271.441406 83.988281 C 268.925781 83.136719 266.320312 82.625 263.757812 81.957031 C 263.132812 81.792969 262.644531 81.929688 262.125 82.332031 C 262.34375 82.839844 262.691406 83.179688 263.113281 83.453125 Z M 263.113281 83.453125 "/></g><path style=" stroke:none;fill-rule:nonzero;fill:#ffffff;fill-opacity:1;" d="M 243.273438 138.101562 C 246.714844 140.511719 250.417969 142.425781 254.308594 143.988281 C 256.847656 145.007812 259.4375 145.851562 262.105469 146.453125 C 262.308594 146.496094 262.585938 146.511719 262.75 146.410156 C 263.410156 145.996094 263.441406 145.230469 262.839844 144.734375 C 262.617188 144.554688 262.367188 144.410156 262.117188 144.273438 C 261.292969 143.828125 260.464844 143.394531 259.640625 142.953125 C 254.070312 139.972656 248.503906 136.988281 242.933594 134.007812 C 241.402344 133.1875 239.867188 132.375 238.339844 131.550781 C 237.875 131.304688 237.394531 131.167969 236.839844 131.230469 C 236.792969 131.683594 236.9375 132.054688 237.199219 132.398438 C 238.898438 134.648438 240.972656 136.488281 243.273438 138.101562 Z M 243.273438 138.101562 "/></g></svg>