<svg xmlns="http://www.w3.org/2000/svg" xmlns:xlink="http://www.w3.org/1999/xlink" width="40" zoomAndPan="magnify" viewBox="0 0 30 30.000001" height="40" preserveAspectRatio="xMidYMid meet" version="1.2"><defs><clipPath id="b4c0d605b3"><path d="M 1.644531 16 L 22 16 L 22 27.199219 L 1.644531 27.199219 Z M 1.644531 16 "/></clipPath><clipPath id="bbec77d849"><path d="M 5 18 L 12 18 L 12 27.199219 L 5 27.199219 Z M 5 18 "/></clipPath><clipPath id="fdfcaac595"><path d="M 12 18 L 18 18 L 18 27.199219 L 12 27.199219 Z M 12 18 "/></clipPath><clipPath id="1cd0ec0839"><path d="M 11 21 L 14 21 L 14 27.199219 L 11 27.199219 Z M 11 21 "/></clipPath><clipPath id="55ba044181"><path d="M 4 22 L 6 22 L 6 27.199219 L 4 27.199219 Z M 4 22 "/></clipPath><clipPath id="c7f11dd569"><path d="M 17 22 L 19 22 L 19 27.199219 L 17 27.199219 Z M 17 22 "/></clipPath><clipPath id="98d9a8f916"><path d="M 22 1.796875 L 28 1.796875 L 28 8 L 22 8 Z M 22 1.796875 "/></clipPath><clipPath id="9d56dcb09b"><path d="M 21 6 L 28.5 6 L 28.5 14 L 21 14 Z M 21 6 "/></clipPath><clipPath id="d35ee444e4"><path d="M 1.644531 16 L 22 16 L 22 27.199219 L 1.644531 27.199219 Z M 1.644531 16 "/></clipPath><clipPath id="5dea24a3f2"><path d="M 5 18 L 12 18 L 12 27.199219 L 5 27.199219 Z M 5 18 "/></clipPath><clipPath id="b593dbe743"><path d="M 12 18 L 18 18 L 18 27.199219 L 12 27.199219 Z M 12 18 "/></clipPath><clipPath id="a9e94dc1b9"><path d="M 11 21 L 14 21 L 14 27.199219 L 11 27.199219 Z M 11 21 "/></clipPath><clipPath id="ed1fa75136"><path d="M 4 22 L 6 22 L 6 27.199219 L 4 27.199219 Z M 4 22 "/></clipPath><clipPath id="e9df67eaf4"><path d="M 17 22 L 19 22 L 19 27.199219 L 17 27.199219 Z M 17 22 "/></clipPath><clipPath id="f64cc1d7e5"><path d="M 22 1.796875 L 28 1.796875 L 28 8 L 22 8 Z M 22 1.796875 "/></clipPath><clipPath id="b684a3aeed"><path d="M 21 6 L 28.5 6 L 28.5 14 L 21 14 Z M 21 6 "/></clipPath></defs><g id="47106c8fd7"><g clip-rule="nonzero" clip-path="url(#b4c0d605b3)"><path style=" stroke:none;fill-rule:nonzero;fill:#571779;fill-opacity:1;" d="M 21.070312 27.195312 L 2.070312 27.195312 C 1.839844 27.195312 1.65625 27.011719 1.65625 26.78125 L 1.65625 21.878906 C 1.65625 20.746094 2.382812 19.761719 3.46875 19.4375 L 9.007812 17.699219 L 9.6875 16.46875 C 9.796875 16.265625 10.050781 16.195312 10.25 16.304688 C 10.449219 16.414062 10.523438 16.667969 10.414062 16.867188 L 9.652344 18.242188 C 9.601562 18.335938 9.515625 18.40625 9.414062 18.4375 L 3.714844 20.226562 C 3.714844 20.226562 3.710938 20.226562 3.710938 20.230469 C 2.976562 20.449219 2.484375 21.113281 2.484375 21.878906 L 2.484375 26.367188 L 20.65625 26.367188 L 20.65625 21.878906 C 20.65625 21.113281 20.164062 20.449219 19.429688 20.230469 C 19.429688 20.226562 19.425781 20.226562 19.425781 20.226562 L 13.726562 18.4375 C 13.625 18.40625 13.539062 18.335938 13.488281 18.242188 L 12.726562 16.867188 C 12.617188 16.667969 12.6875 16.414062 12.890625 16.304688 C 13.089844 16.195312 13.339844 16.265625 13.453125 16.46875 L 14.132812 17.699219 L 19.671875 19.4375 C 20.757812 19.761719 21.484375 20.746094 21.484375 21.878906 L 21.484375 26.78125 C 21.484375 27.011719 21.300781 27.195312 21.070312 27.195312 Z M 21.070312 27.195312 "/></g><g clip-rule="nonzero" clip-path="url(#bbec77d849)"><path style=" stroke:none;fill-rule:nonzero;fill:#571779;fill-opacity:1;" d="M 10.109375 27.195312 C 9.953125 27.195312 9.804688 27.105469 9.734375 26.960938 L 5.960938 19.152344 C 5.859375 18.945312 5.945312 18.699219 6.152344 18.597656 C 6.359375 18.5 6.605469 18.585938 6.707031 18.792969 L 9.902344 25.402344 L 10.402344 22.160156 C 10.4375 21.933594 10.648438 21.777344 10.875 21.8125 C 11.097656 21.847656 11.253906 22.058594 11.21875 22.285156 L 10.519531 26.84375 C 10.492188 27.023438 10.347656 27.164062 10.171875 27.191406 C 10.148438 27.195312 10.128906 27.195312 10.109375 27.195312 Z M 10.109375 27.195312 "/></g><g clip-rule="nonzero" clip-path="url(#fdfcaac595)"><path style=" stroke:none;fill-rule:nonzero;fill:#571779;fill-opacity:1;" d="M 13.089844 27.195312 C 13.027344 27.195312 12.96875 27.183594 12.910156 27.15625 C 12.703125 27.054688 12.617188 26.808594 12.71875 26.601562 L 16.492188 18.792969 C 16.59375 18.585938 16.839844 18.5 17.046875 18.597656 C 17.253906 18.699219 17.339844 18.945312 17.238281 19.152344 L 13.460938 26.960938 C 13.390625 27.109375 13.242188 27.195312 13.089844 27.195312 Z M 13.089844 27.195312 "/></g><path style=" stroke:none;fill-rule:nonzero;fill:#571779;fill-opacity:1;" d="M 10.050781 21.699219 C 9.945312 21.699219 9.839844 21.660156 9.757812 21.578125 L 7.101562 18.933594 C 6.941406 18.769531 6.941406 18.507812 7.101562 18.347656 C 7.261719 18.183594 7.527344 18.183594 7.6875 18.34375 L 10.050781 20.703125 L 10.941406 19.808594 L 9.039062 18.375 C 8.859375 18.234375 8.820312 17.976562 8.960938 17.792969 C 9.097656 17.613281 9.359375 17.574219 9.539062 17.714844 L 11.820312 19.4375 C 11.914062 19.507812 11.976562 19.617188 11.984375 19.738281 C 11.992188 19.859375 11.949219 19.976562 11.863281 20.058594 L 10.34375 21.578125 C 10.261719 21.660156 10.15625 21.699219 10.050781 21.699219 Z M 10.050781 21.699219 "/><path style=" stroke:none;fill-rule:nonzero;fill:#571779;fill-opacity:1;" d="M 13.089844 21.699219 C 12.984375 21.699219 12.878906 21.660156 12.796875 21.578125 L 11.277344 20.058594 C 11.191406 19.976562 11.148438 19.859375 11.15625 19.738281 C 11.164062 19.617188 11.226562 19.507812 11.320312 19.4375 L 13.601562 17.714844 C 13.78125 17.574219 14.042969 17.613281 14.179688 17.792969 C 14.316406 17.976562 14.28125 18.234375 14.097656 18.375 L 12.199219 19.808594 L 13.089844 20.703125 L 15.453125 18.34375 C 15.613281 18.183594 15.875 18.183594 16.039062 18.347656 C 16.199219 18.507812 16.199219 18.769531 16.039062 18.933594 L 13.382812 21.578125 C 13.300781 21.660156 13.195312 21.699219 13.089844 21.699219 Z M 13.089844 21.699219 "/><g clip-rule="nonzero" clip-path="url(#1cd0ec0839)"><path style=" stroke:none;fill-rule:nonzero;fill:#571779;fill-opacity:1;" d="M 13.03125 27.195312 C 12.828125 27.195312 12.652344 27.050781 12.621094 26.84375 L 11.921875 22.285156 C 11.886719 22.058594 12.039062 21.847656 12.265625 21.8125 C 12.492188 21.777344 12.703125 21.933594 12.738281 22.160156 L 13.441406 26.71875 C 13.476562 26.945312 13.320312 27.15625 13.09375 27.191406 C 13.074219 27.195312 13.050781 27.195312 13.03125 27.195312 Z M 13.03125 27.195312 "/></g><path style=" stroke:none;fill-rule:nonzero;fill:#571779;fill-opacity:1;" d="M 12.328125 22.636719 L 10.808594 22.636719 C 10.644531 22.636719 10.496094 22.539062 10.429688 22.386719 L 9.921875 21.195312 C 9.832031 20.984375 9.929688 20.742188 10.140625 20.652344 C 10.351562 20.5625 10.59375 20.660156 10.683594 20.871094 L 11.082031 21.808594 L 12.054688 21.808594 L 12.457031 20.871094 C 12.546875 20.660156 12.789062 20.5625 13 20.652344 C 13.210938 20.742188 13.308594 20.984375 13.21875 21.195312 L 12.710938 22.386719 C 12.644531 22.539062 12.496094 22.636719 12.328125 22.636719 Z M 12.328125 22.636719 "/><path style=" stroke:none;fill-rule:nonzero;fill:#571779;fill-opacity:1;" d="M 11.570312 17.308594 C 9.039062 17.308594 6.976562 15.25 6.976562 12.714844 L 6.976562 11.6875 C 6.976562 10.707031 7.773438 9.910156 8.753906 9.910156 L 10.71875 9.910156 C 11.929688 9.910156 12.992188 9.136719 13.363281 7.984375 C 13.410156 7.847656 13.523438 7.742188 13.664062 7.710938 C 13.804688 7.675781 13.953125 7.71875 14.054688 7.820312 L 14.96875 8.746094 C 15.59375 9.351562 15.972656 10.160156 16.039062 11.023438 L 16.160156 12.042969 C 16.164062 12.058594 16.164062 12.074219 16.164062 12.089844 L 16.164062 12.714844 C 16.164062 15.25 14.101562 17.308594 11.570312 17.308594 Z M 8.753906 10.738281 C 8.230469 10.738281 7.804688 11.164062 7.804688 11.6875 L 7.804688 12.714844 C 7.804688 14.792969 9.492188 16.480469 11.570312 16.480469 C 13.644531 16.480469 15.335938 14.792969 15.335938 12.714844 L 15.335938 12.117188 L 15.214844 11.113281 C 15.214844 11.109375 15.214844 11.101562 15.214844 11.09375 C 15.164062 10.425781 14.871094 9.804688 14.390625 9.339844 C 14.386719 9.335938 14.382812 9.335938 14.382812 9.332031 L 13.898438 8.839844 C 13.277344 9.996094 12.070312 10.738281 10.71875 10.738281 Z M 8.753906 10.738281 "/><g clip-rule="nonzero" clip-path="url(#55ba044181)"><path style=" stroke:none;fill-rule:nonzero;fill:#571779;fill-opacity:1;" d="M 4.730469 27.195312 C 4.503906 27.195312 4.316406 27.011719 4.316406 26.78125 L 4.316406 22.601562 C 4.316406 22.375 4.503906 22.1875 4.730469 22.1875 C 4.960938 22.1875 5.144531 22.375 5.144531 22.601562 L 5.144531 26.78125 C 5.144531 27.011719 4.960938 27.195312 4.730469 27.195312 Z M 4.730469 27.195312 "/></g><g clip-rule="nonzero" clip-path="url(#c7f11dd569)"><path style=" stroke:none;fill-rule:nonzero;fill:#571779;fill-opacity:1;" d="M 18.410156 27.195312 C 18.179688 27.195312 17.996094 27.011719 17.996094 26.78125 L 17.996094 22.601562 C 17.996094 22.375 18.179688 22.1875 18.410156 22.1875 C 18.636719 22.1875 18.824219 22.375 18.824219 22.601562 L 18.824219 26.78125 C 18.824219 27.011719 18.636719 27.195312 18.410156 27.195312 Z M 18.410156 27.195312 "/></g><path style=" stroke:none;fill-rule:nonzero;fill:#571779;fill-opacity:1;" d="M 7.390625 12.101562 C 7.390625 12.101562 7.390625 12.101562 7.386719 12.101562 C 7.160156 12.101562 6.976562 11.914062 6.976562 11.683594 L 6.992188 9.332031 C 7.003906 7.160156 8.644531 5.359375 10.808594 5.144531 C 11.851562 5.042969 12.890625 5.328125 13.734375 5.953125 L 13.996094 6.144531 C 15.136719 6.21875 16.042969 7.167969 16.042969 8.328125 L 16.042969 11.066406 C 16.042969 11.292969 15.855469 11.480469 15.628906 11.480469 C 15.398438 11.480469 15.214844 11.292969 15.214844 11.066406 L 15.214844 8.328125 C 15.214844 7.578125 14.601562 6.96875 13.851562 6.96875 C 13.761719 6.96875 13.675781 6.9375 13.605469 6.886719 L 13.246094 6.621094 C 12.566406 6.117188 11.730469 5.886719 10.886719 5.96875 C 9.148438 6.140625 7.828125 7.589844 7.820312 9.339844 L 7.804688 11.691406 C 7.804688 11.917969 7.617188 12.101562 7.390625 12.101562 Z M 7.390625 12.101562 "/><path style=" stroke:none;fill-rule:nonzero;fill:#571779;fill-opacity:1;" d="M 25.746094 17.558594 L 18.742188 17.558594 C 18.511719 17.558594 18.328125 17.371094 18.328125 17.144531 L 18.328125 15.390625 C 18.328125 15.164062 18.511719 14.976562 18.742188 14.976562 L 25.746094 14.976562 C 25.976562 14.976562 26.160156 15.164062 26.160156 15.390625 L 26.160156 17.144531 C 26.160156 17.371094 25.976562 17.558594 25.746094 17.558594 Z M 19.15625 16.730469 L 25.332031 16.730469 L 25.332031 15.804688 L 19.15625 15.804688 Z M 19.15625 16.730469 "/><path style=" stroke:none;fill-rule:nonzero;fill:#571779;fill-opacity:1;" d="M 24.871094 15.804688 L 19.617188 15.804688 C 19.386719 15.804688 19.203125 15.621094 19.203125 15.390625 L 19.203125 13.640625 C 19.203125 13.410156 19.386719 13.226562 19.617188 13.226562 L 24.871094 13.226562 C 25.097656 13.226562 25.285156 13.410156 25.285156 13.640625 L 25.285156 15.390625 C 25.285156 15.621094 25.097656 15.804688 24.871094 15.804688 Z M 20.03125 14.976562 L 24.457031 14.976562 L 24.457031 14.054688 L 20.03125 14.054688 Z M 20.03125 14.976562 "/><path style=" stroke:none;fill-rule:nonzero;fill:#571779;fill-opacity:1;" d="M 20.382812 11.8125 C 20.269531 11.8125 20.160156 11.765625 20.078125 11.675781 L 17.121094 8.445312 C 17.046875 8.367188 17.007812 8.257812 17.011719 8.148438 C 17.019531 8.039062 17.066406 7.9375 17.148438 7.863281 L 18.441406 6.679688 C 18.609375 6.523438 18.871094 6.535156 19.023438 6.707031 L 21.980469 9.9375 C 22.054688 10.015625 22.09375 10.125 22.089844 10.234375 C 22.082031 10.34375 22.035156 10.445312 21.953125 10.519531 L 20.664062 11.703125 C 20.582031 11.777344 20.484375 11.8125 20.382812 11.8125 Z M 18.011719 8.191406 L 20.410156 10.8125 L 21.089844 10.191406 L 18.691406 7.570312 Z M 18.011719 8.191406 "/><g clip-rule="nonzero" clip-path="url(#98d9a8f916)"><path style=" stroke:none;fill-rule:nonzero;fill:#571779;fill-opacity:1;" d="M 25.550781 7.082031 C 25.546875 7.082031 25.539062 7.082031 25.535156 7.082031 C 25.421875 7.078125 25.320312 7.027344 25.246094 6.949219 L 22.289062 3.71875 C 22.214844 3.636719 22.175781 3.527344 22.183594 3.417969 C 22.1875 3.308594 22.234375 3.207031 22.316406 3.132812 L 23.609375 1.949219 C 23.777344 1.796875 24.039062 1.808594 24.195312 1.976562 L 27.148438 5.207031 C 27.304688 5.375 27.292969 5.636719 27.125 5.792969 L 25.832031 6.972656 C 25.753906 7.042969 25.65625 7.082031 25.550781 7.082031 Z M 23.179688 3.464844 L 25.578125 6.082031 L 26.257812 5.460938 L 23.863281 2.839844 Z M 23.179688 3.464844 "/></g><path style=" stroke:none;fill-rule:nonzero;fill:#571779;fill-opacity:1;" d="M 21.082031 9.984375 C 21.078125 9.984375 21.070312 9.984375 21.066406 9.984375 C 20.957031 9.976562 20.851562 9.929688 20.777344 9.847656 L 19.003906 7.910156 C 18.929688 7.828125 18.890625 7.722656 18.898438 7.613281 C 18.902344 7.503906 18.949219 7.398438 19.03125 7.324219 L 22.90625 3.777344 C 22.988281 3.703125 23.09375 3.664062 23.207031 3.671875 C 23.316406 3.675781 23.417969 3.722656 23.492188 3.804688 L 25.265625 5.742188 C 25.421875 5.910156 25.410156 6.171875 25.238281 6.328125 L 21.363281 9.875 C 21.285156 9.945312 21.1875 9.984375 21.082031 9.984375 Z M 19.894531 7.65625 L 21.109375 8.984375 L 24.375 5.996094 L 23.160156 4.667969 Z M 19.894531 7.65625 "/><path style=" stroke:none;fill-rule:nonzero;fill:#571779;fill-opacity:1;" d="M 21.25 6.273438 C 21.136719 6.273438 21.023438 6.226562 20.941406 6.136719 L 20.351562 5.492188 C 20.199219 5.320312 20.210938 5.058594 20.378906 4.90625 C 20.546875 4.75 20.808594 4.761719 20.960938 4.933594 L 21.554688 5.578125 C 21.707031 5.746094 21.695312 6.007812 21.527344 6.164062 C 21.449219 6.234375 21.347656 6.273438 21.25 6.273438 Z M 21.25 6.273438 "/><g clip-rule="nonzero" clip-path="url(#9d56dcb09b)"><path style=" stroke:none;fill-rule:nonzero;fill:#571779;fill-opacity:1;" d="M 26.863281 13.304688 C 26.84375 13.304688 26.824219 13.304688 26.808594 13.304688 C 26.476562 13.289062 26.167969 13.144531 25.945312 12.902344 L 22.070312 8.667969 C 21.917969 8.496094 21.929688 8.234375 22.097656 8.082031 L 23.390625 6.898438 C 23.558594 6.746094 23.820312 6.757812 23.972656 6.925781 L 27.847656 11.160156 C 28.3125 11.664062 28.277344 12.453125 27.769531 12.914062 L 27.699219 12.980469 C 27.46875 13.191406 27.175781 13.304688 26.863281 13.304688 Z M 27.492188 12.609375 Z M 22.960938 8.414062 L 26.558594 12.34375 C 26.632812 12.425781 26.734375 12.472656 26.84375 12.476562 C 26.953125 12.480469 27.058594 12.441406 27.140625 12.367188 L 27.210938 12.304688 C 27.378906 12.148438 27.390625 11.886719 27.238281 11.71875 L 23.640625 7.789062 Z M 22.960938 8.414062 "/></g><g clip-rule="nonzero" clip-path="url(#d35ee444e4)"><path style=" stroke:none;fill-rule:nonzero;fill:#571779;fill-opacity:1;" d="M 21.070312 27.195312 L 2.070312 27.195312 C 1.839844 27.195312 1.65625 27.011719 1.65625 26.78125 L 1.65625 21.878906 C 1.65625 20.746094 2.382812 19.761719 3.46875 19.4375 L 9.007812 17.699219 L 9.6875 16.46875 C 9.796875 16.265625 10.050781 16.195312 10.25 16.304688 C 10.449219 16.414062 10.523438 16.667969 10.414062 16.867188 L 9.652344 18.242188 C 9.601562 18.335938 9.515625 18.40625 9.414062 18.4375 L 3.714844 20.226562 C 3.714844 20.226562 3.710938 20.226562 3.710938 20.230469 C 2.976562 20.449219 2.484375 21.113281 2.484375 21.878906 L 2.484375 26.367188 L 20.65625 26.367188 L 20.65625 21.878906 C 20.65625 21.113281 20.164062 20.449219 19.429688 20.230469 C 19.429688 20.226562 19.425781 20.226562 19.425781 20.226562 L 13.726562 18.4375 C 13.625 18.40625 13.539062 18.335938 13.488281 18.242188 L 12.726562 16.867188 C 12.617188 16.667969 12.6875 16.414062 12.890625 16.304688 C 13.089844 16.195312 13.339844 16.265625 13.453125 16.46875 L 14.132812 17.699219 L 19.671875 19.4375 C 20.757812 19.761719 21.484375 20.746094 21.484375 21.878906 L 21.484375 26.78125 C 21.484375 27.011719 21.300781 27.195312 21.070312 27.195312 Z M 21.070312 27.195312 "/></g><g clip-rule="nonzero" clip-path="url(#5dea24a3f2)"><path style=" stroke:none;fill-rule:nonzero;fill:#571779;fill-opacity:1;" d="M 10.109375 27.195312 C 9.953125 27.195312 9.804688 27.105469 9.734375 26.960938 L 5.960938 19.152344 C 5.859375 18.945312 5.945312 18.699219 6.152344 18.597656 C 6.359375 18.5 6.605469 18.585938 6.707031 18.792969 L 9.902344 25.402344 L 10.402344 22.160156 C 10.4375 21.933594 10.648438 21.777344 10.875 21.8125 C 11.097656 21.847656 11.253906 22.058594 11.21875 22.285156 L 10.519531 26.84375 C 10.492188 27.023438 10.347656 27.164062 10.171875 27.191406 C 10.148438 27.195312 10.128906 27.195312 10.109375 27.195312 Z M 10.109375 27.195312 "/></g><g clip-rule="nonzero" clip-path="url(#b593dbe743)"><path style=" stroke:none;fill-rule:nonzero;fill:#571779;fill-opacity:1;" d="M 13.089844 27.195312 C 13.027344 27.195312 12.96875 27.183594 12.910156 27.15625 C 12.703125 27.054688 12.617188 26.808594 12.71875 26.601562 L 16.492188 18.792969 C 16.59375 18.585938 16.839844 18.5 17.046875 18.597656 C 17.253906 18.699219 17.339844 18.945312 17.238281 19.152344 L 13.460938 26.960938 C 13.390625 27.109375 13.242188 27.195312 13.089844 27.195312 Z M 13.089844 27.195312 "/></g><path style=" stroke:none;fill-rule:nonzero;fill:#571779;fill-opacity:1;" d="M 10.050781 21.699219 C 9.945312 21.699219 9.839844 21.660156 9.757812 21.578125 L 7.101562 18.933594 C 6.941406 18.769531 6.941406 18.507812 7.101562 18.347656 C 7.261719 18.183594 7.527344 18.183594 7.6875 18.34375 L 10.050781 20.703125 L 10.941406 19.808594 L 9.039062 18.375 C 8.859375 18.234375 8.820312 17.976562 8.960938 17.792969 C 9.097656 17.613281 9.359375 17.574219 9.539062 17.714844 L 11.820312 19.4375 C 11.914062 19.507812 11.976562 19.617188 11.984375 19.738281 C 11.992188 19.859375 11.949219 19.976562 11.863281 20.058594 L 10.34375 21.578125 C 10.261719 21.660156 10.15625 21.699219 10.050781 21.699219 Z M 10.050781 21.699219 "/><path style=" stroke:none;fill-rule:nonzero;fill:#571779;fill-opacity:1;" d="M 13.089844 21.699219 C 12.984375 21.699219 12.878906 21.660156 12.796875 21.578125 L 11.277344 20.058594 C 11.191406 19.976562 11.148438 19.859375 11.15625 19.738281 C 11.164062 19.617188 11.226562 19.507812 11.320312 19.4375 L 13.601562 17.714844 C 13.78125 17.574219 14.042969 17.613281 14.179688 17.792969 C 14.316406 17.976562 14.28125 18.234375 14.097656 18.375 L 12.199219 19.808594 L 13.089844 20.703125 L 15.453125 18.34375 C 15.613281 18.183594 15.875 18.183594 16.039062 18.347656 C 16.199219 18.507812 16.199219 18.769531 16.039062 18.933594 L 13.382812 21.578125 C 13.300781 21.660156 13.195312 21.699219 13.089844 21.699219 Z M 13.089844 21.699219 "/><g clip-rule="nonzero" clip-path="url(#a9e94dc1b9)"><path style=" stroke:none;fill-rule:nonzero;fill:#571779;fill-opacity:1;" d="M 13.03125 27.195312 C 12.828125 27.195312 12.652344 27.050781 12.621094 26.84375 L 11.921875 22.285156 C 11.886719 22.058594 12.039062 21.847656 12.265625 21.8125 C 12.492188 21.777344 12.703125 21.933594 12.738281 22.160156 L 13.441406 26.71875 C 13.476562 26.945312 13.320312 27.15625 13.09375 27.191406 C 13.074219 27.195312 13.050781 27.195312 13.03125 27.195312 Z M 13.03125 27.195312 "/></g><path style=" stroke:none;fill-rule:nonzero;fill:#571779;fill-opacity:1;" d="M 12.328125 22.636719 L 10.808594 22.636719 C 10.644531 22.636719 10.496094 22.539062 10.429688 22.386719 L 9.921875 21.195312 C 9.832031 20.984375 9.929688 20.742188 10.140625 20.652344 C 10.351562 20.5625 10.59375 20.660156 10.683594 20.871094 L 11.082031 21.808594 L 12.054688 21.808594 L 12.457031 20.871094 C 12.546875 20.660156 12.789062 20.5625 13 20.652344 C 13.210938 20.742188 13.308594 20.984375 13.21875 21.195312 L 12.710938 22.386719 C 12.644531 22.539062 12.496094 22.636719 12.328125 22.636719 Z M 12.328125 22.636719 "/><path style=" stroke:none;fill-rule:nonzero;fill:#571779;fill-opacity:1;" d="M 11.570312 17.308594 C 9.039062 17.308594 6.976562 15.25 6.976562 12.714844 L 6.976562 11.6875 C 6.976562 10.707031 7.773438 9.910156 8.753906 9.910156 L 10.71875 9.910156 C 11.929688 9.910156 12.992188 9.136719 13.363281 7.984375 C 13.410156 7.847656 13.523438 7.742188 13.664062 7.710938 C 13.804688 7.675781 13.953125 7.71875 14.054688 7.820312 L 14.96875 8.746094 C 15.59375 9.351562 15.972656 10.160156 16.039062 11.023438 L 16.160156 12.042969 C 16.164062 12.058594 16.164062 12.074219 16.164062 12.089844 L 16.164062 12.714844 C 16.164062 15.25 14.101562 17.308594 11.570312 17.308594 Z M 8.753906 10.738281 C 8.230469 10.738281 7.804688 11.164062 7.804688 11.6875 L 7.804688 12.714844 C 7.804688 14.792969 9.492188 16.480469 11.570312 16.480469 C 13.644531 16.480469 15.335938 14.792969 15.335938 12.714844 L 15.335938 12.117188 L 15.214844 11.113281 C 15.214844 11.109375 15.214844 11.101562 15.214844 11.09375 C 15.164062 10.425781 14.871094 9.804688 14.390625 9.339844 C 14.386719 9.335938 14.382812 9.335938 14.382812 9.332031 L 13.898438 8.839844 C 13.277344 9.996094 12.070312 10.738281 10.71875 10.738281 Z M 8.753906 10.738281 "/><g clip-rule="nonzero" clip-path="url(#ed1fa75136)"><path style=" stroke:none;fill-rule:nonzero;fill:#571779;fill-opacity:1;" d="M 4.730469 27.195312 C 4.503906 27.195312 4.316406 27.011719 4.316406 26.78125 L 4.316406 22.601562 C 4.316406 22.375 4.503906 22.1875 4.730469 22.1875 C 4.960938 22.1875 5.144531 22.375 5.144531 22.601562 L 5.144531 26.78125 C 5.144531 27.011719 4.960938 27.195312 4.730469 27.195312 Z M 4.730469 27.195312 "/></g><g clip-rule="nonzero" clip-path="url(#e9df67eaf4)"><path style=" stroke:none;fill-rule:nonzero;fill:#571779;fill-opacity:1;" d="M 18.410156 27.195312 C 18.179688 27.195312 17.996094 27.011719 17.996094 26.78125 L 17.996094 22.601562 C 17.996094 22.375 18.179688 22.1875 18.410156 22.1875 C 18.636719 22.1875 18.824219 22.375 18.824219 22.601562 L 18.824219 26.78125 C 18.824219 27.011719 18.636719 27.195312 18.410156 27.195312 Z M 18.410156 27.195312 "/></g><path style=" stroke:none;fill-rule:nonzero;fill:#571779;fill-opacity:1;" d="M 7.390625 12.101562 C 7.390625 12.101562 7.390625 12.101562 7.386719 12.101562 C 7.160156 12.101562 6.976562 11.914062 6.976562 11.683594 L 6.992188 9.332031 C 7.003906 7.160156 8.644531 5.359375 10.808594 5.144531 C 11.851562 5.042969 12.890625 5.328125 13.734375 5.953125 L 13.996094 6.144531 C 15.136719 6.21875 16.042969 7.167969 16.042969 8.328125 L 16.042969 11.066406 C 16.042969 11.292969 15.855469 11.480469 15.628906 11.480469 C 15.398438 11.480469 15.214844 11.292969 15.214844 11.066406 L 15.214844 8.328125 C 15.214844 7.578125 14.601562 6.96875 13.851562 6.96875 C 13.761719 6.96875 13.675781 6.9375 13.605469 6.886719 L 13.246094 6.621094 C 12.566406 6.117188 11.730469 5.886719 10.886719 5.96875 C 9.148438 6.140625 7.828125 7.589844 7.820312 9.339844 L 7.804688 11.691406 C 7.804688 11.917969 7.617188 12.101562 7.390625 12.101562 Z M 7.390625 12.101562 "/><path style=" stroke:none;fill-rule:nonzero;fill:#571779;fill-opacity:1;" d="M 25.746094 17.558594 L 18.742188 17.558594 C 18.511719 17.558594 18.328125 17.371094 18.328125 17.144531 L 18.328125 15.390625 C 18.328125 15.164062 18.511719 14.976562 18.742188 14.976562 L 25.746094 14.976562 C 25.976562 14.976562 26.160156 15.164062 26.160156 15.390625 L 26.160156 17.144531 C 26.160156 17.371094 25.976562 17.558594 25.746094 17.558594 Z M 19.15625 16.730469 L 25.332031 16.730469 L 25.332031 15.804688 L 19.15625 15.804688 Z M 19.15625 16.730469 "/><path style=" stroke:none;fill-rule:nonzero;fill:#571779;fill-opacity:1;" d="M 24.871094 15.804688 L 19.617188 15.804688 C 19.386719 15.804688 19.203125 15.621094 19.203125 15.390625 L 19.203125 13.640625 C 19.203125 13.410156 19.386719 13.226562 19.617188 13.226562 L 24.871094 13.226562 C 25.097656 13.226562 25.285156 13.410156 25.285156 13.640625 L 25.285156 15.390625 C 25.285156 15.621094 25.097656 15.804688 24.871094 15.804688 Z M 20.03125 14.976562 L 24.457031 14.976562 L 24.457031 14.054688 L 20.03125 14.054688 Z M 20.03125 14.976562 "/><path style=" stroke:none;fill-rule:nonzero;fill:#571779;fill-opacity:1;" d="M 20.382812 11.8125 C 20.269531 11.8125 20.160156 11.765625 20.078125 11.675781 L 17.121094 8.445312 C 17.046875 8.367188 17.007812 8.257812 17.011719 8.148438 C 17.019531 8.039062 17.066406 7.9375 17.148438 7.863281 L 18.441406 6.679688 C 18.609375 6.523438 18.871094 6.535156 19.023438 6.707031 L 21.980469 9.9375 C 22.054688 10.015625 22.09375 10.125 22.089844 10.234375 C 22.082031 10.34375 22.035156 10.445312 21.953125 10.519531 L 20.664062 11.703125 C 20.582031 11.777344 20.484375 11.8125 20.382812 11.8125 Z M 18.011719 8.191406 L 20.410156 10.8125 L 21.089844 10.191406 L 18.691406 7.570312 Z M 18.011719 8.191406 "/><g clip-rule="nonzero" clip-path="url(#f64cc1d7e5)"><path style=" stroke:none;fill-rule:nonzero;fill:#571779;fill-opacity:1;" d="M 25.550781 7.082031 C 25.546875 7.082031 25.539062 7.082031 25.535156 7.082031 C 25.421875 7.078125 25.320312 7.027344 25.246094 6.949219 L 22.289062 3.71875 C 22.214844 3.636719 22.175781 3.527344 22.183594 3.417969 C 22.1875 3.308594 22.234375 3.207031 22.316406 3.132812 L 23.609375 1.949219 C 23.777344 1.796875 24.039062 1.808594 24.195312 1.976562 L 27.148438 5.207031 C 27.304688 5.375 27.292969 5.636719 27.125 5.792969 L 25.832031 6.972656 C 25.753906 7.042969 25.65625 7.082031 25.550781 7.082031 Z M 23.179688 3.464844 L 25.578125 6.082031 L 26.257812 5.460938 L 23.863281 2.839844 Z M 23.179688 3.464844 "/></g><path style=" stroke:none;fill-rule:nonzero;fill:#571779;fill-opacity:1;" d="M 21.082031 9.984375 C 21.078125 9.984375 21.070312 9.984375 21.066406 9.984375 C 20.957031 9.976562 20.851562 9.929688 20.777344 9.847656 L 19.003906 7.910156 C 18.929688 7.828125 18.890625 7.722656 18.898438 7.613281 C 18.902344 7.503906 18.949219 7.398438 19.03125 7.324219 L 22.90625 3.777344 C 22.988281 3.703125 23.09375 3.664062 23.207031 3.671875 C 23.316406 3.675781 23.417969 3.722656 23.492188 3.804688 L 25.265625 5.742188 C 25.421875 5.910156 25.410156 6.171875 25.238281 6.328125 L 21.363281 9.875 C 21.285156 9.945312 21.1875 9.984375 21.082031 9.984375 Z M 19.894531 7.65625 L 21.109375 8.984375 L 24.375 5.996094 L 23.160156 4.667969 Z M 19.894531 7.65625 "/><path style=" stroke:none;fill-rule:nonzero;fill:#571779;fill-opacity:1;" d="M 21.25 6.273438 C 21.136719 6.273438 21.023438 6.226562 20.941406 6.136719 L 20.351562 5.492188 C 20.199219 5.320312 20.210938 5.058594 20.378906 4.90625 C 20.546875 4.75 20.808594 4.761719 20.960938 4.933594 L 21.554688 5.578125 C 21.707031 5.746094 21.695312 6.007812 21.527344 6.164062 C 21.449219 6.234375 21.347656 6.273438 21.25 6.273438 Z M 21.25 6.273438 "/><g clip-rule="nonzero" clip-path="url(#b684a3aeed)"><path style=" stroke:none;fill-rule:nonzero;fill:#571779;fill-opacity:1;" d="M 26.863281 13.304688 C 26.84375 13.304688 26.824219 13.304688 26.808594 13.304688 C 26.476562 13.289062 26.167969 13.144531 25.945312 12.902344 L 22.070312 8.667969 C 21.917969 8.496094 21.929688 8.234375 22.097656 8.082031 L 23.390625 6.898438 C 23.558594 6.746094 23.820312 6.757812 23.972656 6.925781 L 27.847656 11.160156 C 28.3125 11.664062 28.277344 12.453125 27.769531 12.914062 L 27.699219 12.980469 C 27.46875 13.191406 27.175781 13.304688 26.863281 13.304688 Z M 27.492188 12.609375 Z M 22.960938 8.414062 L 26.558594 12.34375 C 26.632812 12.425781 26.734375 12.472656 26.84375 12.476562 C 26.953125 12.480469 27.058594 12.441406 27.140625 12.367188 L 27.210938 12.304688 C 27.378906 12.148438 27.390625 11.886719 27.238281 11.71875 L 23.640625 7.789062 Z M 22.960938 8.414062 "/></g></g></svg>