<svg xmlns="http://www.w3.org/2000/svg" xmlns:xlink="http://www.w3.org/1999/xlink" width="40" zoomAndPan="magnify" viewBox="0 0 30 30.000001" height="40" preserveAspectRatio="xMidYMid meet" version="1.2"><defs><clipPath id="061b625b41"><path d="M 4.265625 7.195312 L 26 7.195312 L 26 21.710938 L 4.265625 21.710938 Z M 4.265625 7.195312 "/></clipPath></defs><g id="e2262591f6"><g clip-rule="nonzero" clip-path="url(#061b625b41)"><path style=" stroke:none;fill-rule:nonzero;fill:#571779;fill-opacity:1;" d="M 24 12.886719 L 9.625 12.886719 C 9.625 12.886719 12.65625 9.878906 12.734375 9.777344 C 12.941406 9.511719 13.066406 9.175781 13.066406 8.8125 C 13.066406 8.410156 12.914062 8.046875 12.667969 7.765625 L 12.539062 7.640625 C 12.261719 7.390625 11.894531 7.238281 11.496094 7.238281 C 11.082031 7.238281 10.707031 7.402344 10.425781 7.660156 C 10.425781 7.660156 4.625 13.453125 4.597656 13.492188 C 4.390625 13.757812 4.265625 14.089844 4.265625 14.449219 C 4.265625 14.8125 4.390625 15.144531 4.59375 15.410156 C 4.679688 15.515625 10.5 21.3125 10.5 21.3125 C 10.769531 21.53125 11.113281 21.660156 11.488281 21.660156 C 12.355469 21.660156 13.058594 20.957031 13.058594 20.089844 C 13.058594 19.707031 12.921875 19.359375 12.699219 19.085938 L 9.625 16.015625 L 24 16.015625 C 24.867188 16.015625 25.566406 15.3125 25.566406 14.449219 C 25.566406 13.585938 24.867188 12.886719 24 12.886719 "/><path style=" stroke:none;fill-rule:nonzero;fill:#571779;fill-opacity:1;" d="M 24 12.886719 L 9.625 12.886719 C 9.625 12.886719 12.65625 9.878906 12.734375 9.777344 C 12.941406 9.511719 13.066406 9.175781 13.066406 8.8125 C 13.066406 8.410156 12.914062 8.046875 12.667969 7.765625 L 12.539062 7.640625 C 12.261719 7.390625 11.894531 7.238281 11.496094 7.238281 C 11.082031 7.238281 10.707031 7.402344 10.425781 7.660156 C 10.425781 7.660156 4.625 13.453125 4.597656 13.492188 C 4.390625 13.757812 4.265625 14.089844 4.265625 14.449219 C 4.265625 14.8125 4.390625 15.144531 4.59375 15.410156 C 4.679688 15.515625 10.5 21.3125 10.5 21.3125 C 10.769531 21.53125 11.113281 21.660156 11.488281 21.660156 C 12.355469 21.660156 13.058594 20.957031 13.058594 20.089844 C 13.058594 19.707031 12.921875 19.359375 12.699219 19.085938 L 9.625 16.015625 L 24 16.015625 C 24.867188 16.015625 25.566406 15.3125 25.566406 14.449219 C 25.566406 13.585938 24.867188 12.886719 24 12.886719 "/></g></g></svg>