<svg xmlns="http://www.w3.org/2000/svg" xmlns:xlink="http://www.w3.org/1999/xlink" width="40" zoomAndPan="magnify" viewBox="0 0 30 30.000001" height="40" preserveAspectRatio="xMidYMid meet" version="1.2"><defs><clipPath id="a7efb045ee"><path d="M 3.386719 2.945312 L 26.613281 2.945312 L 26.613281 26 L 3.386719 26 Z M 3.386719 2.945312 "/></clipPath></defs><g id="236ee5b8de"><g clip-rule="nonzero" clip-path="url(#a7efb045ee)"><path style=" stroke:none;fill-rule:nonzero;fill:#5a2675;fill-opacity:1;" d="M 15 25.804688 C 14.554688 25.804688 14.113281 25.640625 13.765625 25.3125 L 11.371094 23.019531 L 8.4375 23.019531 C 5.65625 23.019531 3.390625 20.753906 3.390625 17.972656 L 3.390625 7.996094 C 3.386719 5.214844 5.652344 2.949219 8.433594 2.949219 L 21.5625 2.949219 C 24.34375 2.949219 26.609375 5.214844 26.609375 7.996094 L 26.609375 17.964844 C 26.609375 20.746094 24.34375 23.011719 21.5625 23.011719 L 18.625 23.011719 L 16.230469 25.304688 C 15.886719 25.636719 15.441406 25.796875 14.996094 25.796875 Z M 8.433594 4.882812 C 6.714844 4.882812 5.324219 6.28125 5.324219 7.996094 L 5.324219 17.964844 C 5.324219 19.683594 6.71875 21.078125 8.433594 21.078125 L 11.429688 21.078125 C 11.890625 21.078125 12.332031 21.25 12.664062 21.570312 L 14.996094 23.804688 L 17.328125 21.570312 C 17.660156 21.25 18.101562 21.078125 18.5625 21.078125 L 21.558594 21.078125 C 23.277344 21.078125 24.667969 19.679688 24.667969 17.964844 L 24.667969 7.996094 C 24.667969 6.277344 23.273438 4.882812 21.558594 4.882812 Z M 16.355469 9.582031 C 16.449219 7.625 13.550781 7.625 13.644531 9.582031 C 13.644531 9.582031 14.113281 14.714844 14.113281 14.714844 C 14.222656 15.78125 15.773438 15.789062 15.890625 14.714844 L 16.359375 9.582031 Z M 16.34375 17.824219 C 16.34375 17.082031 15.742188 16.480469 15 16.480469 C 14.257812 16.480469 13.65625 17.082031 13.65625 17.824219 C 13.65625 18.566406 14.257812 19.167969 15 19.167969 C 15.742188 19.167969 16.34375 18.566406 16.34375 17.824219 Z M 16.34375 17.824219 "/><path style=" stroke:none;fill-rule:nonzero;fill:#5a2675;fill-opacity:1;" d="M 15 25.804688 C 14.554688 25.804688 14.113281 25.640625 13.765625 25.3125 L 11.371094 23.019531 L 8.4375 23.019531 C 5.65625 23.019531 3.390625 20.753906 3.390625 17.972656 L 3.390625 7.996094 C 3.386719 5.214844 5.652344 2.949219 8.433594 2.949219 L 21.5625 2.949219 C 24.34375 2.949219 26.609375 5.214844 26.609375 7.996094 L 26.609375 17.964844 C 26.609375 20.746094 24.34375 23.011719 21.5625 23.011719 L 18.625 23.011719 L 16.230469 25.304688 C 15.886719 25.636719 15.441406 25.796875 14.996094 25.796875 Z M 8.433594 4.882812 C 6.714844 4.882812 5.324219 6.28125 5.324219 7.996094 L 5.324219 17.964844 C 5.324219 19.683594 6.71875 21.078125 8.433594 21.078125 L 11.429688 21.078125 C 11.890625 21.078125 12.332031 21.25 12.664062 21.570312 L 14.996094 23.804688 L 17.328125 21.570312 C 17.660156 21.25 18.101562 21.078125 18.5625 21.078125 L 21.558594 21.078125 C 23.277344 21.078125 24.667969 19.679688 24.667969 17.964844 L 24.667969 7.996094 C 24.667969 6.277344 23.273438 4.882812 21.558594 4.882812 Z M 16.355469 9.582031 C 16.449219 7.625 13.550781 7.625 13.644531 9.582031 C 13.644531 9.582031 14.113281 14.714844 14.113281 14.714844 C 14.222656 15.78125 15.773438 15.789062 15.890625 14.714844 L 16.359375 9.582031 Z M 16.34375 17.824219 C 16.34375 17.082031 15.742188 16.480469 15 16.480469 C 14.257812 16.480469 13.65625 17.082031 13.65625 17.824219 C 13.65625 18.566406 14.257812 19.167969 15 19.167969 C 15.742188 19.167969 16.34375 18.566406 16.34375 17.824219 Z M 16.34375 17.824219 "/></g></g></svg>