<svg xmlns="http://www.w3.org/2000/svg" xmlns:xlink="http://www.w3.org/1999/xlink" width="40" zoomAndPan="magnify" viewBox="0 0 30 30.000001" height="40" preserveAspectRatio="xMidYMid meet" version="1.2"><defs><clipPath id="d22dfad058"><path d="M 2.878906 4.210938 L 26.785156 4.210938 L 26.785156 24.53125 L 2.878906 24.53125 Z M 2.878906 4.210938 "/></clipPath></defs><g id="2f0e8706eb"><g clip-rule="nonzero" clip-path="url(#d22dfad058)"><path style=" stroke:none;fill-rule:evenodd;fill:#ffffff;fill-opacity:1;" d="M 14.171875 19.878906 L 16.023438 19.878906 C 16.226562 19.878906 16.390625 20.039062 16.390625 20.242188 L 16.390625 21.703125 C 16.390625 21.90625 16.226562 22.070312 16.023438 22.070312 L 14.171875 22.070312 C 13.96875 22.070312 13.804688 21.90625 13.804688 21.703125 L 13.804688 20.242188 C 13.804688 20.039062 13.96875 19.878906 14.171875 19.878906 Z M 9.808594 19.878906 L 11.664062 19.878906 C 11.867188 19.878906 12.03125 20.039062 12.03125 20.242188 L 12.03125 21.703125 C 12.03125 21.90625 11.867188 22.070312 11.664062 22.070312 L 9.808594 22.070312 C 9.609375 22.070312 9.445312 21.90625 9.445312 21.703125 L 9.445312 20.242188 C 9.445312 20.039062 9.609375 19.878906 9.808594 19.878906 Z M 5.449219 19.878906 L 7.304688 19.878906 C 7.507812 19.878906 7.671875 20.039062 7.671875 20.242188 L 7.671875 21.703125 C 7.671875 21.90625 7.507812 22.070312 7.304688 22.070312 L 5.449219 22.070312 C 5.25 22.070312 5.085938 21.90625 5.085938 21.703125 L 5.085938 20.242188 C 5.085938 20.039062 5.25 19.878906 5.449219 19.878906 Z M 22.085938 17.046875 C 21.832031 17.046875 21.625 17.25 21.625 17.503906 L 21.625 20.195312 C 21.625 20.386719 21.742188 20.550781 21.90625 20.617188 C 21.960938 20.640625 22.019531 20.65625 22.085938 20.65625 L 24.484375 20.65625 C 24.738281 20.65625 24.941406 20.449219 24.941406 20.195312 C 24.941406 19.941406 24.738281 19.738281 24.484375 19.738281 L 22.542969 19.738281 L 22.542969 17.503906 C 22.542969 17.25 22.339844 17.046875 22.085938 17.046875 Z M 14.171875 15.921875 L 16.023438 15.921875 C 16.226562 15.921875 16.390625 16.082031 16.390625 16.285156 L 16.390625 17.746094 C 16.390625 17.949219 16.226562 18.113281 16.023438 18.113281 L 14.171875 18.113281 C 13.96875 18.113281 13.804688 17.949219 13.804688 17.746094 L 13.804688 16.285156 C 13.804688 16.082031 13.96875 15.921875 14.171875 15.921875 Z M 9.808594 15.921875 L 11.664062 15.921875 C 11.867188 15.921875 12.03125 16.082031 12.03125 16.285156 L 12.03125 17.746094 C 12.03125 17.949219 11.867188 18.113281 11.664062 18.113281 L 9.808594 18.113281 C 9.609375 18.113281 9.445312 17.949219 9.445312 17.746094 L 9.445312 16.285156 C 9.445312 16.082031 9.609375 15.921875 9.808594 15.921875 Z M 5.449219 15.921875 L 7.304688 15.921875 C 7.507812 15.921875 7.671875 16.082031 7.671875 16.285156 L 7.671875 17.746094 C 7.671875 17.949219 7.507812 18.113281 7.304688 18.113281 L 5.449219 18.113281 C 5.25 18.113281 5.085938 17.949219 5.085938 17.746094 L 5.085938 16.285156 C 5.085938 16.082031 5.25 15.921875 5.449219 15.921875 Z M 22.234375 15.433594 C 24.746094 15.433594 26.785156 17.46875 26.785156 19.984375 C 26.785156 22.496094 24.746094 24.53125 22.234375 24.53125 C 19.722656 24.53125 17.6875 22.496094 17.6875 19.984375 C 17.6875 17.46875 19.722656 15.433594 22.234375 15.433594 Z M 18.53125 11.964844 L 20.382812 11.964844 C 20.585938 11.964844 20.75 12.125 20.75 12.328125 L 20.75 13.789062 C 20.75 13.992188 20.585938 14.15625 20.382812 14.15625 L 18.53125 14.15625 C 18.328125 14.15625 18.164062 13.992188 18.164062 13.789062 L 18.164062 12.328125 C 18.164062 12.125 18.328125 11.964844 18.53125 11.964844 Z M 14.171875 11.964844 L 16.023438 11.964844 C 16.226562 11.964844 16.390625 12.125 16.390625 12.328125 L 16.390625 13.789062 C 16.390625 13.992188 16.226562 14.15625 16.023438 14.15625 L 14.171875 14.15625 C 13.96875 14.15625 13.804688 13.992188 13.804688 13.789062 L 13.804688 12.328125 C 13.804688 12.125 13.96875 11.964844 14.171875 11.964844 Z M 9.808594 11.964844 L 11.664062 11.964844 C 11.867188 11.964844 12.03125 12.125 12.03125 12.328125 L 12.03125 13.789062 C 12.03125 13.992188 11.867188 14.15625 11.664062 14.15625 L 9.808594 14.15625 C 9.609375 14.15625 9.445312 13.992188 9.445312 13.789062 L 9.445312 12.328125 C 9.445312 12.125 9.609375 11.964844 9.808594 11.964844 Z M 5.449219 11.964844 L 7.304688 11.964844 C 7.507812 11.964844 7.671875 12.125 7.671875 12.328125 L 7.671875 13.789062 C 7.671875 13.992188 7.507812 14.15625 7.304688 14.15625 L 5.449219 14.15625 C 5.25 14.15625 5.085938 13.992188 5.085938 13.789062 L 5.085938 12.328125 C 5.085938 12.125 5.25 11.964844 5.449219 11.964844 Z M 6.417969 4.210938 L 7.066406 4.210938 C 7.414062 4.210938 7.699219 4.492188 7.699219 4.839844 L 7.699219 6.234375 L 18.136719 6.234375 L 18.136719 4.839844 C 18.136719 4.492188 18.417969 4.210938 18.769531 4.210938 L 19.417969 4.210938 C 19.765625 4.210938 20.046875 4.492188 20.046875 4.839844 L 20.046875 6.234375 L 21.597656 6.234375 C 22.347656 6.234375 22.957031 6.84375 22.957031 7.59375 L 22.957031 14.5625 L 22.796875 14.539062 C 22.609375 14.519531 22.425781 14.511719 22.234375 14.511719 L 22.027344 14.523438 L 22.027344 10.691406 L 3.808594 10.691406 L 3.808594 22.261719 C 3.808594 22.855469 4.289062 23.339844 4.886719 23.339844 L 17.921875 23.339844 L 18.015625 23.464844 C 18.238281 23.734375 18.484375 23.980469 18.757812 24.203125 L 18.800781 24.238281 L 4.234375 24.238281 C 3.484375 24.238281 2.878906 23.628906 2.878906 22.878906 L 2.878906 7.59375 C 2.878906 6.84375 3.484375 6.234375 4.234375 6.234375 L 5.789062 6.234375 L 5.789062 4.839844 C 5.789062 4.492188 6.070312 4.210938 6.417969 4.210938 Z M 6.417969 4.210938 "/><path style=" stroke:none;fill-rule:evenodd;fill:#ffffff;fill-opacity:1;" d="M 14.171875 19.878906 L 16.023438 19.878906 C 16.226562 19.878906 16.390625 20.039062 16.390625 20.242188 L 16.390625 21.703125 C 16.390625 21.90625 16.226562 22.070312 16.023438 22.070312 L 14.171875 22.070312 C 13.96875 22.070312 13.804688 21.90625 13.804688 21.703125 L 13.804688 20.242188 C 13.804688 20.039062 13.96875 19.878906 14.171875 19.878906 Z M 9.808594 19.878906 L 11.664062 19.878906 C 11.867188 19.878906 12.03125 20.039062 12.03125 20.242188 L 12.03125 21.703125 C 12.03125 21.90625 11.867188 22.070312 11.664062 22.070312 L 9.808594 22.070312 C 9.609375 22.070312 9.445312 21.90625 9.445312 21.703125 L 9.445312 20.242188 C 9.445312 20.039062 9.609375 19.878906 9.808594 19.878906 Z M 5.449219 19.878906 L 7.304688 19.878906 C 7.507812 19.878906 7.671875 20.039062 7.671875 20.242188 L 7.671875 21.703125 C 7.671875 21.90625 7.507812 22.070312 7.304688 22.070312 L 5.449219 22.070312 C 5.25 22.070312 5.085938 21.90625 5.085938 21.703125 L 5.085938 20.242188 C 5.085938 20.039062 5.25 19.878906 5.449219 19.878906 Z M 22.085938 17.046875 C 21.832031 17.046875 21.625 17.25 21.625 17.503906 L 21.625 20.195312 C 21.625 20.386719 21.742188 20.550781 21.90625 20.617188 C 21.960938 20.640625 22.019531 20.65625 22.085938 20.65625 L 24.484375 20.65625 C 24.738281 20.65625 24.941406 20.449219 24.941406 20.195312 C 24.941406 19.941406 24.738281 19.738281 24.484375 19.738281 L 22.542969 19.738281 L 22.542969 17.503906 C 22.542969 17.25 22.339844 17.046875 22.085938 17.046875 Z M 14.171875 15.921875 L 16.023438 15.921875 C 16.226562 15.921875 16.390625 16.082031 16.390625 16.285156 L 16.390625 17.746094 C 16.390625 17.949219 16.226562 18.113281 16.023438 18.113281 L 14.171875 18.113281 C 13.96875 18.113281 13.804688 17.949219 13.804688 17.746094 L 13.804688 16.285156 C 13.804688 16.082031 13.96875 15.921875 14.171875 15.921875 Z M 9.808594 15.921875 L 11.664062 15.921875 C 11.867188 15.921875 12.03125 16.082031 12.03125 16.285156 L 12.03125 17.746094 C 12.03125 17.949219 11.867188 18.113281 11.664062 18.113281 L 9.808594 18.113281 C 9.609375 18.113281 9.445312 17.949219 9.445312 17.746094 L 9.445312 16.285156 C 9.445312 16.082031 9.609375 15.921875 9.808594 15.921875 Z M 5.449219 15.921875 L 7.304688 15.921875 C 7.507812 15.921875 7.671875 16.082031 7.671875 16.285156 L 7.671875 17.746094 C 7.671875 17.949219 7.507812 18.113281 7.304688 18.113281 L 5.449219 18.113281 C 5.25 18.113281 5.085938 17.949219 5.085938 17.746094 L 5.085938 16.285156 C 5.085938 16.082031 5.25 15.921875 5.449219 15.921875 Z M 22.234375 15.433594 C 24.746094 15.433594 26.785156 17.46875 26.785156 19.984375 C 26.785156 22.496094 24.746094 24.53125 22.234375 24.53125 C 19.722656 24.53125 17.6875 22.496094 17.6875 19.984375 C 17.6875 17.46875 19.722656 15.433594 22.234375 15.433594 Z M 18.53125 11.964844 L 20.382812 11.964844 C 20.585938 11.964844 20.75 12.125 20.75 12.328125 L 20.75 13.789062 C 20.75 13.992188 20.585938 14.15625 20.382812 14.15625 L 18.53125 14.15625 C 18.328125 14.15625 18.164062 13.992188 18.164062 13.789062 L 18.164062 12.328125 C 18.164062 12.125 18.328125 11.964844 18.53125 11.964844 Z M 14.171875 11.964844 L 16.023438 11.964844 C 16.226562 11.964844 16.390625 12.125 16.390625 12.328125 L 16.390625 13.789062 C 16.390625 13.992188 16.226562 14.15625 16.023438 14.15625 L 14.171875 14.15625 C 13.96875 14.15625 13.804688 13.992188 13.804688 13.789062 L 13.804688 12.328125 C 13.804688 12.125 13.96875 11.964844 14.171875 11.964844 Z M 9.808594 11.964844 L 11.664062 11.964844 C 11.867188 11.964844 12.03125 12.125 12.03125 12.328125 L 12.03125 13.789062 C 12.03125 13.992188 11.867188 14.15625 11.664062 14.15625 L 9.808594 14.15625 C 9.609375 14.15625 9.445312 13.992188 9.445312 13.789062 L 9.445312 12.328125 C 9.445312 12.125 9.609375 11.964844 9.808594 11.964844 Z M 5.449219 11.964844 L 7.304688 11.964844 C 7.507812 11.964844 7.671875 12.125 7.671875 12.328125 L 7.671875 13.789062 C 7.671875 13.992188 7.507812 14.15625 7.304688 14.15625 L 5.449219 14.15625 C 5.25 14.15625 5.085938 13.992188 5.085938 13.789062 L 5.085938 12.328125 C 5.085938 12.125 5.25 11.964844 5.449219 11.964844 Z M 6.417969 4.210938 L 7.066406 4.210938 C 7.414062 4.210938 7.699219 4.492188 7.699219 4.839844 L 7.699219 6.234375 L 18.136719 6.234375 L 18.136719 4.839844 C 18.136719 4.492188 18.417969 4.210938 18.769531 4.210938 L 19.417969 4.210938 C 19.765625 4.210938 20.046875 4.492188 20.046875 4.839844 L 20.046875 6.234375 L 21.597656 6.234375 C 22.347656 6.234375 22.957031 6.84375 22.957031 7.59375 L 22.957031 14.5625 L 22.796875 14.539062 C 22.609375 14.519531 22.425781 14.511719 22.234375 14.511719 L 22.027344 14.523438 L 22.027344 10.691406 L 3.808594 10.691406 L 3.808594 22.261719 C 3.808594 22.855469 4.289062 23.339844 4.886719 23.339844 L 17.921875 23.339844 L 18.015625 23.464844 C 18.238281 23.734375 18.484375 23.980469 18.757812 24.203125 L 18.800781 24.238281 L 4.234375 24.238281 C 3.484375 24.238281 2.878906 23.628906 2.878906 22.878906 L 2.878906 7.59375 C 2.878906 6.84375 3.484375 6.234375 4.234375 6.234375 L 5.789062 6.234375 L 5.789062 4.839844 C 5.789062 4.492188 6.070312 4.210938 6.417969 4.210938 Z M 6.417969 4.210938 "/></g></g></svg>