<svg xmlns="http://www.w3.org/2000/svg" xmlns:xlink="http://www.w3.org/1999/xlink" width="40" zoomAndPan="magnify" viewBox="0 0 30 30.000001" height="40" preserveAspectRatio="xMidYMid meet" version="1.2"><defs><clipPath id="b097c97e72"><path d="M 3.097656 2.613281 L 27 2.613281 L 27 26.566406 L 3.097656 26.566406 Z M 3.097656 2.613281 "/></clipPath></defs><g id="5c61ea8ece"><g clip-rule="nonzero" clip-path="url(#b097c97e72)"><path style=" stroke:none;fill-rule:nonzero;fill:#571779;fill-opacity:1;" d="M 26.890625 14.511719 C 26.890625 21.070312 21.554688 26.40625 14.996094 26.40625 C 14.792969 26.40625 14.59375 26.402344 14.398438 26.394531 C 13.800781 26.359375 13.34375 25.851562 13.375 25.253906 C 13.40625 24.660156 13.917969 24.199219 14.511719 24.230469 C 14.671875 24.242188 14.832031 24.246094 14.996094 24.246094 C 20.363281 24.246094 24.730469 19.878906 24.730469 14.511719 C 24.730469 9.144531 20.363281 4.777344 14.996094 4.777344 C 9.628906 4.777344 5.261719 9.144531 5.261719 14.511719 C 5.261719 14.675781 5.265625 14.835938 5.273438 14.996094 C 5.304688 15.59375 4.84375 16.101562 4.246094 16.132812 C 4.230469 16.132812 4.210938 16.132812 4.191406 16.132812 C 3.621094 16.132812 3.140625 15.683594 3.113281 15.105469 C 3.101562 14.910156 3.097656 14.710938 3.097656 14.511719 C 3.097656 7.953125 8.433594 2.613281 14.996094 2.613281 C 21.554688 2.613281 26.890625 7.953125 26.890625 14.511719 Z M 6.179688 22.503906 C 6.441406 22.789062 6.714844 23.0625 7.003906 23.324219 C 7.210938 23.511719 7.472656 23.605469 7.730469 23.605469 C 8.023438 23.605469 8.320312 23.484375 8.53125 23.25 C 8.933594 22.808594 8.898438 22.125 8.457031 21.722656 C 8.222656 21.507812 7.996094 21.28125 7.78125 21.046875 C 7.378906 20.605469 6.695312 20.574219 6.253906 20.972656 C 5.8125 21.375 5.78125 22.058594 6.179688 22.503906 Z M 5.828125 17.796875 C 5.628906 17.234375 5.007812 16.941406 4.445312 17.144531 C 3.882812 17.347656 3.59375 17.96875 3.792969 18.527344 C 3.925781 18.894531 4.074219 19.253906 4.242188 19.605469 C 4.425781 19.996094 4.816406 20.222656 5.21875 20.222656 C 5.375 20.222656 5.53125 20.1875 5.683594 20.117188 C 6.222656 19.863281 6.453125 19.214844 6.195312 18.675781 C 6.058594 18.390625 5.9375 18.097656 5.828125 17.796875 Z M 10.976562 25.710938 C 11.097656 25.753906 11.21875 25.773438 11.34375 25.773438 C 11.785156 25.773438 12.199219 25.5 12.359375 25.058594 C 12.5625 24.5 12.269531 23.878906 11.707031 23.675781 C 11.40625 23.566406 11.113281 23.445312 10.824219 23.308594 C 10.285156 23.050781 9.640625 23.285156 9.382812 23.828125 C 9.128906 24.367188 9.363281 25.011719 9.902344 25.265625 C 10.25 25.429688 10.609375 25.578125 10.976562 25.710938 Z M 14.996094 6.941406 C 14.398438 6.941406 13.914062 7.425781 13.914062 8.023438 L 13.914062 14.511719 C 13.914062 14.921875 14.144531 15.292969 14.511719 15.480469 L 18.835938 17.640625 C 18.992188 17.71875 19.15625 17.753906 19.320312 17.753906 C 19.71875 17.753906 20.097656 17.535156 20.289062 17.15625 C 20.554688 16.625 20.339844 15.972656 19.804688 15.707031 L 16.078125 13.84375 L 16.078125 8.023438 C 16.078125 7.425781 15.59375 6.941406 14.996094 6.941406 Z M 14.996094 6.941406 "/><path style=" stroke:none;fill-rule:nonzero;fill:#571779;fill-opacity:1;" d="M 26.890625 14.511719 C 26.890625 21.070312 21.554688 26.40625 14.996094 26.40625 C 14.792969 26.40625 14.59375 26.402344 14.398438 26.394531 C 13.800781 26.359375 13.34375 25.851562 13.375 25.253906 C 13.40625 24.660156 13.917969 24.199219 14.511719 24.230469 C 14.671875 24.242188 14.832031 24.246094 14.996094 24.246094 C 20.363281 24.246094 24.730469 19.878906 24.730469 14.511719 C 24.730469 9.144531 20.363281 4.777344 14.996094 4.777344 C 9.628906 4.777344 5.261719 9.144531 5.261719 14.511719 C 5.261719 14.675781 5.265625 14.835938 5.273438 14.996094 C 5.304688 15.59375 4.84375 16.101562 4.246094 16.132812 C 4.230469 16.132812 4.210938 16.132812 4.191406 16.132812 C 3.621094 16.132812 3.140625 15.683594 3.113281 15.105469 C 3.101562 14.910156 3.097656 14.710938 3.097656 14.511719 C 3.097656 7.953125 8.433594 2.613281 14.996094 2.613281 C 21.554688 2.613281 26.890625 7.953125 26.890625 14.511719 Z M 6.179688 22.503906 C 6.441406 22.789062 6.714844 23.0625 7.003906 23.324219 C 7.210938 23.511719 7.472656 23.605469 7.730469 23.605469 C 8.023438 23.605469 8.320312 23.484375 8.53125 23.25 C 8.933594 22.808594 8.898438 22.125 8.457031 21.722656 C 8.222656 21.507812 7.996094 21.28125 7.78125 21.046875 C 7.378906 20.605469 6.695312 20.574219 6.253906 20.972656 C 5.8125 21.375 5.78125 22.058594 6.179688 22.503906 Z M 5.828125 17.796875 C 5.628906 17.234375 5.007812 16.941406 4.445312 17.144531 C 3.882812 17.347656 3.59375 17.96875 3.792969 18.527344 C 3.925781 18.894531 4.074219 19.253906 4.242188 19.605469 C 4.425781 19.996094 4.816406 20.222656 5.21875 20.222656 C 5.375 20.222656 5.53125 20.1875 5.683594 20.117188 C 6.222656 19.863281 6.453125 19.214844 6.195312 18.675781 C 6.058594 18.390625 5.9375 18.097656 5.828125 17.796875 Z M 10.976562 25.710938 C 11.097656 25.753906 11.21875 25.773438 11.34375 25.773438 C 11.785156 25.773438 12.199219 25.5 12.359375 25.058594 C 12.5625 24.5 12.269531 23.878906 11.707031 23.675781 C 11.40625 23.566406 11.113281 23.445312 10.824219 23.308594 C 10.285156 23.050781 9.640625 23.285156 9.382812 23.828125 C 9.128906 24.367188 9.363281 25.011719 9.902344 25.265625 C 10.25 25.429688 10.609375 25.578125 10.976562 25.710938 Z M 14.996094 6.941406 C 14.398438 6.941406 13.914062 7.425781 13.914062 8.023438 L 13.914062 14.511719 C 13.914062 14.921875 14.144531 15.292969 14.511719 15.480469 L 18.835938 17.640625 C 18.992188 17.71875 19.15625 17.753906 19.320312 17.753906 C 19.71875 17.753906 20.097656 17.535156 20.289062 17.15625 C 20.554688 16.625 20.339844 15.972656 19.804688 15.707031 L 16.078125 13.84375 L 16.078125 8.023438 C 16.078125 7.425781 15.59375 6.941406 14.996094 6.941406 Z M 14.996094 6.941406 "/></g></g></svg>