<svg xmlns="http://www.w3.org/2000/svg" xmlns:xlink="http://www.w3.org/1999/xlink" width="40" zoomAndPan="magnify" viewBox="0 0 30 30.000001" height="40" preserveAspectRatio="xMidYMid meet" version="1.2"><defs><clipPath id="610578f6d5"><path d="M 3.386719 5.023438 L 26.613281 5.023438 L 26.613281 23.894531 L 3.386719 23.894531 Z M 3.386719 5.023438 "/></clipPath><clipPath id="ccde6a335a"><path d="M 3.386719 5.023438 L 26.613281 5.023438 L 26.613281 23.894531 L 3.386719 23.894531 Z M 3.386719 5.023438 "/></clipPath></defs><g id="dc836c1380"><path style=" stroke:none;fill-rule:nonzero;fill:#5a2675;fill-opacity:1;" d="M 13.972656 16.195312 C 12.675781 16.195312 11.617188 15.140625 11.617188 13.84375 C 11.617188 12.546875 12.675781 11.492188 13.972656 11.492188 C 15.269531 11.492188 16.324219 12.546875 16.324219 13.84375 C 16.324219 15.144531 15.269531 16.195312 13.972656 16.195312 Z M 13.972656 12.320312 C 13.128906 12.320312 12.445312 13.003906 12.445312 13.84375 C 12.445312 14.6875 13.128906 15.371094 13.972656 15.371094 C 14.8125 15.371094 15.496094 14.6875 15.496094 13.84375 C 15.496094 13.003906 14.8125 12.320312 13.972656 12.320312 Z M 13.972656 12.320312 "/><path style=" stroke:none;fill-rule:nonzero;fill:#5a2675;fill-opacity:1;" d="M 17.585938 20.230469 L 10.359375 20.230469 C 10.128906 20.230469 9.945312 20.046875 9.945312 19.816406 L 9.945312 18.949219 C 9.945312 17.714844 10.949219 16.710938 12.183594 16.710938 L 15.757812 16.710938 C 16.992188 16.710938 17.996094 17.714844 17.996094 18.949219 L 17.996094 19.816406 C 17.996094 20.046875 17.8125 20.230469 17.585938 20.230469 Z M 10.769531 19.402344 L 17.171875 19.402344 L 17.171875 18.945312 C 17.171875 18.167969 16.539062 17.53125 15.757812 17.53125 L 12.183594 17.53125 C 11.402344 17.53125 10.769531 18.167969 10.769531 18.945312 Z M 10.769531 19.402344 "/><g clip-rule="nonzero" clip-path="url(#610578f6d5)"><path style=" stroke:none;fill-rule:nonzero;fill:#5a2675;fill-opacity:1;" d="M 26.46875 8.722656 C 26.46875 6.683594 24.269531 5.023438 21.566406 5.023438 C 18.863281 5.023438 16.664062 6.683594 16.664062 8.722656 C 16.664062 9.125 16.753906 9.515625 16.914062 9.886719 L 5.539062 9.886719 C 5.027344 9.886719 4.609375 10.332031 4.609375 10.882812 L 4.609375 20.746094 L 4.289062 20.746094 C 3.792969 20.746094 3.394531 21.125 3.394531 21.59375 C 3.394531 22.863281 4.515625 23.898438 5.898438 23.898438 L 21.984375 23.898438 C 23.367188 23.898438 24.488281 22.863281 24.488281 21.59375 C 24.488281 21.125 24.085938 20.746094 23.59375 20.746094 L 23.273438 20.746094 L 23.273438 12.191406 C 25.136719 11.664062 26.46875 10.3125 26.46875 8.722656 Z M 21.566406 5.847656 C 23.8125 5.847656 25.644531 7.136719 25.644531 8.726562 C 25.644531 10.3125 23.816406 11.601562 21.566406 11.601562 C 21.085938 11.601562 20.617188 11.542969 20.171875 11.425781 C 19.964844 11.375 19.816406 11.472656 19.648438 11.585938 C 19.414062 11.746094 18.984375 12.035156 18.242188 12.230469 C 18.574219 11.582031 18.738281 10.828125 18.390625 10.523438 C 17.800781 10.007812 17.488281 9.386719 17.488281 8.726562 C 17.492188 7.136719 19.320312 5.847656 21.566406 5.847656 Z M 23.59375 21.570312 C 23.636719 21.570312 23.660156 21.59375 23.664062 21.59375 C 23.664062 22.410156 22.910156 23.074219 21.984375 23.074219 L 5.898438 23.074219 C 4.972656 23.074219 4.21875 22.410156 4.214844 21.601562 C 4.21875 21.59375 4.246094 21.570312 4.289062 21.570312 L 10.695312 21.570312 C 10.976562 21.746094 11.398438 21.960938 11.796875 21.960938 L 16.085938 21.960938 C 16.546875 21.960938 16.972656 21.816406 17.226562 21.582031 Z M 22.449219 20.746094 L 17.226562 20.757812 C 17.027344 20.757812 16.839844 20.828125 16.703125 20.953125 C 16.609375 21.035156 16.390625 21.132812 16.085938 21.132812 L 11.796875 21.132812 C 11.644531 21.132812 11.390625 21.03125 11.136719 20.871094 C 11.007812 20.789062 10.859375 20.746094 10.710938 20.746094 L 5.433594 20.746094 L 5.433594 10.882812 C 5.433594 10.777344 5.496094 10.710938 5.539062 10.710938 L 17.429688 10.710938 C 17.535156 10.835938 17.644531 10.957031 17.765625 11.070312 C 17.753906 11.289062 17.578125 11.898438 17.171875 12.371094 C 17.035156 12.527344 17.011719 12.75 17.109375 12.929688 C 17.195312 13.097656 17.367188 13.195312 17.550781 13.195312 C 17.574219 13.195312 17.597656 13.191406 17.617188 13.191406 C 19.019531 13.007812 19.785156 12.492188 20.113281 12.269531 C 20.113281 12.269531 20.117188 12.265625 20.121094 12.265625 C 20.589844 12.371094 21.074219 12.425781 21.566406 12.425781 C 21.871094 12.425781 22.164062 12.402344 22.449219 12.363281 Z M 22.449219 20.746094 "/></g><path style=" stroke:none;fill-rule:nonzero;fill:#5a2675;fill-opacity:1;" d="M 21.292969 8.324219 L 19.21875 8.324219 C 18.992188 8.324219 18.808594 8.140625 18.808594 7.910156 C 18.808594 7.683594 18.992188 7.5 19.21875 7.5 L 21.292969 7.5 C 21.519531 7.5 21.703125 7.683594 21.703125 7.910156 C 21.703125 8.140625 21.519531 8.324219 21.292969 8.324219 Z M 21.292969 8.324219 "/><path style=" stroke:none;fill-rule:nonzero;fill:#5a2675;fill-opacity:1;" d="M 23.777344 9.875 L 19.21875 9.875 C 18.992188 9.875 18.808594 9.691406 18.808594 9.460938 C 18.808594 9.234375 18.992188 9.050781 19.21875 9.050781 L 23.777344 9.050781 C 24.003906 9.050781 24.191406 9.234375 24.191406 9.460938 C 24.191406 9.691406 24.003906 9.875 23.777344 9.875 Z M 23.777344 9.875 "/><path style=" stroke:none;fill-rule:nonzero;fill:#5a2675;fill-opacity:1;" d="M 13.972656 16.195312 C 12.675781 16.195312 11.617188 15.140625 11.617188 13.84375 C 11.617188 12.546875 12.675781 11.492188 13.972656 11.492188 C 15.269531 11.492188 16.324219 12.546875 16.324219 13.84375 C 16.324219 15.144531 15.269531 16.195312 13.972656 16.195312 Z M 13.972656 12.320312 C 13.128906 12.320312 12.445312 13.003906 12.445312 13.84375 C 12.445312 14.6875 13.128906 15.371094 13.972656 15.371094 C 14.8125 15.371094 15.496094 14.6875 15.496094 13.84375 C 15.496094 13.003906 14.8125 12.320312 13.972656 12.320312 Z M 13.972656 12.320312 "/><path style=" stroke:none;fill-rule:nonzero;fill:#5a2675;fill-opacity:1;" d="M 17.585938 20.230469 L 10.359375 20.230469 C 10.128906 20.230469 9.945312 20.046875 9.945312 19.816406 L 9.945312 18.949219 C 9.945312 17.714844 10.949219 16.710938 12.183594 16.710938 L 15.757812 16.710938 C 16.992188 16.710938 17.996094 17.714844 17.996094 18.949219 L 17.996094 19.816406 C 17.996094 20.046875 17.8125 20.230469 17.585938 20.230469 Z M 10.769531 19.402344 L 17.171875 19.402344 L 17.171875 18.945312 C 17.171875 18.167969 16.539062 17.53125 15.757812 17.53125 L 12.183594 17.53125 C 11.402344 17.53125 10.769531 18.167969 10.769531 18.945312 Z M 10.769531 19.402344 "/><g clip-rule="nonzero" clip-path="url(#ccde6a335a)"><path style=" stroke:none;fill-rule:nonzero;fill:#5a2675;fill-opacity:1;" d="M 26.46875 8.722656 C 26.46875 6.683594 24.269531 5.023438 21.566406 5.023438 C 18.863281 5.023438 16.664062 6.683594 16.664062 8.722656 C 16.664062 9.125 16.753906 9.515625 16.914062 9.886719 L 5.539062 9.886719 C 5.027344 9.886719 4.609375 10.332031 4.609375 10.882812 L 4.609375 20.746094 L 4.289062 20.746094 C 3.792969 20.746094 3.394531 21.125 3.394531 21.59375 C 3.394531 22.863281 4.515625 23.898438 5.898438 23.898438 L 21.984375 23.898438 C 23.367188 23.898438 24.488281 22.863281 24.488281 21.59375 C 24.488281 21.125 24.085938 20.746094 23.59375 20.746094 L 23.273438 20.746094 L 23.273438 12.191406 C 25.136719 11.664062 26.46875 10.3125 26.46875 8.722656 Z M 21.566406 5.847656 C 23.8125 5.847656 25.644531 7.136719 25.644531 8.726562 C 25.644531 10.3125 23.816406 11.601562 21.566406 11.601562 C 21.085938 11.601562 20.617188 11.542969 20.171875 11.425781 C 19.964844 11.375 19.816406 11.472656 19.648438 11.585938 C 19.414062 11.746094 18.984375 12.035156 18.242188 12.230469 C 18.574219 11.582031 18.738281 10.828125 18.390625 10.523438 C 17.800781 10.007812 17.488281 9.386719 17.488281 8.726562 C 17.492188 7.136719 19.320312 5.847656 21.566406 5.847656 Z M 23.59375 21.570312 C 23.636719 21.570312 23.660156 21.59375 23.664062 21.59375 C 23.664062 22.410156 22.910156 23.074219 21.984375 23.074219 L 5.898438 23.074219 C 4.972656 23.074219 4.21875 22.410156 4.214844 21.601562 C 4.21875 21.59375 4.246094 21.570312 4.289062 21.570312 L 10.695312 21.570312 C 10.976562 21.746094 11.398438 21.960938 11.796875 21.960938 L 16.085938 21.960938 C 16.546875 21.960938 16.972656 21.816406 17.226562 21.582031 Z M 22.449219 20.746094 L 17.226562 20.757812 C 17.027344 20.757812 16.839844 20.828125 16.703125 20.953125 C 16.609375 21.035156 16.390625 21.132812 16.085938 21.132812 L 11.796875 21.132812 C 11.644531 21.132812 11.390625 21.03125 11.136719 20.871094 C 11.007812 20.789062 10.859375 20.746094 10.710938 20.746094 L 5.433594 20.746094 L 5.433594 10.882812 C 5.433594 10.777344 5.496094 10.710938 5.539062 10.710938 L 17.429688 10.710938 C 17.535156 10.835938 17.644531 10.957031 17.765625 11.070312 C 17.753906 11.289062 17.578125 11.898438 17.171875 12.371094 C 17.035156 12.527344 17.011719 12.75 17.109375 12.929688 C 17.195312 13.097656 17.367188 13.195312 17.550781 13.195312 C 17.574219 13.195312 17.597656 13.191406 17.617188 13.191406 C 19.019531 13.007812 19.785156 12.492188 20.113281 12.269531 C 20.113281 12.269531 20.117188 12.265625 20.121094 12.265625 C 20.589844 12.371094 21.074219 12.425781 21.566406 12.425781 C 21.871094 12.425781 22.164062 12.402344 22.449219 12.363281 Z M 22.449219 20.746094 "/></g><path style=" stroke:none;fill-rule:nonzero;fill:#5a2675;fill-opacity:1;" d="M 21.292969 8.324219 L 19.21875 8.324219 C 18.992188 8.324219 18.808594 8.140625 18.808594 7.910156 C 18.808594 7.683594 18.992188 7.5 19.21875 7.5 L 21.292969 7.5 C 21.519531 7.5 21.703125 7.683594 21.703125 7.910156 C 21.703125 8.140625 21.519531 8.324219 21.292969 8.324219 Z M 21.292969 8.324219 "/><path style=" stroke:none;fill-rule:nonzero;fill:#5a2675;fill-opacity:1;" d="M 23.777344 9.875 L 19.21875 9.875 C 18.992188 9.875 18.808594 9.691406 18.808594 9.460938 C 18.808594 9.234375 18.992188 9.050781 19.21875 9.050781 L 23.777344 9.050781 C 24.003906 9.050781 24.191406 9.234375 24.191406 9.460938 C 24.191406 9.691406 24.003906 9.875 23.777344 9.875 Z M 23.777344 9.875 "/></g></svg>