<svg xmlns="http://www.w3.org/2000/svg" xmlns:xlink="http://www.w3.org/1999/xlink" width="40" zoomAndPan="magnify" viewBox="0 0 30 30.000001" height="40" preserveAspectRatio="xMidYMid meet" version="1.2"><defs><clipPath id="978b78b82f"><path d="M 3.386719 2.902344 L 26.613281 2.902344 L 26.613281 26.128906 L 3.386719 26.128906 Z M 3.386719 2.902344 "/></clipPath></defs><g id="32da1d5d1a"><g clip-rule="nonzero" clip-path="url(#978b78b82f)"><path style=" stroke:none;fill-rule:evenodd;fill:#5a2675;fill-opacity:1;" d="M 16.503906 3.296875 C 16.457031 3.125 16.3125 3.003906 16.136719 2.984375 C 15.390625 2.914062 14.636719 2.914062 13.890625 2.984375 C 13.71875 3.003906 13.570312 3.125 13.523438 3.296875 L 13.117188 4.789062 C 12.664062 4.878906 12.222656 4.996094 11.789062 5.148438 C 11.789062 5.148438 10.6875 4.054688 10.6875 4.054688 C 10.5625 3.933594 10.375 3.898438 10.214844 3.972656 C 9.53125 4.28125 8.878906 4.65625 8.269531 5.09375 C 8.125 5.195312 8.0625 5.375 8.105469 5.546875 L 8.5 7.042969 C 8.152344 7.347656 7.828125 7.671875 7.527344 8.015625 C 7.527344 8.015625 6.03125 7.625 6.03125 7.625 C 5.859375 7.578125 5.679688 7.644531 5.578125 7.785156 C 5.140625 8.398438 4.765625 9.046875 4.457031 9.730469 C 4.382812 9.890625 4.417969 10.078125 4.539062 10.203125 L 5.628906 11.304688 C 5.480469 11.738281 5.363281 12.183594 5.273438 12.632812 C 5.273438 12.632812 3.78125 13.039062 3.78125 13.039062 C 3.609375 13.085938 3.488281 13.234375 3.46875 13.410156 C 3.398438 14.15625 3.398438 14.90625 3.46875 15.652344 C 3.488281 15.828125 3.609375 15.972656 3.78125 16.019531 L 5.273438 16.429688 C 5.363281 16.878906 5.480469 17.324219 5.628906 17.757812 C 5.628906 17.753906 4.539062 18.855469 4.539062 18.855469 C 4.417969 18.980469 4.382812 19.171875 4.457031 19.332031 C 4.765625 20.011719 5.140625 20.664062 5.578125 21.273438 C 5.679688 21.417969 5.859375 21.484375 6.03125 21.4375 L 7.527344 21.042969 C 7.828125 21.390625 8.152344 21.714844 8.5 22.015625 C 8.5 22.015625 8.105469 23.515625 8.105469 23.515625 C 8.0625 23.683594 8.125 23.863281 8.269531 23.96875 C 8.878906 24.402344 9.53125 24.777344 10.214844 25.089844 C 10.375 25.160156 10.5625 25.128906 10.6875 25.003906 L 11.789062 23.914062 C 12.222656 24.0625 12.664062 24.183594 13.117188 24.269531 C 13.117188 24.269531 13.523438 25.765625 13.523438 25.765625 C 13.570312 25.933594 13.71875 26.058594 13.890625 26.074219 C 14.636719 26.148438 15.390625 26.148438 16.136719 26.074219 C 16.3125 26.058594 16.457031 25.933594 16.503906 25.765625 L 16.914062 24.269531 C 17.363281 24.183594 17.804688 24.0625 18.238281 23.914062 C 18.238281 23.914062 19.339844 25.003906 19.339844 25.003906 C 19.464844 25.128906 19.652344 25.160156 19.816406 25.089844 C 20.496094 24.777344 21.148438 24.402344 21.757812 23.96875 C 21.902344 23.863281 21.964844 23.683594 21.921875 23.515625 L 21.527344 22.015625 C 21.875 21.714844 22.199219 21.390625 22.5 21.042969 C 22.5 21.042969 23.996094 21.4375 23.996094 21.4375 C 24.167969 21.484375 24.347656 21.417969 24.449219 21.273438 C 24.886719 20.664062 25.261719 20.011719 25.574219 19.332031 C 25.644531 19.171875 25.613281 18.980469 25.488281 18.855469 L 24.398438 17.753906 C 24.546875 17.320312 24.664062 16.878906 24.753906 16.429688 C 24.753906 16.429688 26.246094 16.019531 26.246094 16.019531 C 26.417969 15.972656 26.542969 15.828125 26.558594 15.652344 C 26.628906 14.90625 26.628906 14.15625 26.558594 13.410156 C 26.542969 13.234375 26.417969 13.085938 26.246094 13.039062 L 24.753906 12.632812 C 24.664062 12.183594 24.546875 11.738281 24.398438 11.304688 C 24.398438 11.304688 25.488281 10.203125 25.488281 10.203125 C 25.613281 10.078125 25.644531 9.890625 25.574219 9.730469 C 25.261719 9.046875 24.886719 8.398438 24.449219 7.785156 C 24.347656 7.644531 24.167969 7.578125 23.996094 7.625 L 22.5 8.015625 C 22.199219 7.671875 21.875 7.347656 21.527344 7.042969 C 21.527344 7.042969 21.921875 5.546875 21.921875 5.546875 C 21.964844 5.375 21.902344 5.195312 21.757812 5.09375 C 21.148438 4.65625 20.496094 4.28125 19.816406 3.972656 C 19.652344 3.898438 19.464844 3.933594 19.339844 4.054688 L 18.238281 5.148438 C 17.804688 4.996094 17.363281 4.878906 16.914062 4.789062 C 16.914062 4.789062 16.503906 3.296875 16.503906 3.296875 Z M 15.761719 3.804688 L 16.164062 5.273438 C 16.207031 5.433594 16.339844 5.550781 16.503906 5.578125 C 17.082031 5.675781 17.648438 5.828125 18.199219 6.035156 C 18.355469 6.09375 18.527344 6.054688 18.648438 5.9375 L 19.726562 4.867188 C 20.175781 5.085938 20.609375 5.339844 21.023438 5.617188 C 21.023438 5.617188 20.636719 7.089844 20.636719 7.089844 C 20.597656 7.25 20.652344 7.417969 20.78125 7.523438 C 21.230469 7.894531 21.648438 8.3125 22.019531 8.765625 C 22.125 8.890625 22.296875 8.949219 22.457031 8.90625 L 23.925781 8.519531 C 24.207031 8.933594 24.457031 9.367188 24.675781 9.816406 C 24.675781 9.816406 23.605469 10.898438 23.605469 10.898438 C 23.488281 11.015625 23.453125 11.191406 23.511719 11.34375 C 23.714844 11.894531 23.867188 12.460938 23.964844 13.039062 C 23.992188 13.203125 24.113281 13.335938 24.269531 13.378906 L 25.738281 13.78125 C 25.773438 14.28125 25.773438 14.78125 25.738281 15.28125 C 25.738281 15.28125 24.269531 15.679688 24.269531 15.679688 C 24.113281 15.722656 23.992188 15.855469 23.964844 16.019531 C 23.867188 16.597656 23.714844 17.167969 23.511719 17.714844 C 23.453125 17.871094 23.488281 18.046875 23.605469 18.164062 L 24.675781 19.242188 C 24.457031 19.691406 24.207031 20.125 23.925781 20.542969 C 23.925781 20.542969 22.457031 20.15625 22.457031 20.15625 C 22.296875 20.113281 22.125 20.167969 22.019531 20.296875 C 21.648438 20.75 21.230469 21.164062 20.78125 21.535156 C 20.652344 21.640625 20.597656 21.8125 20.636719 21.972656 L 21.023438 23.441406 C 20.609375 23.722656 20.175781 23.972656 19.726562 24.191406 C 19.726562 24.191406 18.648438 23.121094 18.648438 23.121094 C 18.527344 23.007812 18.355469 22.96875 18.199219 23.027344 C 17.648438 23.234375 17.082031 23.386719 16.503906 23.480469 C 16.339844 23.507812 16.207031 23.628906 16.164062 23.789062 L 15.761719 25.253906 C 15.265625 25.289062 14.761719 25.289062 14.265625 25.253906 C 14.265625 25.253906 13.863281 23.789062 13.863281 23.789062 C 13.820312 23.628906 13.6875 23.507812 13.523438 23.480469 C 12.945312 23.386719 12.378906 23.234375 11.828125 23.027344 C 11.671875 22.96875 11.5 23.007812 11.382812 23.121094 L 10.300781 24.191406 C 9.851562 23.972656 9.417969 23.722656 9.003906 23.441406 C 9.003906 23.441406 9.390625 21.972656 9.390625 21.972656 C 9.429688 21.8125 9.375 21.640625 9.25 21.535156 C 8.796875 21.164062 8.378906 20.75 8.007812 20.296875 C 7.902344 20.167969 7.730469 20.113281 7.570312 20.15625 L 6.101562 20.542969 C 5.820312 20.125 5.570312 19.691406 5.351562 19.242188 C 5.351562 19.242188 6.421875 18.164062 6.421875 18.164062 C 6.539062 18.046875 6.574219 17.871094 6.515625 17.714844 C 6.3125 17.167969 6.160156 16.597656 6.0625 16.019531 C 6.035156 15.855469 5.917969 15.722656 5.757812 15.679688 L 4.289062 15.28125 C 4.253906 14.78125 4.253906 14.28125 4.289062 13.78125 C 4.289062 13.78125 5.757812 13.378906 5.757812 13.378906 C 5.917969 13.335938 6.035156 13.203125 6.0625 13.039062 C 6.160156 12.460938 6.3125 11.894531 6.515625 11.34375 C 6.574219 11.191406 6.539062 11.015625 6.421875 10.898438 L 5.351562 9.816406 C 5.570312 9.367188 5.820312 8.933594 6.101562 8.519531 C 6.101562 8.519531 7.570312 8.90625 7.570312 8.90625 C 7.730469 8.949219 7.902344 8.890625 8.007812 8.765625 C 8.378906 8.3125 8.796875 7.894531 9.25 7.523438 C 9.375 7.417969 9.429688 7.25 9.390625 7.089844 L 9.003906 5.617188 C 9.417969 5.339844 9.851562 5.085938 10.300781 4.867188 C 10.300781 4.867188 11.382812 5.9375 11.382812 5.9375 C 11.5 6.054688 11.671875 6.09375 11.828125 6.035156 C 12.378906 5.828125 12.945312 5.675781 13.523438 5.578125 C 13.6875 5.550781 13.820312 5.433594 13.863281 5.273438 L 14.265625 3.804688 C 14.761719 3.769531 15.265625 3.769531 15.761719 3.804688 Z M 15.015625 8.15625 C 11.496094 8.15625 8.640625 11.011719 8.640625 14.53125 C 8.640625 18.046875 11.496094 20.902344 15.015625 20.902344 C 18.53125 20.902344 21.386719 18.046875 21.386719 14.53125 C 21.386719 11.011719 18.53125 8.15625 15.015625 8.15625 Z M 15.015625 9.007812 C 18.0625 9.007812 20.539062 11.480469 20.539062 14.53125 C 20.539062 17.578125 18.0625 20.054688 15.015625 20.054688 C 11.964844 20.054688 9.488281 17.578125 9.488281 14.53125 C 9.488281 11.480469 11.964844 9.007812 15.015625 9.007812 Z M 15.015625 9.007812 "/><path style=" stroke:none;fill-rule:evenodd;fill:#5a2675;fill-opacity:1;" d="M 16.503906 3.296875 C 16.457031 3.125 16.3125 3.003906 16.136719 2.984375 C 15.390625 2.914062 14.636719 2.914062 13.890625 2.984375 C 13.71875 3.003906 13.570312 3.125 13.523438 3.296875 L 13.117188 4.789062 C 12.664062 4.878906 12.222656 4.996094 11.789062 5.148438 C 11.789062 5.148438 10.6875 4.054688 10.6875 4.054688 C 10.5625 3.933594 10.375 3.898438 10.214844 3.972656 C 9.53125 4.28125 8.878906 4.65625 8.269531 5.09375 C 8.125 5.195312 8.0625 5.375 8.105469 5.546875 L 8.5 7.042969 C 8.152344 7.347656 7.828125 7.671875 7.527344 8.015625 C 7.527344 8.015625 6.03125 7.625 6.03125 7.625 C 5.859375 7.578125 5.679688 7.644531 5.578125 7.785156 C 5.140625 8.398438 4.765625 9.046875 4.457031 9.730469 C 4.382812 9.890625 4.417969 10.078125 4.539062 10.203125 L 5.628906 11.304688 C 5.480469 11.738281 5.363281 12.183594 5.273438 12.632812 C 5.273438 12.632812 3.78125 13.039062 3.78125 13.039062 C 3.609375 13.085938 3.488281 13.234375 3.46875 13.410156 C 3.398438 14.15625 3.398438 14.90625 3.46875 15.652344 C 3.488281 15.828125 3.609375 15.972656 3.78125 16.019531 L 5.273438 16.429688 C 5.363281 16.878906 5.480469 17.324219 5.628906 17.757812 C 5.628906 17.753906 4.539062 18.855469 4.539062 18.855469 C 4.417969 18.980469 4.382812 19.171875 4.457031 19.332031 C 4.765625 20.011719 5.140625 20.664062 5.578125 21.273438 C 5.679688 21.417969 5.859375 21.484375 6.03125 21.4375 L 7.527344 21.042969 C 7.828125 21.390625 8.152344 21.714844 8.5 22.015625 C 8.5 22.015625 8.105469 23.515625 8.105469 23.515625 C 8.0625 23.683594 8.125 23.863281 8.269531 23.96875 C 8.878906 24.402344 9.53125 24.777344 10.214844 25.089844 C 10.375 25.160156 10.5625 25.128906 10.6875 25.003906 L 11.789062 23.914062 C 12.222656 24.0625 12.664062 24.183594 13.117188 24.269531 C 13.117188 24.269531 13.523438 25.765625 13.523438 25.765625 C 13.570312 25.933594 13.71875 26.058594 13.890625 26.074219 C 14.636719 26.148438 15.390625 26.148438 16.136719 26.074219 C 16.3125 26.058594 16.457031 25.933594 16.503906 25.765625 L 16.914062 24.269531 C 17.363281 24.183594 17.804688 24.0625 18.238281 23.914062 C 18.238281 23.914062 19.339844 25.003906 19.339844 25.003906 C 19.464844 25.128906 19.652344 25.160156 19.816406 25.089844 C 20.496094 24.777344 21.148438 24.402344 21.757812 23.96875 C 21.902344 23.863281 21.964844 23.683594 21.921875 23.515625 L 21.527344 22.015625 C 21.875 21.714844 22.199219 21.390625 22.5 21.042969 C 22.5 21.042969 23.996094 21.4375 23.996094 21.4375 C 24.167969 21.484375 24.347656 21.417969 24.449219 21.273438 C 24.886719 20.664062 25.261719 20.011719 25.574219 19.332031 C 25.644531 19.171875 25.613281 18.980469 25.488281 18.855469 L 24.398438 17.753906 C 24.546875 17.320312 24.664062 16.878906 24.753906 16.429688 C 24.753906 16.429688 26.246094 16.019531 26.246094 16.019531 C 26.417969 15.972656 26.542969 15.828125 26.558594 15.652344 C 26.628906 14.90625 26.628906 14.15625 26.558594 13.410156 C 26.542969 13.234375 26.417969 13.085938 26.246094 13.039062 L 24.753906 12.632812 C 24.664062 12.183594 24.546875 11.738281 24.398438 11.304688 C 24.398438 11.304688 25.488281 10.203125 25.488281 10.203125 C 25.613281 10.078125 25.644531 9.890625 25.574219 9.730469 C 25.261719 9.046875 24.886719 8.398438 24.449219 7.785156 C 24.347656 7.644531 24.167969 7.578125 23.996094 7.625 L 22.5 8.015625 C 22.199219 7.671875 21.875 7.347656 21.527344 7.042969 C 21.527344 7.042969 21.921875 5.546875 21.921875 5.546875 C 21.964844 5.375 21.902344 5.195312 21.757812 5.09375 C 21.148438 4.65625 20.496094 4.28125 19.816406 3.972656 C 19.652344 3.898438 19.464844 3.933594 19.339844 4.054688 L 18.238281 5.148438 C 17.804688 4.996094 17.363281 4.878906 16.914062 4.789062 C 16.914062 4.789062 16.503906 3.296875 16.503906 3.296875 Z M 15.761719 3.804688 L 16.164062 5.273438 C 16.207031 5.433594 16.339844 5.550781 16.503906 5.578125 C 17.082031 5.675781 17.648438 5.828125 18.199219 6.035156 C 18.355469 6.09375 18.527344 6.054688 18.648438 5.9375 L 19.726562 4.867188 C 20.175781 5.085938 20.609375 5.339844 21.023438 5.617188 C 21.023438 5.617188 20.636719 7.089844 20.636719 7.089844 C 20.597656 7.25 20.652344 7.417969 20.78125 7.523438 C 21.230469 7.894531 21.648438 8.3125 22.019531 8.765625 C 22.125 8.890625 22.296875 8.949219 22.457031 8.90625 L 23.925781 8.519531 C 24.207031 8.933594 24.457031 9.367188 24.675781 9.816406 C 24.675781 9.816406 23.605469 10.898438 23.605469 10.898438 C 23.488281 11.015625 23.453125 11.191406 23.511719 11.34375 C 23.714844 11.894531 23.867188 12.460938 23.964844 13.039062 C 23.992188 13.203125 24.113281 13.335938 24.269531 13.378906 L 25.738281 13.78125 C 25.773438 14.28125 25.773438 14.78125 25.738281 15.28125 C 25.738281 15.28125 24.269531 15.679688 24.269531 15.679688 C 24.113281 15.722656 23.992188 15.855469 23.964844 16.019531 C 23.867188 16.597656 23.714844 17.167969 23.511719 17.714844 C 23.453125 17.871094 23.488281 18.046875 23.605469 18.164062 L 24.675781 19.242188 C 24.457031 19.691406 24.207031 20.125 23.925781 20.542969 C 23.925781 20.542969 22.457031 20.15625 22.457031 20.15625 C 22.296875 20.113281 22.125 20.167969 22.019531 20.296875 C 21.648438 20.75 21.230469 21.164062 20.78125 21.535156 C 20.652344 21.640625 20.597656 21.8125 20.636719 21.972656 L 21.023438 23.441406 C 20.609375 23.722656 20.175781 23.972656 19.726562 24.191406 C 19.726562 24.191406 18.648438 23.121094 18.648438 23.121094 C 18.527344 23.007812 18.355469 22.96875 18.199219 23.027344 C 17.648438 23.234375 17.082031 23.386719 16.503906 23.480469 C 16.339844 23.507812 16.207031 23.628906 16.164062 23.789062 L 15.761719 25.253906 C 15.265625 25.289062 14.761719 25.289062 14.265625 25.253906 C 14.265625 25.253906 13.863281 23.789062 13.863281 23.789062 C 13.820312 23.628906 13.6875 23.507812 13.523438 23.480469 C 12.945312 23.386719 12.378906 23.234375 11.828125 23.027344 C 11.671875 22.96875 11.5 23.007812 11.382812 23.121094 L 10.300781 24.191406 C 9.851562 23.972656 9.417969 23.722656 9.003906 23.441406 C 9.003906 23.441406 9.390625 21.972656 9.390625 21.972656 C 9.429688 21.8125 9.375 21.640625 9.25 21.535156 C 8.796875 21.164062 8.378906 20.75 8.007812 20.296875 C 7.902344 20.167969 7.730469 20.113281 7.570312 20.15625 L 6.101562 20.542969 C 5.820312 20.125 5.570312 19.691406 5.351562 19.242188 C 5.351562 19.242188 6.421875 18.164062 6.421875 18.164062 C 6.539062 18.046875 6.574219 17.871094 6.515625 17.714844 C 6.3125 17.167969 6.160156 16.597656 6.0625 16.019531 C 6.035156 15.855469 5.917969 15.722656 5.757812 15.679688 L 4.289062 15.28125 C 4.253906 14.78125 4.253906 14.28125 4.289062 13.78125 C 4.289062 13.78125 5.757812 13.378906 5.757812 13.378906 C 5.917969 13.335938 6.035156 13.203125 6.0625 13.039062 C 6.160156 12.460938 6.3125 11.894531 6.515625 11.34375 C 6.574219 11.191406 6.539062 11.015625 6.421875 10.898438 L 5.351562 9.816406 C 5.570312 9.367188 5.820312 8.933594 6.101562 8.519531 C 6.101562 8.519531 7.570312 8.90625 7.570312 8.90625 C 7.730469 8.949219 7.902344 8.890625 8.007812 8.765625 C 8.378906 8.3125 8.796875 7.894531 9.25 7.523438 C 9.375 7.417969 9.429688 7.25 9.390625 7.089844 L 9.003906 5.617188 C 9.417969 5.339844 9.851562 5.085938 10.300781 4.867188 C 10.300781 4.867188 11.382812 5.9375 11.382812 5.9375 C 11.5 6.054688 11.671875 6.09375 11.828125 6.035156 C 12.378906 5.828125 12.945312 5.675781 13.523438 5.578125 C 13.6875 5.550781 13.820312 5.433594 13.863281 5.273438 L 14.265625 3.804688 C 14.761719 3.769531 15.265625 3.769531 15.761719 3.804688 Z M 15.015625 8.15625 C 11.496094 8.15625 8.640625 11.011719 8.640625 14.53125 C 8.640625 18.046875 11.496094 20.902344 15.015625 20.902344 C 18.53125 20.902344 21.386719 18.046875 21.386719 14.53125 C 21.386719 11.011719 18.53125 8.15625 15.015625 8.15625 Z M 15.015625 9.007812 C 18.0625 9.007812 20.539062 11.480469 20.539062 14.53125 C 20.539062 17.578125 18.0625 20.054688 15.015625 20.054688 C 11.964844 20.054688 9.488281 17.578125 9.488281 14.53125 C 9.488281 11.480469 11.964844 9.007812 15.015625 9.007812 Z M 15.015625 9.007812 "/></g></g></svg>