<svg xmlns="http://www.w3.org/2000/svg" xmlns:xlink="http://www.w3.org/1999/xlink" width="500" zoomAndPan="magnify" viewBox="0 0 375 374.999991" height="500" preserveAspectRatio="xMidYMid meet" version="1.2"><defs><clipPath id="4abd8e8dc3"><path d="M 48.4375 48.4375 L 326.6875 48.4375 L 326.6875 326.6875 L 48.4375 326.6875 Z M 48.4375 48.4375 "/></clipPath></defs><g id="9cbdee0b45"><g clip-rule="nonzero" clip-path="url(#4abd8e8dc3)"><path style=" stroke:none;fill-rule:evenodd;fill:#ffffff;fill-opacity:1;" d="M 187.496094 48.4375 C 264.445312 48.4375 326.558594 110.894531 326.558594 187.496094 C 326.558594 264.445312 264.445312 326.558594 187.496094 326.558594 C 110.894531 326.558594 48.4375 264.445312 48.4375 187.496094 C 48.4375 110.894531 110.894531 48.4375 187.496094 48.4375 Z M 187.496094 221.3125 L 148.503906 260.304688 C 126.765625 282.390625 92.949219 248.574219 115.035156 226.488281 L 154.027344 187.496094 L 115.035156 148.503906 C 92.949219 126.765625 126.765625 92.949219 148.503906 115.035156 L 187.496094 154.027344 L 226.488281 115.035156 C 248.574219 92.949219 282.390625 126.765625 260.304688 148.503906 L 221.3125 187.496094 L 260.304688 226.488281 C 282.390625 248.574219 248.574219 282.390625 226.488281 260.304688 Z M 187.496094 221.3125 "/></g></g></svg>