<svg xmlns="http://www.w3.org/2000/svg" xmlns:xlink="http://www.w3.org/1999/xlink" width="500" zoomAndPan="magnify" viewBox="0 0 375 374.999991" height="500" preserveAspectRatio="xMidYMid meet" version="1.2"><g id="6db5f961d8"><path style=" stroke:none;fill-rule:evenodd;fill:#ffffff;fill-opacity:1;" d="M 223.4375 49.054688 C 219.59375 42.917969 211.351562 41.320312 205.488281 45.578125 L 178.363281 65.289062 C 174.875 67.820312 170.335938 68.382812 166.339844 66.773438 L 135.234375 54.25 C 128.511719 51.542969 120.90625 55.097656 118.667969 61.988281 L 108.304688 93.878906 C 106.976562 97.972656 103.628906 101.097656 99.449219 102.144531 L 66.925781 110.296875 C 59.898438 112.058594 55.832031 119.402344 58.070312 126.292969 L 68.433594 158.183594 C 69.765625 162.28125 68.894531 166.773438 66.128906 170.078125 L 44.605469 195.789062 C 39.957031 201.34375 40.984375 209.679688 46.847656 213.9375 L 73.972656 233.644531 C 77.460938 236.175781 79.394531 240.324219 79.101562 244.621094 L 76.800781 278.074219 C 76.304688 285.300781 82.035156 291.4375 89.28125 291.4375 L 122.8125 291.4375 C 127.121094 291.4375 131.125 293.652344 133.410156 297.304688 L 151.214844 325.71875 C 155.0625 331.859375 163.304688 333.457031 169.164062 329.195312 L 196.292969 309.488281 C 199.777344 306.953125 204.320312 306.394531 208.316406 308.003906 L 239.421875 320.527344 C 246.140625 323.234375 253.75 319.679688 255.988281 312.789062 L 266.347656 280.898438 C 267.679688 276.800781 271.023438 273.679688 275.203125 272.628906 L 307.726562 264.480469 C 314.757812 262.71875 318.820312 255.371094 316.582031 248.484375 L 306.21875 216.59375 C 304.886719 212.496094 305.757812 208 308.523438 204.699219 L 330.046875 178.984375 C 334.699219 173.429688 333.667969 165.097656 327.808594 160.839844 L 300.679688 141.128906 C 297.195312 138.597656 295.257812 134.453125 295.550781 130.15625 L 297.851562 96.703125 C 298.347656 89.472656 292.617188 83.335938 285.375 83.335938 L 251.839844 83.339844 C 247.535156 83.339844 243.53125 81.121094 241.242188 77.472656 Z M 170.351562 236.445312 L 244.761719 162.039062 L 228.757812 146.035156 L 170.351562 204.4375 L 145.300781 179.386719 L 129.296875 195.390625 Z M 170.351562 236.445312 "/></g></svg>