<svg xmlns="http://www.w3.org/2000/svg" xmlns:xlink="http://www.w3.org/1999/xlink" width="40" zoomAndPan="magnify" viewBox="0 0 30 30.000001" height="40" preserveAspectRatio="xMidYMid meet" version="1.2"><defs><clipPath id="916a01f426"><path d="M 3.386719 13 L 26.613281 13 L 26.613281 16 L 3.386719 16 Z M 3.386719 13 "/></clipPath><clipPath id="c85c7a6f15"><path d="M 3.386719 5.007812 L 14 5.007812 L 14 23.878906 L 3.386719 23.878906 Z M 3.386719 5.007812 "/></clipPath><clipPath id="f560fa1245"><path d="M 3.386719 13 L 26.613281 13 L 26.613281 16 L 3.386719 16 Z M 3.386719 13 "/></clipPath><clipPath id="6e6d016c8a"><path d="M 3.386719 5.007812 L 14 5.007812 L 14 23.878906 L 3.386719 23.878906 Z M 3.386719 5.007812 "/></clipPath></defs><g id="ce554089c5"><g clip-rule="nonzero" clip-path="url(#916a01f426)"><path style=" stroke:none;fill-rule:nonzero;fill:#ffffff;fill-opacity:1;" d="M 25.585938 15.246094 L 4.140625 15.246094 C 3.917969 15.246094 3.730469 15.167969 3.574219 15.011719 C 3.414062 14.855469 3.335938 14.664062 3.335938 14.445312 C 3.335938 14.222656 3.414062 14.03125 3.574219 13.875 C 3.730469 13.71875 3.917969 13.640625 4.140625 13.640625 L 25.585938 13.640625 C 25.808594 13.640625 25.996094 13.71875 26.152344 13.875 C 26.3125 14.03125 26.390625 14.222656 26.390625 14.445312 C 26.390625 14.664062 26.3125 14.855469 26.152344 15.011719 C 25.996094 15.167969 25.808594 15.246094 25.585938 15.246094 Z M 25.585938 15.246094 "/></g><g clip-rule="nonzero" clip-path="url(#c85c7a6f15)"><path style=" stroke:none;fill-rule:nonzero;fill:#ffffff;fill-opacity:1;" d="M 12.71875 23.824219 C 12.496094 23.824219 12.308594 23.746094 12.152344 23.589844 L 3.574219 15.011719 C 3.414062 14.855469 3.335938 14.664062 3.335938 14.445312 C 3.335938 14.222656 3.414062 14.03125 3.574219 13.875 L 12.152344 5.296875 C 12.304688 5.132812 12.496094 5.046875 12.726562 5.042969 C 12.953125 5.039062 13.148438 5.117188 13.308594 5.277344 C 13.46875 5.4375 13.546875 5.632812 13.542969 5.859375 C 13.539062 6.085938 13.453125 6.277344 13.285156 6.433594 L 5.277344 14.445312 L 13.285156 22.453125 C 13.539062 22.707031 13.597656 23 13.460938 23.328125 C 13.324219 23.660156 13.078125 23.824219 12.71875 23.824219 Z M 12.71875 23.824219 "/></g><g clip-rule="nonzero" clip-path="url(#f560fa1245)"><path style=" stroke:none;fill-rule:nonzero;fill:#ffffff;fill-opacity:1;" d="M 25.585938 15.246094 L 4.140625 15.246094 C 3.917969 15.246094 3.730469 15.167969 3.574219 15.011719 C 3.414062 14.855469 3.335938 14.664062 3.335938 14.445312 C 3.335938 14.222656 3.414062 14.03125 3.574219 13.875 C 3.730469 13.71875 3.917969 13.640625 4.140625 13.640625 L 25.585938 13.640625 C 25.808594 13.640625 25.996094 13.71875 26.152344 13.875 C 26.3125 14.03125 26.390625 14.222656 26.390625 14.445312 C 26.390625 14.664062 26.3125 14.855469 26.152344 15.011719 C 25.996094 15.167969 25.808594 15.246094 25.585938 15.246094 Z M 25.585938 15.246094 "/></g><g clip-rule="nonzero" clip-path="url(#6e6d016c8a)"><path style=" stroke:none;fill-rule:nonzero;fill:#ffffff;fill-opacity:1;" d="M 12.71875 23.824219 C 12.496094 23.824219 12.308594 23.746094 12.152344 23.589844 L 3.574219 15.011719 C 3.414062 14.855469 3.335938 14.664062 3.335938 14.445312 C 3.335938 14.222656 3.414062 14.03125 3.574219 13.875 L 12.152344 5.296875 C 12.304688 5.132812 12.496094 5.046875 12.726562 5.042969 C 12.953125 5.039062 13.148438 5.117188 13.308594 5.277344 C 13.46875 5.4375 13.546875 5.632812 13.542969 5.859375 C 13.539062 6.085938 13.453125 6.277344 13.285156 6.433594 L 5.277344 14.445312 L 13.285156 22.453125 C 13.539062 22.707031 13.597656 23 13.460938 23.328125 C 13.324219 23.660156 13.078125 23.824219 12.71875 23.824219 Z M 12.71875 23.824219 "/></g></g></svg>