<svg xmlns="http://www.w3.org/2000/svg" xmlns:xlink="http://www.w3.org/1999/xlink" width="40" zoomAndPan="magnify" viewBox="0 0 30 30.000001" height="40" preserveAspectRatio="xMidYMid meet" version="1.2"><defs><clipPath id="8d4ee5c658"><path d="M 4.402344 2.902344 L 25.449219 2.902344 L 25.449219 26 L 4.402344 26 Z M 4.402344 2.902344 "/></clipPath><clipPath id="b3329afc55"><path d="M 4.402344 2.902344 L 25.449219 2.902344 L 25.449219 26 L 4.402344 26 Z M 4.402344 2.902344 "/></clipPath></defs><g id="9e1865aad7"><g clip-rule="nonzero" clip-path="url(#8d4ee5c658)"><path style=" stroke:none;fill-rule:nonzero;fill:#5a2675;fill-opacity:1;" d="M 24.445312 6.917969 L 19.9375 6.917969 L 19.9375 6.210938 C 19.9375 5.773438 19.851562 5.351562 19.683594 4.949219 C 19.515625 4.542969 19.277344 4.1875 18.96875 3.878906 C 18.65625 3.566406 18.300781 3.328125 17.898438 3.160156 C 17.492188 2.992188 17.070312 2.910156 16.632812 2.910156 L 13.214844 2.910156 C 12.777344 2.910156 12.355469 2.992188 11.953125 3.160156 C 11.546875 3.328125 11.191406 3.566406 10.882812 3.878906 C 10.574219 4.1875 10.332031 4.542969 10.164062 4.949219 C 10 5.351562 9.914062 5.773438 9.914062 6.210938 L 9.914062 6.917969 L 5.402344 6.917969 C 5.269531 6.917969 5.140625 6.945312 5.019531 6.996094 C 4.898438 7.046875 4.789062 7.117188 4.695312 7.210938 C 4.601562 7.304688 4.527344 7.414062 4.476562 7.535156 C 4.425781 7.660156 4.402344 7.789062 4.402344 7.921875 C 4.402344 8.054688 4.425781 8.179688 4.476562 8.304688 C 4.527344 8.425781 4.601562 8.535156 4.695312 8.628906 C 4.789062 8.722656 4.898438 8.796875 5.019531 8.847656 C 5.140625 8.898438 5.269531 8.921875 5.402344 8.921875 L 6.90625 8.921875 L 6.90625 22.644531 C 6.90625 23.085938 6.992188 23.507812 7.160156 23.914062 C 7.328125 24.320312 7.570312 24.679688 7.882812 24.992188 C 8.191406 25.300781 8.550781 25.542969 8.957031 25.710938 C 9.367188 25.878906 9.789062 25.960938 10.230469 25.960938 L 19.625 25.960938 C 20.066406 25.960938 20.488281 25.875 20.894531 25.707031 C 21.300781 25.539062 21.660156 25.300781 21.96875 24.988281 C 22.28125 24.679688 22.519531 24.320312 22.6875 23.914062 C 22.859375 23.507812 22.941406 23.082031 22.941406 22.644531 L 22.941406 8.921875 L 24.445312 8.921875 C 24.578125 8.921875 24.707031 8.898438 24.832031 8.847656 C 24.953125 8.796875 25.0625 8.722656 25.15625 8.628906 C 25.25 8.535156 25.320312 8.425781 25.371094 8.304688 C 25.421875 8.179688 25.449219 8.054688 25.449219 7.921875 C 25.449219 7.789062 25.421875 7.660156 25.371094 7.535156 C 25.320312 7.414062 25.25 7.304688 25.15625 7.210938 C 25.0625 7.117188 24.953125 7.046875 24.832031 6.996094 C 24.707031 6.945312 24.578125 6.917969 24.445312 6.917969 Z M 11.917969 6.210938 C 11.917969 6.039062 11.949219 5.875 12.015625 5.714844 C 12.082031 5.554688 12.175781 5.414062 12.296875 5.292969 C 12.417969 5.171875 12.558594 5.078125 12.71875 5.011719 C 12.878906 4.945312 13.042969 4.914062 13.214844 4.914062 L 16.632812 4.914062 C 16.804688 4.914062 16.972656 4.945312 17.128906 5.011719 C 17.289062 5.078125 17.429688 5.171875 17.550781 5.292969 C 17.671875 5.414062 17.765625 5.554688 17.832031 5.714844 C 17.898438 5.875 17.933594 6.039062 17.933594 6.210938 L 17.933594 6.917969 L 11.917969 6.917969 Z M 20.9375 22.644531 C 20.9375 22.816406 20.902344 22.984375 20.835938 23.144531 C 20.769531 23.304688 20.675781 23.449219 20.550781 23.570312 C 20.429688 23.695312 20.289062 23.789062 20.128906 23.855469 C 19.964844 23.921875 19.800781 23.957031 19.625 23.957031 L 10.230469 23.957031 C 10.054688 23.957031 9.886719 23.925781 9.726562 23.855469 C 9.566406 23.789062 9.421875 23.695312 9.296875 23.574219 C 9.175781 23.449219 9.078125 23.308594 9.011719 23.148438 C 8.945312 22.984375 8.910156 22.820312 8.910156 22.644531 L 8.910156 8.921875 L 20.9375 8.921875 Z M 20.9375 22.644531 "/></g><path style=" stroke:none;fill-rule:nonzero;fill:#5a2675;fill-opacity:1;" d="M 12.417969 11.171875 C 12.285156 11.171875 12.160156 11.199219 12.035156 11.25 C 11.914062 11.300781 11.804688 11.371094 11.710938 11.464844 C 11.617188 11.558594 11.542969 11.667969 11.492188 11.792969 C 11.441406 11.914062 11.417969 12.042969 11.417969 12.175781 L 11.417969 21.195312 C 11.417969 21.328125 11.441406 21.457031 11.492188 21.578125 C 11.542969 21.703125 11.617188 21.8125 11.710938 21.90625 C 11.804688 22 11.914062 22.070312 12.035156 22.121094 C 12.160156 22.171875 12.285156 22.199219 12.417969 22.199219 C 12.550781 22.199219 12.679688 22.171875 12.800781 22.121094 C 12.925781 22.070312 13.035156 22 13.128906 21.90625 C 13.222656 21.8125 13.292969 21.703125 13.34375 21.578125 C 13.394531 21.457031 13.421875 21.328125 13.421875 21.195312 L 13.421875 12.175781 C 13.421875 12.042969 13.394531 11.914062 13.34375 11.792969 C 13.292969 11.667969 13.222656 11.558594 13.128906 11.464844 C 13.035156 11.371094 12.925781 11.300781 12.800781 11.25 C 12.679688 11.199219 12.550781 11.171875 12.417969 11.171875 Z M 12.417969 11.171875 "/><path style=" stroke:none;fill-rule:nonzero;fill:#5a2675;fill-opacity:1;" d="M 17.429688 11.171875 C 17.296875 11.171875 17.167969 11.199219 17.046875 11.25 C 16.925781 11.300781 16.816406 11.371094 16.722656 11.464844 C 16.628906 11.558594 16.554688 11.667969 16.503906 11.792969 C 16.453125 11.914062 16.429688 12.042969 16.429688 12.175781 L 16.429688 21.195312 C 16.429688 21.328125 16.453125 21.457031 16.503906 21.578125 C 16.554688 21.703125 16.628906 21.8125 16.722656 21.90625 C 16.816406 22 16.925781 22.070312 17.046875 22.121094 C 17.167969 22.171875 17.296875 22.199219 17.429688 22.199219 C 17.5625 22.199219 17.691406 22.171875 17.8125 22.121094 C 17.9375 22.070312 18.046875 22 18.140625 21.90625 C 18.234375 21.8125 18.304688 21.703125 18.355469 21.578125 C 18.40625 21.457031 18.433594 21.328125 18.433594 21.195312 L 18.433594 12.175781 C 18.433594 12.042969 18.40625 11.914062 18.355469 11.792969 C 18.304688 11.667969 18.234375 11.558594 18.140625 11.464844 C 18.046875 11.371094 17.9375 11.300781 17.8125 11.25 C 17.691406 11.199219 17.5625 11.171875 17.429688 11.171875 Z M 17.429688 11.171875 "/><g clip-rule="nonzero" clip-path="url(#b3329afc55)"><path style=" stroke:none;fill-rule:nonzero;fill:#5a2675;fill-opacity:1;" d="M 24.445312 6.917969 L 19.9375 6.917969 L 19.9375 6.210938 C 19.9375 5.773438 19.851562 5.351562 19.683594 4.949219 C 19.515625 4.542969 19.277344 4.1875 18.96875 3.878906 C 18.65625 3.566406 18.300781 3.328125 17.898438 3.160156 C 17.492188 2.992188 17.070312 2.910156 16.632812 2.910156 L 13.214844 2.910156 C 12.777344 2.910156 12.355469 2.992188 11.953125 3.160156 C 11.546875 3.328125 11.191406 3.566406 10.882812 3.878906 C 10.574219 4.1875 10.332031 4.542969 10.164062 4.949219 C 10 5.351562 9.914062 5.773438 9.914062 6.210938 L 9.914062 6.917969 L 5.402344 6.917969 C 5.269531 6.917969 5.140625 6.945312 5.019531 6.996094 C 4.898438 7.046875 4.789062 7.117188 4.695312 7.210938 C 4.601562 7.304688 4.527344 7.414062 4.476562 7.535156 C 4.425781 7.660156 4.402344 7.789062 4.402344 7.921875 C 4.402344 8.054688 4.425781 8.179688 4.476562 8.304688 C 4.527344 8.425781 4.601562 8.535156 4.695312 8.628906 C 4.789062 8.722656 4.898438 8.796875 5.019531 8.847656 C 5.140625 8.898438 5.269531 8.921875 5.402344 8.921875 L 6.90625 8.921875 L 6.90625 22.644531 C 6.90625 23.085938 6.992188 23.507812 7.160156 23.914062 C 7.328125 24.320312 7.570312 24.679688 7.882812 24.992188 C 8.191406 25.300781 8.550781 25.542969 8.957031 25.710938 C 9.367188 25.878906 9.789062 25.960938 10.230469 25.960938 L 19.625 25.960938 C 20.066406 25.960938 20.488281 25.875 20.894531 25.707031 C 21.300781 25.539062 21.660156 25.300781 21.96875 24.988281 C 22.28125 24.679688 22.519531 24.320312 22.6875 23.914062 C 22.859375 23.507812 22.941406 23.082031 22.941406 22.644531 L 22.941406 8.921875 L 24.445312 8.921875 C 24.578125 8.921875 24.707031 8.898438 24.832031 8.847656 C 24.953125 8.796875 25.0625 8.722656 25.15625 8.628906 C 25.25 8.535156 25.320312 8.425781 25.371094 8.304688 C 25.421875 8.179688 25.449219 8.054688 25.449219 7.921875 C 25.449219 7.789062 25.421875 7.660156 25.371094 7.535156 C 25.320312 7.414062 25.25 7.304688 25.15625 7.210938 C 25.0625 7.117188 24.953125 7.046875 24.832031 6.996094 C 24.707031 6.945312 24.578125 6.917969 24.445312 6.917969 Z M 11.917969 6.210938 C 11.917969 6.039062 11.949219 5.875 12.015625 5.714844 C 12.082031 5.554688 12.175781 5.414062 12.296875 5.292969 C 12.417969 5.171875 12.558594 5.078125 12.71875 5.011719 C 12.878906 4.945312 13.042969 4.914062 13.214844 4.914062 L 16.632812 4.914062 C 16.804688 4.914062 16.972656 4.945312 17.128906 5.011719 C 17.289062 5.078125 17.429688 5.171875 17.550781 5.292969 C 17.671875 5.414062 17.765625 5.554688 17.832031 5.714844 C 17.898438 5.875 17.933594 6.039062 17.933594 6.210938 L 17.933594 6.917969 L 11.917969 6.917969 Z M 20.9375 22.644531 C 20.9375 22.816406 20.902344 22.984375 20.835938 23.144531 C 20.769531 23.304688 20.675781 23.449219 20.550781 23.570312 C 20.429688 23.695312 20.289062 23.789062 20.128906 23.855469 C 19.964844 23.921875 19.800781 23.957031 19.625 23.957031 L 10.230469 23.957031 C 10.054688 23.957031 9.886719 23.925781 9.726562 23.855469 C 9.566406 23.789062 9.421875 23.695312 9.296875 23.574219 C 9.175781 23.449219 9.078125 23.308594 9.011719 23.148438 C 8.945312 22.984375 8.910156 22.820312 8.910156 22.644531 L 8.910156 8.921875 L 20.9375 8.921875 Z M 20.9375 22.644531 "/></g><path style=" stroke:none;fill-rule:nonzero;fill:#5a2675;fill-opacity:1;" d="M 12.417969 11.171875 C 12.285156 11.171875 12.160156 11.199219 12.035156 11.25 C 11.914062 11.300781 11.804688 11.371094 11.710938 11.464844 C 11.617188 11.558594 11.542969 11.667969 11.492188 11.792969 C 11.441406 11.914062 11.417969 12.042969 11.417969 12.175781 L 11.417969 21.195312 C 11.417969 21.328125 11.441406 21.457031 11.492188 21.578125 C 11.542969 21.703125 11.617188 21.8125 11.710938 21.90625 C 11.804688 22 11.914062 22.070312 12.035156 22.121094 C 12.160156 22.171875 12.285156 22.199219 12.417969 22.199219 C 12.550781 22.199219 12.679688 22.171875 12.800781 22.121094 C 12.925781 22.070312 13.035156 22 13.128906 21.90625 C 13.222656 21.8125 13.292969 21.703125 13.34375 21.578125 C 13.394531 21.457031 13.421875 21.328125 13.421875 21.195312 L 13.421875 12.175781 C 13.421875 12.042969 13.394531 11.914062 13.34375 11.792969 C 13.292969 11.667969 13.222656 11.558594 13.128906 11.464844 C 13.035156 11.371094 12.925781 11.300781 12.800781 11.25 C 12.679688 11.199219 12.550781 11.171875 12.417969 11.171875 Z M 12.417969 11.171875 "/><path style=" stroke:none;fill-rule:nonzero;fill:#5a2675;fill-opacity:1;" d="M 17.429688 11.171875 C 17.296875 11.171875 17.167969 11.199219 17.046875 11.25 C 16.925781 11.300781 16.816406 11.371094 16.722656 11.464844 C 16.628906 11.558594 16.554688 11.667969 16.503906 11.792969 C 16.453125 11.914062 16.429688 12.042969 16.429688 12.175781 L 16.429688 21.195312 C 16.429688 21.328125 16.453125 21.457031 16.503906 21.578125 C 16.554688 21.703125 16.628906 21.8125 16.722656 21.90625 C 16.816406 22 16.925781 22.070312 17.046875 22.121094 C 17.167969 22.171875 17.296875 22.199219 17.429688 22.199219 C 17.5625 22.199219 17.691406 22.171875 17.8125 22.121094 C 17.9375 22.070312 18.046875 22 18.140625 21.90625 C 18.234375 21.8125 18.304688 21.703125 18.355469 21.578125 C 18.40625 21.457031 18.433594 21.328125 18.433594 21.195312 L 18.433594 12.175781 C 18.433594 12.042969 18.40625 11.914062 18.355469 11.792969 C 18.304688 11.667969 18.234375 11.558594 18.140625 11.464844 C 18.046875 11.371094 17.9375 11.300781 17.8125 11.25 C 17.691406 11.199219 17.5625 11.171875 17.429688 11.171875 Z M 17.429688 11.171875 "/></g></svg>