<svg xmlns="http://www.w3.org/2000/svg" xmlns:xlink="http://www.w3.org/1999/xlink" width="40" zoomAndPan="magnify" viewBox="0 0 30 30.000001" height="40" preserveAspectRatio="xMidYMid meet" version="1.2"><defs><clipPath id="32ab3f4337"><path d="M 3.386719 7.070312 L 26.613281 7.070312 L 26.613281 22 L 3.386719 22 Z M 3.386719 7.070312 "/></clipPath><clipPath id="1500bb3e7c"><path d="M 3.386719 7.070312 L 26.613281 7.070312 L 26.613281 22 L 3.386719 22 Z M 3.386719 7.070312 "/></clipPath></defs><g id="bf3e5eaf8e"><g clip-rule="nonzero" clip-path="url(#32ab3f4337)"><path style=" stroke:none;fill-rule:nonzero;fill:#5a2675;fill-opacity:1;" d="M 26.15625 13.371094 C 25.035156 11.488281 23.429688 9.910156 21.515625 8.804688 C 19.546875 7.667969 17.292969 7.070312 14.996094 7.070312 C 12.703125 7.070312 10.449219 7.667969 8.480469 8.804688 C 6.566406 9.910156 4.960938 11.488281 3.839844 13.371094 C 3.421875 14.078125 3.421875 14.953125 3.839844 15.65625 C 4.960938 17.539062 6.566406 19.121094 8.480469 20.222656 C 10.449219 21.359375 12.703125 21.960938 14.996094 21.960938 C 17.292969 21.960938 19.546875 21.359375 21.515625 20.222656 C 23.429688 19.121094 25.03125 17.539062 26.15625 15.65625 C 26.574219 14.953125 26.574219 14.078125 26.15625 13.371094 Z M 14.996094 20.230469 C 11.839844 20.230469 9.28125 17.671875 9.28125 14.515625 C 9.28125 11.355469 11.839844 8.796875 14.996094 8.796875 C 18.15625 8.796875 20.714844 11.355469 20.714844 14.515625 C 20.714844 17.671875 18.15625 20.230469 14.996094 20.230469 Z M 14.996094 20.230469 "/></g><path style=" stroke:none;fill-rule:nonzero;fill:#5a2675;fill-opacity:1;" d="M 14.996094 11.226562 C 13.183594 11.226562 11.710938 12.699219 11.710938 14.515625 C 11.710938 16.328125 13.183594 17.800781 14.996094 17.800781 C 16.8125 17.800781 18.285156 16.328125 18.285156 14.515625 C 18.285156 12.699219 16.8125 11.226562 14.996094 11.226562 Z M 14.996094 11.226562 "/><g clip-rule="nonzero" clip-path="url(#1500bb3e7c)"><path style=" stroke:none;fill-rule:nonzero;fill:#5a2675;fill-opacity:1;" d="M 26.15625 13.371094 C 25.035156 11.488281 23.429688 9.910156 21.515625 8.804688 C 19.546875 7.667969 17.292969 7.070312 14.996094 7.070312 C 12.703125 7.070312 10.449219 7.667969 8.480469 8.804688 C 6.566406 9.910156 4.960938 11.488281 3.839844 13.371094 C 3.421875 14.078125 3.421875 14.953125 3.839844 15.65625 C 4.960938 17.539062 6.566406 19.121094 8.480469 20.222656 C 10.449219 21.359375 12.703125 21.960938 14.996094 21.960938 C 17.292969 21.960938 19.546875 21.359375 21.515625 20.222656 C 23.429688 19.121094 25.03125 17.539062 26.15625 15.65625 C 26.574219 14.953125 26.574219 14.078125 26.15625 13.371094 Z M 14.996094 20.230469 C 11.839844 20.230469 9.28125 17.671875 9.28125 14.515625 C 9.28125 11.355469 11.839844 8.796875 14.996094 8.796875 C 18.15625 8.796875 20.714844 11.355469 20.714844 14.515625 C 20.714844 17.671875 18.15625 20.230469 14.996094 20.230469 Z M 14.996094 20.230469 "/></g><path style=" stroke:none;fill-rule:nonzero;fill:#5a2675;fill-opacity:1;" d="M 14.996094 11.226562 C 13.183594 11.226562 11.710938 12.699219 11.710938 14.515625 C 11.710938 16.328125 13.183594 17.800781 14.996094 17.800781 C 16.8125 17.800781 18.285156 16.328125 18.285156 14.515625 C 18.285156 12.699219 16.8125 11.226562 14.996094 11.226562 Z M 14.996094 11.226562 "/></g></svg>